<svg width="512" height="512" viewBox="0 0 512 512" fill="none" xmlns="http://www.w3.org/2000/svg">
<path d="M502.3 254.8C506.2 251.7 512 254.6 512 259.5V464C512 490.5 490.5 512 464 512H48C21.5 512 0 490.5 0 464V259.6C0 254.6 5.7 251.8 9.7 254.9C32.1 272.3 61.8 294.4 163.8 368.5C184.9 383.9 220.5 416.3 256 416.1C291.7 416.4 328 383.3 348.3 368.5C450.3 294.4 479.9 272.2 502.3 254.8ZM256 384C279.2 384.4 312.6 354.8 329.4 342.6C462.1 246.3 472.2 237.9 502.8 213.9C508.6 209.4 512 202.4 512 195V176C512 149.5 490.5 128 464 128H48C21.5 128 0 149.5 0 176V195C0 202.4 3.4 209.3 9.2 213.9C39.8 237.8 49.9 246.3 182.6 342.6C199.4 354.8 232.8 384.4 256 384Z" fill="#555555"/>
</svg>
