<svg width="30" height="30" viewBox="0 0 30 30" fill="none" xmlns="http://www.w3.org/2000/svg">
<path d="M14.9975 8.91003C13.7928 8.91048 12.6153 9.26807 11.6139 9.93758C10.6125 10.6071 9.83206 11.5585 9.37137 12.6714C8.91067 13.7843 8.79037 15.0089 9.02566 16.1902C9.26096 17.3715 9.84129 18.4565 10.6933 19.308C11.5453 20.1596 12.6307 20.7394 13.8122 20.9743C14.9938 21.2091 16.2185 21.0883 17.3314 20.6273C18.4443 20.1662 19.3955 19.3856 20.0648 18.3841C20.734 17.3825 21.0912 16.2051 21.0912 15.0006C21.09 13.3852 20.4475 11.8364 19.3049 10.6944C18.1623 9.55243 16.6131 8.91063 14.9975 8.91003ZM29.2394 4.22851C28.9293 3.44274 28.461 2.72907 27.8636 2.13176C27.2662 1.53445 26.5524 1.06625 25.7665 0.756188C23.3683 -0.190393 17.6583 0.0219883 14.9975 0.0219883C12.3366 0.0219883 6.63233 -0.198386 4.22728 0.756188C3.44141 1.06625 2.72763 1.53445 2.13023 2.13176C1.53284 2.72907 1.06456 3.44274 0.754459 4.22851C-0.191118 6.62636 0.0201524 12.3412 0.0201524 14.9994C0.0201524 17.6576 -0.191117 23.3656 0.759027 25.7715C1.06913 26.5573 1.5374 27.2709 2.1348 27.8682C2.7322 28.4656 3.44597 28.9338 4.23185 29.2438C6.63005 30.1904 12.34 29.978 15.0021 29.978C17.6641 29.978 23.3661 30.1984 25.7711 29.2438C26.557 28.9338 27.2708 28.4656 27.8682 27.8682C28.4656 27.2709 28.9338 26.5573 29.2439 25.7715C30.1975 23.3736 29.9782 17.6588 29.9782 15.0006C29.9782 12.3424 30.1975 6.63549 29.2439 4.22965L29.2394 4.22851ZM14.9975 24.3636C13.1454 24.3636 11.3349 23.8145 9.7949 22.7857C8.25493 21.7568 7.05468 20.2945 6.34591 18.5837C5.63714 16.8728 5.45169 14.9902 5.81302 13.1739C6.17435 11.3577 7.06622 9.68935 8.37585 8.3799C9.68549 7.07046 11.3541 6.17871 13.1706 5.81744C14.9871 5.45616 16.87 5.64158 18.5811 6.35025C20.2922 7.05892 21.7547 8.259 22.7837 9.79874C23.8127 11.3385 24.3619 13.1487 24.3619 15.0006C24.3634 16.2306 24.1222 17.4488 23.6521 18.5854C23.182 19.7221 22.4923 20.7549 21.6225 21.6246C20.7526 22.4943 19.7197 23.1839 18.5829 23.654C17.446 24.124 16.2277 24.3651 14.9975 24.3636ZM24.7479 7.43021C24.3155 7.43044 23.8928 7.30245 23.5332 7.06245C23.1736 6.82244 22.8933 6.4812 22.7277 6.08187C22.562 5.68255 22.5186 5.24309 22.6028 4.81907C22.687 4.39506 22.8951 4.00554 23.2007 3.69978C23.5064 3.39402 23.8959 3.18576 24.3199 3.10134C24.7439 3.01692 25.1835 3.06014 25.5829 3.22552C25.9824 3.3909 26.3238 3.67101 26.5641 4.03044C26.8043 4.38986 26.9325 4.81244 26.9325 5.24474C26.9337 5.53181 26.8782 5.8163 26.7692 6.08188C26.6602 6.34746 26.4998 6.5889 26.2973 6.79237C26.0948 6.99584 25.854 7.15733 25.5889 7.26757C25.3238 7.37781 25.0396 7.43463 24.7524 7.43478L24.7479 7.43021Z" fill="#555555"/>
</svg>
