<svg width="200" height="200" viewBox="0 0 200 200" fill="none" xmlns="http://www.w3.org/2000/svg">
<rect width="200" height="200" rx="10" fill="#BADCF6"/>
<path fill-rule="evenodd" clip-rule="evenodd" d="M62.3561 74.7283C81.9592 74.7283 97.8387 90.6078 97.8387 110.211C97.8387 129.814 81.9592 145.693 62.3561 145.693C42.7531 145.693 26.8735 129.814 26.8735 110.211C26.8735 90.6078 42.8078 74.7283 62.3561 74.7283Z" fill="#E3EAF3"/>
<path fill-rule="evenodd" clip-rule="evenodd" d="M62.3562 85.4059C76.0455 85.4059 87.1612 96.5216 87.1612 110.211C87.1612 123.9 76.0455 135.016 62.3562 135.016C48.667 135.016 37.5513 123.9 37.5513 110.211C37.5513 96.5216 48.7217 85.4059 62.3562 85.4059Z" fill="#A4CAED"/>
<path fill-rule="evenodd" clip-rule="evenodd" d="M62.3561 92.3053C72.2671 92.3053 80.2617 100.355 80.2617 110.211C80.2617 120.122 72.2124 128.116 62.3561 128.116C52.4451 128.116 44.4506 120.067 44.4506 110.211C44.4506 100.3 52.4998 92.3053 62.3561 92.3053Z" fill="#E3EAF3"/>
<path fill-rule="evenodd" clip-rule="evenodd" d="M134.909 59.2869H164.259C167.435 59.2869 170.063 56.7133 170.063 53.4826L167.161 24.3519C167.161 21.1759 164.587 18.5476 161.357 18.5476H137.756C134.581 18.5476 131.952 21.1212 131.952 24.3519L129.05 53.4826C129.105 56.7133 131.678 59.2869 134.909 59.2869Z" fill="#A4CAED"/>
<path fill-rule="evenodd" clip-rule="evenodd" d="M136.661 41.7646C136.661 35.139 142.575 29.718 149.858 29.718C157.14 29.718 163.054 35.0842 163.054 41.7646C163.054 48.3902 157.14 53.8111 149.858 53.8111C142.575 53.7564 136.661 48.3902 136.661 41.7646Z" fill="white"/>
<path fill-rule="evenodd" clip-rule="evenodd" d="M146.572 42.3122C146.572 40.6695 148.051 39.3005 149.858 39.3005C151.665 39.3005 153.143 40.6695 153.143 42.3122C153.143 43.9549 151.665 45.3238 149.858 45.3238C148.051 45.2691 146.572 43.9549 146.572 42.3122Z" fill="#A4CAED"/>
<path fill-rule="evenodd" clip-rule="evenodd" d="M149.036 38.315H150.734C151.172 38.315 151.555 37.9317 151.555 37.4937V26.1042C151.555 25.6661 151.172 25.2828 150.734 25.2828H149.036C148.598 25.2828 148.215 25.6661 148.215 26.1042V37.4937C148.215 37.9317 148.598 38.315 149.036 38.315Z" fill="#E3EAF3"/>
<path fill-rule="evenodd" clip-rule="evenodd" d="M141.534 28.349C140.987 27.8015 141.042 26.9254 141.589 26.4325C142.137 25.885 143.013 25.9397 143.506 26.4873C144.053 27.0349 143.999 27.911 143.451 28.4038C142.903 28.9514 142.027 28.8966 141.534 28.349Z" fill="#D4EBF5"/>
<path fill-rule="evenodd" clip-rule="evenodd" d="M143.561 30.2657C142.575 29.2801 142.192 28.0206 142.685 27.5826C143.177 27.0898 144.382 27.5278 145.368 28.5135C146.353 29.4991 146.737 30.7585 146.244 31.1966C145.751 31.6894 144.546 31.3061 143.561 30.2657Z" fill="#E3EAF3"/>
<path fill-rule="evenodd" clip-rule="evenodd" d="M139.618 26.2684C138.632 25.2827 138.249 24.0233 138.742 23.5853C139.235 23.0925 140.439 23.5305 141.425 24.5161C142.411 25.5018 142.794 26.7612 142.301 27.1992C141.753 27.6921 140.549 27.254 139.618 26.2684Z" fill="#E3EAF3"/>
<path fill-rule="evenodd" clip-rule="evenodd" d="M145.368 26.3232C144.382 27.3088 143.123 27.6921 142.685 27.1993C142.192 26.7065 142.63 25.5018 143.615 24.5162C144.601 23.5306 145.86 23.1473 146.298 23.6401C146.846 24.1329 146.408 25.3376 145.368 26.3232Z" fill="#E3EAF3"/>
<path fill-rule="evenodd" clip-rule="evenodd" d="M141.37 30.2657C140.385 31.2513 139.125 31.6346 138.687 31.1418C138.194 30.649 138.632 29.4443 139.618 28.4587C140.604 27.4731 141.863 27.0898 142.301 27.5826C142.794 28.1302 142.356 29.3348 141.37 30.2657Z" fill="#E3EAF3"/>
<path fill-rule="evenodd" clip-rule="evenodd" d="M156.045 28.349C155.498 27.8015 155.552 26.9254 156.1 26.4325C156.648 25.885 157.524 25.9397 158.016 26.4873C158.564 27.0349 158.509 27.911 157.962 28.4038C157.414 28.9514 156.538 28.8966 156.045 28.349Z" fill="#D4EBF5"/>
<path fill-rule="evenodd" clip-rule="evenodd" d="M158.071 30.2657C157.086 29.2801 156.702 28.0206 157.195 27.5826C157.688 27.0898 158.893 27.5278 159.878 28.5135C160.864 29.4991 161.247 30.7585 160.754 31.1966C160.261 31.6894 159.057 31.3061 158.071 30.2657Z" fill="#E3EAF3"/>
<path fill-rule="evenodd" clip-rule="evenodd" d="M154.074 26.2684C153.088 25.2827 152.705 24.0233 153.198 23.5853C153.691 23.0925 154.895 23.5305 155.881 24.5161C156.866 25.5018 157.25 26.7612 156.757 27.1992C156.264 27.6921 155.059 27.254 154.074 26.2684Z" fill="#E3EAF3"/>
<path fill-rule="evenodd" clip-rule="evenodd" d="M159.878 26.3232C158.893 27.3088 157.633 27.6921 157.195 27.1993C156.702 26.7065 157.14 25.5018 158.126 24.5162C159.112 23.5306 160.371 23.1473 160.809 23.6401C161.302 24.1329 160.919 25.3376 159.878 26.3232Z" fill="#E3EAF3"/>
<path fill-rule="evenodd" clip-rule="evenodd" d="M155.881 30.2657C154.895 31.2513 153.636 31.6346 153.198 31.1418C152.705 30.649 153.143 29.4443 154.129 28.4587C155.114 27.4731 156.374 27.0898 156.812 27.5826C157.305 28.1302 156.867 29.3348 155.881 30.2657Z" fill="#E3EAF3"/>
<path fill-rule="evenodd" clip-rule="evenodd" d="M128.557 53.4826L131.459 24.2971L131.569 23.0924C132.116 20.1903 134.69 18 137.756 18H161.357C164.423 18 166.997 20.1903 167.599 23.0924L167.708 24.2971L170.611 53.4826C170.611 56.987 167.763 59.8344 164.259 59.8344H134.909C131.404 59.8344 128.557 56.987 128.557 53.4826ZM169.461 53.4826L166.559 24.3518C166.559 21.4497 164.204 19.1499 161.357 19.1499H137.756C134.854 19.1499 132.554 21.5045 132.554 24.4066L129.652 53.5373L129.762 54.5777C130.255 56.9323 132.335 58.7393 134.854 58.7393H164.204C166.723 58.7393 168.858 56.9323 169.296 54.5777L169.461 53.4826Z" fill="#8AA6B3"/>
<path fill-rule="evenodd" clip-rule="evenodd" d="M74.1288 181.669V163.38H22.5476V181.669H74.1288Z" fill="#A4CAED"/>
<path fill-rule="evenodd" clip-rule="evenodd" d="M22 182.216V162.778H74.6763V182.216H22ZM73.5812 181.067V163.928H23.1499V181.067H73.5812Z" fill="#8AA6B3"/>
<path fill-rule="evenodd" clip-rule="evenodd" d="M103.095 67.7196C89.9537 68.2672 82.671 37.7127 89.1324 27.8564H117.058C123.52 37.7675 116.237 68.2672 103.15 67.7196H103.095Z" fill="#E3EAF3"/>
<path fill-rule="evenodd" clip-rule="evenodd" d="M103.095 60.4368C94.9911 60.7105 90.5011 44.1192 94.4983 38.753C98.6051 34.5914 108.133 34.3176 111.747 38.753C115.744 44.1192 111.254 60.7653 103.095 60.4368C103.095 60.4368 103.15 60.4368 103.095 60.4368Z" fill="white"/>
<path fill-rule="evenodd" clip-rule="evenodd" d="M88.6943 27.5278L88.8585 27.254H117.442L117.606 27.5278C123.958 37.2746 117.442 66.8981 104.464 68.2671L103.205 68.3218H103.15C89.2418 68.8694 82.0686 37.6031 88.6943 27.5278ZM116.785 28.4039H89.5156L89.0776 29.1158C83.9304 39.3553 90.556 65.8578 101.891 67.1172L102.822 67.1719H103.369L104.355 67.1172C115.635 65.8578 122.315 39.3553 117.168 29.1158L116.785 28.4039Z" fill="#8AA6B3"/>
<path fill-rule="evenodd" clip-rule="evenodd" d="M88.8585 33.1677H116.894C120.07 33.1677 122.644 30.5941 122.644 27.4182V24.6256C122.644 21.4497 120.07 18.8761 116.894 18.8761H88.8585C85.6826 18.8761 83.109 21.4497 83.109 24.6256V27.4182C83.0543 30.5941 85.6278 33.1677 88.8585 33.1677Z" fill="#A4CAED"/>
<path fill-rule="evenodd" clip-rule="evenodd" d="M102.493 22.9829C104.026 22.9829 105.231 24.1876 105.231 25.7208C105.231 27.254 104.026 28.4586 102.493 28.4586C100.96 28.4586 99.755 27.254 99.755 25.7208C99.755 24.1876 100.96 22.9829 102.493 22.9829Z" fill="white"/>
<path fill-rule="evenodd" clip-rule="evenodd" d="M98.7147 39.3004C98.7147 38.041 99.0433 36.8911 99.5361 36.015C101.781 35.4127 104.245 35.3579 106.49 35.8507C107.093 36.8363 107.421 38.041 107.421 39.3552C107.421 42.4763 105.45 44.9951 103.095 44.9951C100.686 44.9404 98.7147 42.4216 98.7147 39.3004Z" fill="#A4CAED"/>
<path fill-rule="evenodd" clip-rule="evenodd" d="M82.5066 27.4181V24.6255C82.5066 21.121 85.354 18.2737 88.8584 18.2737H116.894C120.398 18.2737 123.246 21.121 123.246 24.6255V27.4181C123.246 30.9226 120.398 33.7699 116.894 33.7699H88.8584C85.354 33.7699 82.5066 30.9226 82.5066 27.4181ZM122.041 27.4181V24.6255C122.041 21.7781 119.687 19.4236 116.839 19.4236H88.8037C85.9563 19.4236 83.6017 21.7781 83.6017 24.6255V27.4181C83.6017 30.2655 85.9563 32.62 88.8037 32.62H116.839C119.741 32.62 122.041 30.2655 122.041 27.4181Z" fill="#8AA6B3"/>
<path fill-rule="evenodd" clip-rule="evenodd" d="M94.3888 161.902C94.3888 121.272 127.353 88.3081 167.982 88.3081C171.103 88.3081 174.17 88.5271 177.127 88.8557V181.778H165.354H110.487C100.795 181.888 96.0863 178.384 94.9364 170.827C94.5531 167.925 94.3888 164.913 94.3888 161.902Z" fill="#A4CAED"/>
<path fill-rule="evenodd" clip-rule="evenodd" d="M105.231 156.316C105.231 125.762 130.036 101.012 160.535 101.012C165.409 101.066 167.38 103.75 167.435 108.294V163.38C167.708 169.677 164.04 171.539 158.564 171.32H117.277C109.994 171.375 106.435 168.801 105.559 163.106C105.34 160.861 105.231 158.616 105.231 156.316Z" fill="white"/>
<path fill-rule="evenodd" clip-rule="evenodd" d="M94.3888 170.936C94.0055 167.98 93.8412 164.968 93.8412 161.902C93.8412 120.943 127.079 87.7605 167.982 87.7605C171.103 87.7605 174.17 87.9795 177.236 88.3081L177.729 88.3628V182.326H110.487C100.631 182.49 95.5387 178.876 94.3888 170.936ZM176.579 181.231V89.4032L172.582 89.0199C171.049 88.9104 169.515 88.8556 167.982 88.8556C127.681 88.8556 94.9363 121.546 94.9363 161.902C94.9363 164.913 95.1006 167.87 95.4839 170.772C96.579 177.945 100.96 181.286 110.487 181.231H176.579Z" fill="#8AA6B3"/>
<path fill-rule="evenodd" clip-rule="evenodd" d="M105.066 163.106C104.792 160.861 104.683 158.616 104.683 156.317C104.683 125.488 129.707 100.41 160.59 100.41C165.847 100.464 168.037 103.421 168.037 108.24V163.271C168.311 170.006 164.259 172.032 158.619 171.813H117.387C109.83 171.922 105.942 169.184 105.066 163.106ZM166.832 163.325V108.295C166.832 104.024 165.025 101.614 160.535 101.614C130.309 101.614 105.778 126.145 105.778 156.371C105.778 158.616 105.888 160.861 106.161 162.997C106.983 168.308 110.213 170.772 117.277 170.718H158.564C163.875 170.882 167.106 169.184 166.832 163.325Z" fill="#8AA6B3"/>
<path fill-rule="evenodd" clip-rule="evenodd" d="M152.979 158.671H151.062C150.515 158.671 150.132 159.109 150.132 159.602V172.415C150.132 172.962 150.57 173.346 151.062 173.346H152.979C153.472 173.346 153.91 172.908 153.91 172.415V159.602C153.91 159.109 153.472 158.671 152.979 158.671Z" fill="#E3EAF3"/>
<path fill-rule="evenodd" clip-rule="evenodd" d="M160.481 171.101C161.083 171.703 161.083 172.689 160.426 173.291C159.824 173.894 158.838 173.894 158.236 173.236C157.633 172.634 157.688 171.648 158.29 171.046C158.893 170.499 159.878 170.499 160.481 171.101Z" fill="#E3EAF3"/>
<path fill-rule="evenodd" clip-rule="evenodd" d="M158.181 168.965C159.276 170.115 159.714 171.484 159.166 172.032C158.619 172.579 157.25 172.086 156.155 170.991C155.06 169.841 154.622 168.472 155.169 167.925C155.717 167.323 157.086 167.815 158.181 168.965Z" fill="#E3EAF3"/>
<path fill-rule="evenodd" clip-rule="evenodd" d="M162.671 173.51C163.766 174.66 164.204 176.029 163.656 176.577C163.109 177.124 161.74 176.631 160.645 175.536C159.55 174.386 159.112 173.017 159.659 172.47C160.207 171.868 161.576 172.36 162.671 173.51Z" fill="#E3EAF3"/>
<path fill-rule="evenodd" clip-rule="evenodd" d="M156.1 173.455C157.25 172.36 158.619 171.922 159.166 172.47C159.714 173.017 159.221 174.386 158.126 175.481C156.976 176.577 155.607 177.015 155.06 176.467C154.512 175.865 155.005 174.551 156.1 173.455Z" fill="#E3EAF3"/>
<path fill-rule="evenodd" clip-rule="evenodd" d="M160.645 168.965C161.795 167.87 163.164 167.432 163.711 167.98C164.259 168.527 163.766 169.896 162.671 170.991C161.521 172.086 160.152 172.524 159.605 171.977C159.057 171.429 159.55 170.06 160.645 168.965Z" fill="#E3EAF3"/>
<path fill-rule="evenodd" clip-rule="evenodd" d="M145.532 171.101C146.134 171.703 146.079 172.689 145.477 173.291C144.875 173.894 143.889 173.894 143.287 173.236C142.685 172.634 142.739 171.648 143.342 171.046C143.944 170.499 144.93 170.499 145.532 171.101Z" fill="#E3EAF3"/>
<path fill-rule="evenodd" clip-rule="evenodd" d="M143.232 168.965C144.327 170.115 144.765 171.484 144.218 172.032C143.67 172.579 142.301 172.086 141.206 170.991C140.111 169.841 139.673 168.472 140.221 167.925C140.768 167.323 142.137 167.815 143.232 168.965Z" fill="#E3EAF3"/>
<path fill-rule="evenodd" clip-rule="evenodd" d="M147.722 173.51C148.817 174.66 149.255 176.029 148.708 176.577C148.16 177.124 146.791 176.631 145.696 175.536C144.601 174.386 144.163 173.017 144.711 172.47C145.258 171.868 146.627 172.36 147.722 173.51Z" fill="#E3EAF3"/>
<path fill-rule="evenodd" clip-rule="evenodd" d="M141.206 173.455C142.356 172.36 143.725 171.922 144.272 172.47C144.82 173.017 144.327 174.386 143.232 175.481C142.082 176.577 140.713 177.015 140.166 176.467C139.563 175.865 140.056 174.551 141.206 173.455Z" fill="#E3EAF3"/>
<path fill-rule="evenodd" clip-rule="evenodd" d="M145.751 168.965C146.901 167.87 148.27 167.432 148.817 167.98C149.365 168.527 148.872 169.896 147.777 170.991C146.627 172.086 145.258 172.524 144.711 171.977C144.108 171.429 144.601 170.06 145.751 168.965Z" fill="#E3EAF3"/>
<path fill-rule="evenodd" clip-rule="evenodd" d="M148.434 116.727C150.624 116.727 152.377 118.479 152.377 120.67C152.377 122.86 150.624 124.612 148.434 124.612C146.244 124.612 144.492 122.86 144.492 120.67C144.492 118.479 146.244 116.727 148.434 116.727Z" fill="#A4CAED"/>
</svg>
