<svg width="200" height="200" viewBox="0 0 200 200" fill="none" xmlns="http://www.w3.org/2000/svg">
<rect width="200" height="200" rx="10" fill="#E3EAF3"/>
<path d="M56.795 157.246V49.3082C56.795 46.8229 58.8098 44.8082 61.295 44.8082H139.474C141.959 44.8082 143.974 46.8229 143.974 49.3082V157.246C143.974 159.731 141.959 161.746 139.474 161.746H61.295C58.8098 161.746 56.795 159.731 56.795 157.246Z" fill="#BADCF6" stroke="#8AA6B3"/>
<path fill-rule="evenodd" clip-rule="evenodd" d="M66.7175 80.1696V62.5476C66.7175 60.6276 68.2946 59.1191 70.2145 59.1191H94.2134C96.1333 59.1191 97.6418 60.6962 97.6418 62.5476V80.101C97.6418 82.021 96.0648 83.5295 94.2134 83.5295H70.2145C68.2946 83.598 66.7175 82.021 66.7175 80.1696Z" fill="white"/>
<path fill-rule="evenodd" clip-rule="evenodd" d="M103.333 80.1696V62.5476C103.333 60.6276 104.91 59.1191 106.83 59.1191H130.829C132.749 59.1191 134.257 60.6962 134.257 62.5476V80.101C134.257 82.021 132.68 83.5295 130.829 83.5295H106.83C104.91 83.598 103.333 82.021 103.333 80.1696Z" fill="white"/>
<path fill-rule="evenodd" clip-rule="evenodd" d="M17.6857 53.4279C14.9242 53.4279 12.6857 55.6664 12.6857 58.4279V78.3236C12.6857 81.0851 14.9242 83.3236 17.6857 83.3236H42.3127C45.0741 83.3236 47.3127 81.0851 47.3127 78.3236V58.4279C47.3127 55.6664 45.0741 53.4279 42.3127 53.4279H17.6857Z" fill="#BADCF6"/>
<path fill-rule="evenodd" clip-rule="evenodd" d="M29.5534 59.1191C34.1475 59.1191 37.9188 62.8218 37.9188 67.4845C37.9188 72.1471 34.2161 75.8498 29.5534 75.8498C24.8908 75.8498 21.1881 72.0785 21.1881 67.4845C21.1881 62.8904 24.9594 59.1191 29.5534 59.1191Z" fill="white"/>
<path fill-rule="evenodd" clip-rule="evenodd" d="M157.702 53.9078C154.941 53.9078 152.702 56.1464 152.702 58.9078V78.8722C152.702 81.6336 154.941 83.8722 157.702 83.8722H182.329C185.091 83.8722 187.329 81.6336 187.329 78.8722V58.9078C187.329 56.1464 185.091 53.9078 182.329 53.9078H157.702Z" fill="#BADCF6"/>
<path fill-rule="evenodd" clip-rule="evenodd" d="M169.57 59.6676C174.164 59.6676 177.935 63.3703 177.935 68.0329C177.935 72.627 174.233 76.3983 169.57 76.3983C164.976 76.3983 161.205 72.6956 161.205 68.0329C161.205 63.3703 164.976 59.6676 169.57 59.6676Z" fill="white"/>
<path fill-rule="evenodd" clip-rule="evenodd" d="M66.0319 80.1695V62.5474C66.0319 60.2161 67.8832 58.3647 70.2145 58.3647H94.2134C96.5448 58.3647 98.3961 60.2161 98.3961 62.5474V80.1009C98.3961 82.4322 96.5448 84.2836 94.2134 84.2836H70.2145C67.8832 84.2836 66.0319 82.4322 66.0319 80.1695ZM96.8876 80.1695V62.5474C96.8876 61.0389 95.6534 59.8047 94.1449 59.8047H70.146C68.6375 59.8047 67.4032 61.0389 67.4032 62.5474V80.1009C67.4032 81.6094 68.6375 82.8436 70.146 82.8436H94.1449C95.6534 82.9122 96.8876 81.678 96.8876 80.1695Z" fill="#8AA6B3"/>
<path fill-rule="evenodd" clip-rule="evenodd" d="M102.647 80.1695V62.5474C102.647 60.2161 104.499 58.3647 106.83 58.3647H130.829C133.16 58.3647 135.012 60.2161 135.012 62.5474V80.1009C135.012 82.4322 133.16 84.2836 130.829 84.2836H106.83C104.499 84.2836 102.647 82.4322 102.647 80.1695ZM133.572 80.1695V62.5474C133.572 61.0389 132.337 59.8047 130.829 59.8047H106.83C105.322 59.8047 104.087 61.0389 104.087 62.5474V80.1009C104.087 81.6094 105.322 82.8436 106.83 82.8436H130.829C132.337 82.9122 133.572 81.678 133.572 80.1695Z" fill="#8AA6B3"/>
<path fill-rule="evenodd" clip-rule="evenodd" d="M17 84.0094C14.2386 84.0094 12 81.7708 12 79.0094V57.6737C12 54.9123 14.2386 52.6737 17 52.6737H42.9984C45.7598 52.6737 47.9984 54.9123 47.9984 57.6737V79.0094C47.9984 81.7708 45.7598 84.0094 42.9984 84.0094H17ZM41.5584 82.5695C44.3198 82.5695 46.5584 80.3309 46.5584 77.5695V59.1136C46.5584 56.3522 44.3198 54.1136 41.5584 54.1136H18.4399C15.6785 54.1136 13.4399 56.3522 13.4399 59.1136V77.5695C13.4399 80.3309 15.6785 82.5695 18.4399 82.5695H41.5584ZM20.5025 67.4845C20.5025 62.479 24.548 58.4334 29.5535 58.4334C34.559 58.4334 38.6045 62.479 38.6045 67.4845C38.6045 72.4899 34.559 76.5355 29.5535 76.5355C24.548 76.5355 20.5025 72.4899 20.5025 67.4845ZM37.1646 67.4845C37.1646 63.3018 33.7361 59.8734 29.5535 59.8734C25.3708 59.8734 21.9424 63.3018 21.9424 67.4845C21.9424 71.6671 25.3708 75.0955 29.5535 75.0955C33.7361 75.0955 37.1646 71.6671 37.1646 67.4845Z" fill="#8AA6B3"/>
<path fill-rule="evenodd" clip-rule="evenodd" d="M157.017 84.5578C154.255 84.5578 152.017 82.3192 152.017 79.5578V58.222C152.017 55.4606 154.255 53.222 157.017 53.222H183.015C185.776 53.222 188.015 55.4606 188.015 58.222V79.5578C188.015 82.3192 185.776 84.5578 183.015 84.5578H157.017ZM181.575 83.1178C184.336 83.1178 186.575 80.8793 186.575 78.1178V59.662C186.575 56.9006 184.336 54.662 181.575 54.662H158.456C155.695 54.662 153.456 56.9006 153.456 59.662V78.1178C153.456 80.8793 155.695 83.1178 158.456 83.1178H181.575ZM160.519 68.0328C160.519 63.0273 164.565 58.9818 169.57 58.9818C174.576 58.9818 178.621 63.0273 178.621 68.0328C178.621 73.0383 174.576 77.0838 169.57 77.0838C164.565 77.0152 160.519 72.9697 160.519 68.0328ZM177.181 68.0328C177.181 63.8501 173.753 60.4217 169.57 60.4217C165.387 60.4217 161.959 63.8501 161.959 68.0328C161.959 72.2155 165.387 75.6439 169.57 75.6439C173.753 75.6439 177.181 72.2155 177.181 68.0328Z" fill="#8AA6B3"/>
<path fill-rule="evenodd" clip-rule="evenodd" d="M51.084 38.6857V50.6166H149.891V38.6857H51.084Z" fill="#A4CAED"/>
<path fill-rule="evenodd" clip-rule="evenodd" d="M50.3982 51.3708V38H150.576V51.3708H50.3982ZM149.137 49.9309V39.4399H51.8381V49.9309H149.137V49.9309Z" fill="#8AA6B3"/>
<path fill-rule="evenodd" clip-rule="evenodd" d="M51.6324 109.86V91.8261C51.6324 90.8662 52.3867 90.1119 53.3467 90.1119H147.422C148.382 90.1119 149.137 90.8662 149.137 91.8261V109.928C149.137 110.888 148.382 111.642 147.422 111.642H53.3467C52.3867 111.574 51.6324 110.82 51.6324 109.86Z" fill="white"/>
<path fill-rule="evenodd" clip-rule="evenodd" d="M50.9469 109.86V91.7576C50.9469 90.4548 52.044 89.3577 53.3468 89.3577H147.422C148.725 89.3577 149.822 90.4548 149.822 91.7576V109.86C149.822 111.162 148.725 112.259 147.422 112.259H53.3468C51.9754 112.328 50.9469 111.231 50.9469 109.86ZM148.382 109.86V91.7576C148.382 91.209 147.971 90.7976 147.422 90.7976H53.3468C52.7982 90.7976 52.3868 91.209 52.3868 91.7576V109.86C52.3868 110.408 52.7982 110.82 53.3468 110.82H147.422C147.902 110.888 148.382 110.408 148.382 109.86Z" fill="#8AA6B3"/>
</svg>
