<svg width="200" height="200" viewBox="0 0 200 200" fill="none" xmlns="http://www.w3.org/2000/svg">
<rect width="200" height="200" rx="10" fill="#F89D70"/>
<path fill-rule="evenodd" clip-rule="evenodd" d="M112.78 126.507L127.383 118.121L118.997 103.517L104.394 111.903L112.78 126.507Z" fill="#FDE1A9"/>
<path fill-rule="evenodd" clip-rule="evenodd" d="M112.587 127.23L103.72 111.759L119.19 102.891L128.057 118.362L112.587 127.23ZM112.973 125.832L126.708 117.928L118.804 104.192L105.069 112.096L112.973 125.832Z" fill="#A54039"/>
<path fill-rule="evenodd" clip-rule="evenodd" d="M103.623 107.807C108.298 104.915 115.141 107.421 118.9 113.446C122.66 119.47 121.985 126.748 117.31 129.64C112.635 132.532 105.792 130.026 102.033 124.001C98.2737 117.976 98.9966 110.699 103.623 107.807Z" fill="#D5544B"/>
<path fill-rule="evenodd" clip-rule="evenodd" d="M117.117 100.722C118.997 99.2758 123.431 102.36 126.997 107.614C130.563 112.867 131.961 118.314 130.033 119.76C128.154 121.205 123.72 118.121 120.154 112.867C116.635 107.614 115.238 102.168 117.117 100.722Z" fill="#D5544B"/>
<path fill-rule="evenodd" clip-rule="evenodd" d="M101.599 124.29C97.7436 118.121 98.3701 110.506 103.334 107.373C108.298 104.24 115.431 107.036 119.286 113.205C123.141 119.374 122.515 126.989 117.551 130.122C112.587 133.207 105.455 130.459 101.599 124.29ZM117.069 129.254C121.407 126.555 122.178 119.663 118.515 113.735C114.804 107.807 108.25 105.541 103.912 108.24C99.5749 110.94 98.8038 117.832 102.467 123.76C106.177 129.688 112.732 131.953 117.069 129.254Z" fill="#A54039"/>
<path fill-rule="evenodd" clip-rule="evenodd" d="M119.768 113.205C116.298 108.048 114.515 102.119 116.828 100.336C119.19 98.5047 123.961 102.216 127.431 107.325C130.901 112.482 132.684 118.41 130.37 120.193C128.009 122.025 123.286 118.314 119.768 113.205ZM129.792 119.374C130.467 118.844 130.708 117.446 130.13 115.229C129.599 113.108 128.395 110.458 126.611 107.903C122.949 102.553 118.852 100.047 117.455 101.107C116.78 101.637 116.539 103.035 117.117 105.252C117.647 107.373 118.852 110.024 120.635 112.578C124.25 117.976 128.346 120.483 129.792 119.374Z" fill="#A54039"/>
<path fill-rule="evenodd" clip-rule="evenodd" d="M52.6346 140.292L37.9838 148.678L46.3694 163.282L61.0202 154.895L52.6346 140.292Z" fill="#FDE1A9"/>
<path fill-rule="evenodd" clip-rule="evenodd" d="M52.7792 139.617L61.6467 155.088L46.1767 163.956L37.3091 148.485L52.7792 139.617ZM52.4418 140.966L38.7067 148.871L46.6104 162.607L60.2973 154.703L52.4418 140.966Z" fill="#A54039"/>
<path fill-rule="evenodd" clip-rule="evenodd" d="M61.7913 158.992C57.1165 161.884 50.2731 159.378 46.514 153.353C42.7549 147.328 43.4296 140.051 48.1044 137.159C52.7791 134.267 59.6226 136.773 63.3817 142.798C67.1408 148.822 66.4179 156.1 61.7913 158.992Z" fill="#D5544B"/>
<path fill-rule="evenodd" clip-rule="evenodd" d="M48.2489 166.077C46.3694 167.523 41.9356 164.438 38.3693 159.185C34.803 153.931 33.4054 148.485 35.3331 147.039C37.2126 145.593 41.6464 148.678 45.2127 153.931C48.7791 159.185 50.1285 164.631 48.2489 166.077Z" fill="#D5544B"/>
<path fill-rule="evenodd" clip-rule="evenodd" d="M63.7673 142.509C67.6228 148.678 66.9963 156.293 62.0323 159.426C57.0684 162.559 49.9358 159.763 46.0803 153.594C42.2249 147.425 42.8514 139.81 47.8153 136.677C52.7792 133.592 59.9118 136.388 63.7673 142.509ZM48.3454 137.544C44.008 140.243 43.2369 147.136 46.8996 153.064C50.6105 158.992 57.1648 161.257 61.5022 158.558C65.8396 155.859 66.6107 148.967 62.948 143.039C59.2371 137.159 52.6828 134.845 48.3454 137.544Z" fill="#A54039"/>
<path fill-rule="evenodd" clip-rule="evenodd" d="M45.5983 153.642C49.0682 158.799 50.8514 164.727 48.5381 166.511C46.1766 168.342 41.4055 164.631 37.9356 159.522C34.4656 154.365 32.6825 148.437 34.9958 146.654C37.3572 144.822 42.1284 148.533 45.5983 153.642ZM35.6223 147.425C34.9476 147.955 34.7066 149.353 35.2849 151.57C35.815 153.69 37.0199 156.341 38.803 158.944C42.4657 164.294 46.5622 166.8 47.9598 165.74C48.6345 165.209 48.8755 163.812 48.2971 161.595C47.767 159.474 46.5622 156.823 44.779 154.269C41.1163 148.822 37.0199 146.316 35.6223 147.425Z" fill="#A54039"/>
<path fill-rule="evenodd" clip-rule="evenodd" d="M76.9722 104.096L68.5866 89.4436L53.9358 97.8299L62.3214 112.482L76.9722 104.096Z" fill="#FDE1A9"/>
<path fill-rule="evenodd" clip-rule="evenodd" d="M77.6469 104.24L62.1768 113.108L53.3093 97.6372L68.7793 88.7689L77.6469 104.24ZM76.2493 103.903L68.3456 90.1666L54.6105 98.071L62.5142 111.807L76.2493 103.903Z" fill="#A54039"/>
<path fill-rule="evenodd" clip-rule="evenodd" d="M58.225 113.253C55.3334 108.578 57.8395 101.734 63.8636 97.9745C69.8878 94.2151 77.165 94.8899 80.0566 99.565C82.9482 104.24 80.4422 111.084 74.418 114.844C68.3938 118.603 61.1648 117.88 58.225 113.253Z" fill="#D5544B"/>
<path fill-rule="evenodd" clip-rule="evenodd" d="M51.1406 99.7096C49.6948 97.83 52.7791 93.3958 58.0322 89.8292C63.2853 86.2627 68.7311 84.8649 70.177 86.7928C71.6228 88.6725 68.5384 93.1066 63.2853 96.6732C58.0804 100.24 52.5864 101.638 51.1406 99.7096Z" fill="#D5544B"/>
<path fill-rule="evenodd" clip-rule="evenodd" d="M74.7071 115.229C68.5384 119.085 60.9238 118.458 57.7912 113.494C54.6587 108.53 57.4539 101.396 63.6226 97.5407C69.7914 93.685 77.4059 94.3115 80.5385 99.2758C83.6711 104.24 80.8759 111.373 74.7071 115.229ZM79.671 99.806C76.9722 95.4683 70.0805 94.6971 64.1528 98.3601C58.225 102.071 55.9599 108.626 58.6587 112.964C61.3575 117.302 68.2492 118.073 74.177 114.41C80.1048 110.699 82.3699 104.144 79.671 99.806Z" fill="#A54039"/>
<path fill-rule="evenodd" clip-rule="evenodd" d="M63.6227 97.107C58.466 100.577 52.5382 102.36 50.755 100.047C48.9237 97.6854 52.6346 92.9139 57.7431 89.4437C62.8998 85.9735 68.8276 84.1902 70.6107 86.5036C72.4421 88.8171 68.7312 93.5886 63.6227 97.107ZM69.7914 87.082C69.2613 86.4073 67.8637 86.1663 65.6468 86.7446C63.5263 87.2748 60.8757 88.4797 58.2732 90.263C52.9238 93.926 50.4177 98.0228 51.4779 99.4205C52.0081 100.095 53.4057 100.336 55.6226 99.7579C57.7431 99.2277 60.3937 98.0228 62.948 96.2395C68.3938 92.6247 70.8999 88.4797 69.7914 87.082Z" fill="#A54039"/>
<path fill-rule="evenodd" clip-rule="evenodd" d="M90.3218 162.366L98.7075 176.97L113.31 168.583L104.924 153.979L90.3218 162.366Z" fill="#FDE1A9"/>
<path fill-rule="evenodd" clip-rule="evenodd" d="M89.647 162.173L105.117 153.305L113.985 168.776L98.5146 177.644L89.647 162.173ZM90.9965 162.559L98.9002 176.295L112.635 168.39L104.732 154.654L90.9965 162.559Z" fill="#A54039"/>
<path fill-rule="evenodd" clip-rule="evenodd" d="M109.069 153.208C111.961 157.883 109.455 164.727 103.43 168.487C97.4063 172.246 90.1291 171.571 87.2375 166.896C84.3459 162.221 86.8519 155.377 92.8761 151.618C98.9003 147.858 106.129 148.533 109.069 153.208Z" fill="#D5544B"/>
<path fill-rule="evenodd" clip-rule="evenodd" d="M116.153 166.704C117.599 168.583 114.515 173.017 109.262 176.584C104.009 180.151 98.5629 181.548 97.1171 179.62C95.6713 177.741 98.7556 173.307 104.009 169.74C109.214 166.222 114.659 164.824 116.153 166.704Z" fill="#D5544B"/>
<path fill-rule="evenodd" clip-rule="evenodd" d="M92.5869 151.184C98.7557 147.328 106.37 147.955 109.503 152.919C112.635 157.883 109.84 165.017 103.671 168.872C97.5027 172.728 89.8881 172.102 86.7555 167.137C83.6229 162.173 86.4182 155.04 92.5869 151.184ZM87.623 166.655C90.3218 170.993 97.2135 171.764 103.141 168.101C109.069 164.39 111.334 157.835 108.635 153.497C105.936 149.16 99.0448 148.389 93.117 152.052C87.1893 155.763 84.9242 162.318 87.623 166.655Z" fill="#A54039"/>
<path fill-rule="evenodd" clip-rule="evenodd" d="M103.671 169.354C108.828 165.884 114.756 164.101 116.539 166.414C118.37 168.776 114.659 173.548 109.551 177.018C104.394 180.488 98.4665 182.271 96.6833 179.958C94.852 177.596 98.5629 172.825 103.671 169.354ZM97.4544 179.379C97.9845 180.054 99.3822 180.295 101.599 179.717C103.72 179.187 106.37 177.982 108.924 176.198C114.274 172.535 116.78 168.439 115.72 167.041C115.19 166.366 113.792 166.125 111.575 166.704C109.455 167.234 106.804 168.439 104.25 170.222C98.9002 173.837 96.3942 177.934 97.4544 179.379Z" fill="#A54039"/>
<path fill-rule="evenodd" clip-rule="evenodd" d="M89.3097 102.264C106.515 106.12 117.358 123.278 113.503 140.484C109.647 157.691 92.4905 168.535 75.2854 164.679C58.0804 160.823 47.2369 143.665 51.0924 126.459C54.996 109.253 72.1047 98.4082 89.3097 102.264Z" fill="#FDE1A9"/>
<path fill-rule="evenodd" clip-rule="evenodd" d="M101.888 118.989C105.358 119.76 107.527 123.182 106.756 126.652C105.985 130.122 102.563 132.291 99.093 131.52C95.623 130.749 93.4543 127.327 94.2254 123.856C94.9965 120.386 98.4183 118.217 101.888 118.989Z" fill="white"/>
<path fill-rule="evenodd" clip-rule="evenodd" d="M100.876 135.183C100.635 134.749 100.78 134.17 101.214 133.881L107.961 130.074C108.394 129.833 108.973 129.977 109.262 130.411C109.503 130.845 109.358 131.423 108.924 131.712L102.177 135.52C101.744 135.809 101.165 135.616 100.876 135.183Z" fill="white"/>
<path fill-rule="evenodd" clip-rule="evenodd" d="M92.0085 119.76C91.7676 119.278 91.9603 118.747 92.4423 118.506L99.4303 115.181C99.9122 114.94 100.442 115.181 100.683 115.615C100.924 116.097 100.732 116.675 100.25 116.868L93.2615 120.193C92.7796 120.434 92.2495 120.242 92.0085 119.76Z" fill="white"/>
<path fill-rule="evenodd" clip-rule="evenodd" d="M90.4664 116.723C90.2254 116.241 90.4182 115.663 90.9002 115.47L97.8882 112.144C98.3701 111.903 98.9484 112.144 99.1412 112.578C99.3822 113.06 99.1894 113.59 98.7075 113.831L91.7194 117.157C91.2375 117.398 90.6592 117.205 90.4664 116.723Z" fill="white"/>
<path fill-rule="evenodd" clip-rule="evenodd" d="M62.5142 147.377C59.0443 146.605 56.8756 143.183 57.6467 139.713C58.4178 136.243 61.8395 134.074 65.3094 134.845C68.7794 135.616 70.9481 139.038 70.177 142.509C69.4059 145.979 65.9842 148.148 62.5142 147.377Z" fill="white"/>
<path fill-rule="evenodd" clip-rule="evenodd" d="M55.1406 135.954C54.8996 135.52 55.0442 134.942 55.4779 134.652L62.225 130.845C62.6587 130.604 63.2371 130.748 63.5262 131.182C63.7672 131.616 63.6226 132.194 63.1889 132.484L56.4418 136.291C55.9598 136.532 55.3815 136.388 55.1406 135.954Z" fill="white"/>
<path fill-rule="evenodd" clip-rule="evenodd" d="M63.7191 150.75C63.4781 150.268 63.7191 149.69 64.1528 149.497L71.1409 146.171C71.6228 145.931 72.2011 146.123 72.3939 146.605C72.6349 147.087 72.4421 147.617 71.9602 147.858L64.9721 151.184C64.4902 151.425 63.96 151.232 63.7191 150.75Z" fill="white"/>
<path fill-rule="evenodd" clip-rule="evenodd" d="M65.2613 153.787C65.0203 153.305 65.2613 152.726 65.695 152.534L72.683 149.208C73.165 148.967 73.6951 149.16 73.9361 149.642C74.177 150.124 73.9361 150.654 73.5023 150.895L66.5143 154.22C66.0805 154.461 65.5022 154.269 65.2613 153.787Z" fill="white"/>
<path fill-rule="evenodd" clip-rule="evenodd" d="M68.2492 113.735C69.0203 110.265 72.4421 108.096 75.912 108.867C79.3819 109.638 81.5506 113.06 80.7795 116.53C80.0084 120.001 76.5867 122.169 73.1168 121.398C69.6468 120.627 67.4781 117.157 68.2492 113.735Z" fill="white"/>
<path fill-rule="evenodd" clip-rule="evenodd" d="M83.141 114.362L79.3337 107.614C79.0928 107.18 79.2373 106.602 79.6711 106.313C80.1048 106.072 80.6831 106.216 80.9723 106.65L84.7796 113.398C85.0206 113.831 84.876 114.41 84.4422 114.699C83.9603 114.988 83.382 114.795 83.141 114.362Z" fill="white"/>
<path fill-rule="evenodd" clip-rule="evenodd" d="M67.7673 123.133L64.4419 116.145C64.201 115.663 64.3937 115.133 64.8757 114.892C65.3576 114.651 65.8877 114.844 66.1287 115.325L69.454 122.314C69.695 122.796 69.5022 123.374 69.0203 123.567C68.5384 123.808 68.0082 123.615 67.7673 123.133Z" fill="white"/>
<path fill-rule="evenodd" clip-rule="evenodd" d="M64.7311 124.724L61.4058 117.735C61.1648 117.253 61.4058 116.723 61.8395 116.482C62.3215 116.241 62.8516 116.434 63.0926 116.916L66.4179 123.905C66.6589 124.386 66.4661 124.917 65.9842 125.158C65.5504 125.399 64.9721 125.158 64.7311 124.724Z" fill="white"/>
<path fill-rule="evenodd" clip-rule="evenodd" d="M97.5026 152.63C96.7315 156.1 93.3098 158.269 89.8399 157.498C86.3699 156.727 84.2012 153.305 84.9723 149.835C85.7434 146.364 89.1651 144.195 92.6351 144.967C96.105 145.738 98.2737 149.16 97.5026 152.63Z" fill="white"/>
<path fill-rule="evenodd" clip-rule="evenodd" d="M84.7796 159.619L80.9723 152.871C80.7313 152.437 80.8759 151.859 81.3096 151.57C81.7434 151.329 82.3217 151.473 82.6109 151.907L86.4181 158.655C86.6591 159.088 86.5145 159.667 86.0808 159.956C85.647 160.245 85.0687 160.1 84.7796 159.619Z" fill="white"/>
<path fill-rule="evenodd" clip-rule="evenodd" d="M99.6231 150.943L96.2978 143.955C96.0568 143.473 96.2978 142.894 96.7315 142.701C97.2134 142.46 97.7918 142.653 97.9845 143.135L101.31 150.124C101.551 150.606 101.358 151.136 100.876 151.377C100.442 151.618 99.8641 151.425 99.6231 150.943Z" fill="white"/>
<path fill-rule="evenodd" clip-rule="evenodd" d="M102.659 149.401L99.334 142.412C99.093 141.93 99.2858 141.352 99.7677 141.159C100.25 140.918 100.828 141.111 101.021 141.593L104.346 148.581C104.587 149.063 104.394 149.642 103.912 149.835C103.479 150.076 102.9 149.883 102.659 149.401Z" fill="white"/>
<path fill-rule="evenodd" clip-rule="evenodd" d="M100.061 20.5303C97.2996 20.5303 95.061 22.7688 95.061 25.5303V48.3525C95.061 51.1139 97.2996 53.3525 100.061 53.3525H130.206C132.968 53.3525 135.206 51.1139 135.206 48.3525V25.5303C135.206 22.7689 132.968 20.5303 130.206 20.5303H100.061Z" fill="#D5544B"/>
<path fill-rule="evenodd" clip-rule="evenodd" d="M100.061 20.5303C97.2996 20.5303 95.061 22.7689 95.061 25.5303V31.6281C95.061 34.3895 97.2996 36.6281 100.061 36.6281H130.206C132.968 36.6281 135.206 34.3895 135.206 31.6281V25.5303C135.206 22.7688 132.968 20.5303 130.206 20.5303H100.061Z" fill="#FDE1A9"/>
<path d="M55.8015 57.1118V53.1114C55.8015 52.093 56.6311 51.298 57.6148 51.298H91.2538C92.2721 51.298 93.0671 52.1276 93.0671 53.1114V57.1118C93.0671 58.1303 92.2374 58.9253 91.2538 58.9253H57.6148C56.6311 58.9253 55.8015 58.1303 55.8015 57.1118Z" fill="#FDE1A9" stroke="#A54039"/>
<path d="M55.8015 48.3043V25.4821C55.8015 22.9968 57.8162 20.9821 60.3015 20.9821H88.6153C91.1005 20.9821 93.1153 22.9968 93.1153 25.4821V48.3043C93.1153 50.7896 91.1005 52.8043 88.6153 52.8043H60.3015C57.8162 52.8043 55.8015 50.7896 55.8015 48.3043Z" fill="#D5544B" stroke="#A54039"/>
<path fill-rule="evenodd" clip-rule="evenodd" d="M66.1451 26.0729C68.9885 26.0729 71.35 28.3863 71.35 31.2782C71.35 34.1218 69.0367 36.4834 66.1451 36.4834C63.3017 36.4834 60.9402 34.17 60.9402 31.2782C60.9884 28.3863 63.3017 26.0729 66.1451 26.0729Z" fill="#FDE1A9"/>
<path fill-rule="evenodd" clip-rule="evenodd" d="M66.145 41.3995C68.6029 41.3995 70.5788 43.3756 70.5788 45.8337C70.5788 48.2917 68.6029 50.2678 66.145 50.2678C63.6872 50.2678 61.7112 48.2917 61.7112 45.8337C61.7112 43.3756 63.7354 41.3995 66.145 41.3995Z" fill="#FDE1A9"/>
<path fill-rule="evenodd" clip-rule="evenodd" d="M81.7597 42.1226C83.7838 42.1226 85.4706 43.7613 85.4706 45.8337C85.4706 47.858 83.832 49.5449 81.7597 49.5449C79.7356 49.5449 78.0488 47.9062 78.0488 45.8337C78.0488 43.7613 79.6874 42.1226 81.7597 42.1226Z" fill="#FDE1A9"/>
<path fill-rule="evenodd" clip-rule="evenodd" d="M81.9042 24.8679C85.4224 24.8679 88.2658 27.7115 88.2658 31.2299C88.2658 34.7483 85.4224 37.592 81.9042 37.592C78.3861 37.592 75.5427 34.7483 75.5427 31.2299C75.5427 27.7115 78.3861 24.8679 81.9042 24.8679Z" fill="#FDE1A9"/>
<path fill-rule="evenodd" clip-rule="evenodd" d="M141.604 20.5303C138.842 20.5303 136.604 22.7688 136.604 25.5303V48.3525C136.604 51.1139 138.842 53.3525 141.604 53.3525H163.893C166.655 53.3525 168.893 51.1139 168.893 48.3525V25.5303C168.893 22.7689 166.655 20.5303 163.893 20.5303H141.604Z" fill="#D5544B"/>
<path fill-rule="evenodd" clip-rule="evenodd" d="M35.4819 20.5303C32.7205 20.5303 30.4819 22.7688 30.4819 25.5303V48.3525C30.4819 51.1139 32.7204 53.3525 35.4819 53.3525H48.7593C51.5207 53.3525 53.7593 51.1139 53.7593 48.3525V25.5303C53.7593 22.7689 51.5207 20.5303 48.7593 20.5303H35.4819Z" fill="#D5544B"/>
<path fill-rule="evenodd" clip-rule="evenodd" d="M35.4819 20.5303C32.7205 20.5303 30.4819 22.7689 30.4819 25.5303V31.6281C30.4819 34.3895 32.7204 36.6281 35.4819 36.6281H48.7593C51.5207 36.6281 53.7593 34.3895 53.7593 31.6281V25.5303C53.7593 22.7688 51.5207 20.5303 48.7593 20.5303H35.4819Z" fill="#FDE1A9"/>
<path d="M141.604 55.1538H163.893C166.379 55.1538 168.393 57.1685 168.393 59.6538V89.802C168.393 92.2873 166.379 94.302 163.893 94.302H141.604C139.118 94.302 137.104 92.2873 137.104 89.802V59.6538C137.104 57.1685 139.118 55.1538 141.604 55.1538Z" fill="#D5544B" stroke="#A54039"/>
<path fill-rule="evenodd" clip-rule="evenodd" d="M157.568 80.632H144.459C141.905 80.632 139.833 78.5596 139.833 76.0051V62.4135C139.833 59.8591 141.905 57.7866 144.459 57.7866H157.568C160.122 57.7866 162.194 59.8591 162.194 62.4135V76.0051C162.194 78.5596 160.122 80.632 157.568 80.632Z" fill="white"/>
<path fill-rule="evenodd" clip-rule="evenodd" d="M150.532 66.5585C151.785 66.5585 152.797 67.667 152.797 69.0647C152.797 70.4624 151.785 71.571 150.532 71.571C149.279 71.571 148.267 70.4624 148.267 69.0647C148.218 67.667 149.23 66.5585 150.532 66.5585Z" fill="#D5544B"/>
<path fill-rule="evenodd" clip-rule="evenodd" d="M153.568 68.4382V69.7395C153.568 70.0769 153.857 70.3661 154.194 70.3661H162.869C163.207 70.3661 163.496 70.0769 163.496 69.7395V68.4382C163.496 68.1008 163.207 67.8116 162.869 67.8116H154.194C153.857 67.8116 153.568 68.1008 153.568 68.4382Z" fill="#FDE1A9"/>
<path fill-rule="evenodd" clip-rule="evenodd" d="M162.002 63.3773C162.435 62.9917 163.062 62.9917 163.496 63.3773C163.881 63.8111 163.881 64.4377 163.496 64.8714C163.062 65.257 162.435 65.257 162.002 64.8714C161.568 64.4377 161.568 63.7629 162.002 63.3773Z" fill="#FDE1A9"/>
<path fill-rule="evenodd" clip-rule="evenodd" d="M160.508 64.9197C161.279 64.1968 162.194 63.9076 162.58 64.2932C162.966 64.6788 162.628 65.5945 161.857 66.3175C161.086 67.0404 160.17 67.3296 159.785 66.944C159.447 66.5584 159.785 65.6427 160.508 64.9197Z" fill="#FDE1A9"/>
<path fill-rule="evenodd" clip-rule="evenodd" d="M163.592 61.8834C164.363 61.1604 165.279 60.8712 165.664 61.2568C166.05 61.6424 165.713 62.5581 164.941 63.2811C164.17 64.004 163.255 64.2932 162.869 63.9076C162.532 63.5221 162.821 62.6063 163.592 61.8834Z" fill="#FDE1A9"/>
<path fill-rule="evenodd" clip-rule="evenodd" d="M163.544 66.3175C162.821 65.5464 162.532 64.6306 162.917 64.245C163.303 63.8595 164.219 64.1968 164.941 64.968C165.664 65.7392 165.954 66.6549 165.568 67.0405C165.231 67.3779 164.315 67.0887 163.544 66.3175Z" fill="#FDE1A9"/>
<path fill-rule="evenodd" clip-rule="evenodd" d="M160.508 63.2329C159.785 62.4618 159.496 61.546 159.881 61.1605C160.267 60.7749 161.182 61.1123 161.905 61.8834C162.628 62.6546 162.917 63.5703 162.532 63.9559C162.194 64.3415 161.279 64.0041 160.508 63.2329Z" fill="#FDE1A9"/>
<path fill-rule="evenodd" clip-rule="evenodd" d="M162.002 73.4507C162.435 73.0651 163.062 73.0651 163.496 73.4507C163.881 73.8845 163.881 74.511 163.496 74.9448C163.062 75.3304 162.435 75.3304 162.002 74.9448C161.568 74.5592 161.568 73.8845 162.002 73.4507Z" fill="#FDE1A9"/>
<path fill-rule="evenodd" clip-rule="evenodd" d="M160.508 75.0412C161.279 74.3182 162.194 74.0291 162.58 74.4146C162.966 74.8002 162.628 75.7159 161.857 76.4389C161.086 77.1619 160.17 77.451 159.785 77.0655C159.447 76.6799 159.785 75.7641 160.508 75.0412Z" fill="#FDE1A9"/>
<path fill-rule="evenodd" clip-rule="evenodd" d="M163.592 72.0047C164.363 71.2817 165.279 70.9926 165.664 71.3781C166.05 71.7637 165.713 72.6795 164.941 73.4024C164.17 74.1254 163.255 74.4146 162.869 74.029C162.532 73.6434 162.821 72.7277 163.592 72.0047Z" fill="#FDE1A9"/>
<path fill-rule="evenodd" clip-rule="evenodd" d="M163.544 76.4389C162.821 75.6677 162.532 74.752 162.917 74.3664C163.303 73.9808 164.219 74.3182 164.941 75.0893C165.664 75.8605 165.954 76.7762 165.568 77.1618C165.231 77.4992 164.315 77.21 163.544 76.4389Z" fill="#FDE1A9"/>
<path fill-rule="evenodd" clip-rule="evenodd" d="M160.508 73.3543C159.785 72.5831 159.496 71.6674 159.881 71.2818C160.267 70.8962 161.182 71.2336 161.905 72.0047C162.628 72.7759 162.917 73.6916 162.532 74.0772C162.194 74.4146 161.279 74.1254 160.508 73.3543Z" fill="#FDE1A9"/>
<path fill-rule="evenodd" clip-rule="evenodd" d="M165.664 87.6205C165.664 85.0119 163.55 82.8972 160.941 82.8972H144.556C141.947 82.8972 139.833 85.0119 139.833 87.6205V87.6205C139.833 90.2291 141.947 92.3438 144.556 92.3438H160.941C163.55 92.3438 165.664 90.2291 165.664 87.6205V87.6205Z" fill="#FDE1A9"/>
<path fill-rule="evenodd" clip-rule="evenodd" d="M99.5792 53.8827C96.8177 53.8827 94.5792 51.6441 94.5792 48.8827V25.0483C94.5792 22.2869 96.8177 20.0483 99.5792 20.0483H130.736C133.498 20.0483 135.736 22.2869 135.736 25.0483V48.8827C135.736 51.6441 133.498 53.8827 130.736 53.8827H99.5792ZM129.724 52.8706C132.486 52.8706 134.724 50.632 134.724 47.8706V26.0605C134.724 23.2991 132.486 21.0605 129.724 21.0605H100.591C97.8298 21.0605 95.5912 23.2991 95.5912 26.0605V47.8706C95.5912 50.632 97.8298 52.8706 100.591 52.8706H129.724Z" fill="#A54039"/>
<path fill-rule="evenodd" clip-rule="evenodd" d="M99.5792 37.1583C96.8177 37.1583 94.5792 34.9197 94.5792 32.1583V25.0483C94.5792 22.2869 96.8177 20.0483 99.5792 20.0483H130.736C133.498 20.0483 135.736 22.2869 135.736 25.0483V32.1583C135.736 34.9197 133.498 37.1583 130.736 37.1583H99.5792ZM129.724 36.1462C132.486 36.1462 134.724 33.9076 134.724 31.1462V26.0605C134.724 23.2991 132.486 21.0605 129.724 21.0605H100.591C97.8298 21.0605 95.5912 23.2991 95.5912 26.0605V31.1462C95.5912 33.9076 97.8298 36.1462 100.591 36.1462H129.724Z" fill="#A54039"/>
<path fill-rule="evenodd" clip-rule="evenodd" d="M141.122 53.8827C138.36 53.8827 136.122 51.6441 136.122 48.8827V25.0483C136.122 22.2869 138.36 20.0483 141.122 20.0483H164.375C167.137 20.0483 169.375 22.2869 169.375 25.0483V48.8827C169.375 51.6441 167.137 53.8827 164.375 53.8827H141.122ZM163.363 52.8706C166.125 52.8706 168.363 50.632 168.363 47.8706V26.0605C168.363 23.2991 166.125 21.0605 163.363 21.0605H142.086C139.324 21.0605 137.086 23.2991 137.086 26.0605V47.8706C137.086 50.632 139.324 52.8706 142.086 52.8706H163.363Z" fill="#A54039"/>
<path fill-rule="evenodd" clip-rule="evenodd" d="M35 53.8832C32.2386 53.8832 30 51.6446 30 48.8832V25.0488C30 22.2874 32.2386 20.0488 35 20.0488H49.2413C52.0027 20.0488 54.2413 22.2874 54.2413 25.0488V48.8832C54.2413 51.6446 52.0027 53.8832 49.2413 53.8832H35ZM48.2774 52.871C51.0388 52.871 53.2774 50.6325 53.2774 47.871V26.061C53.2774 23.2995 51.0388 21.061 48.2774 21.061H36.0121C33.2506 21.061 31.0121 23.2995 31.0121 26.061V47.871C31.0121 50.6325 33.2506 52.871 36.0121 52.871H48.2774Z" fill="#A54039"/>
<path fill-rule="evenodd" clip-rule="evenodd" d="M35 37.1588C32.2386 37.1588 30 34.9202 30 32.1588V25.0488C30 22.2874 32.2386 20.0488 35 20.0488H49.2413C52.0027 20.0488 54.2413 22.2874 54.2413 25.0488V32.1588C54.2413 34.9202 52.0027 37.1588 49.2413 37.1588H35ZM48.2774 36.1467C51.0388 36.1467 53.2774 33.9081 53.2774 31.1467V26.061C53.2774 23.2995 51.0388 21.061 48.2774 21.061H36.0121C33.2506 21.061 31.0121 23.2995 31.0121 26.061V31.1467C31.0121 33.9081 33.2506 36.1467 36.0121 36.1467H48.2774Z" fill="#A54039"/>
<path fill-rule="evenodd" clip-rule="evenodd" d="M144.351 92.8258C141.589 92.8258 139.351 90.5873 139.351 87.8258V87.3671C139.351 84.6056 141.589 82.3671 144.351 82.3671H161.195C163.956 82.3671 166.195 84.6056 166.195 87.3671V87.8258C166.195 90.5873 163.956 92.8258 161.195 92.8258H144.351ZM160.965 91.8137C163.294 91.8137 165.182 89.9256 165.182 87.5965V87.5965C165.182 85.2673 163.294 83.3792 160.965 83.3792H144.58C142.251 83.3792 140.363 85.2673 140.363 87.5965V87.5965C140.363 89.9256 142.251 91.8137 144.58 91.8137H160.965Z" fill="#A54039"/>
<path fill-rule="evenodd" clip-rule="evenodd" d="M152.797 158.915C152.797 161.676 155.035 163.915 157.797 163.915H163.893C166.655 163.915 168.893 161.676 168.893 158.915V123.561C168.893 120.8 166.655 118.561 163.893 118.561H157.797C155.035 118.561 152.797 120.8 152.797 123.561V158.915Z" fill="#D5544B"/>
<path fill-rule="evenodd" clip-rule="evenodd" d="M157.315 164.445C154.553 164.445 152.315 162.206 152.315 159.445V123.079C152.315 120.318 154.553 118.079 157.315 118.079H164.423C167.185 118.079 169.423 120.318 169.423 123.079V159.445C169.423 162.206 167.185 164.445 164.423 164.445H157.315ZM163.363 163.432C166.125 163.432 168.363 161.194 168.363 158.432V124.043C168.363 121.281 166.125 119.043 163.363 119.043H158.279C155.517 119.043 153.279 121.281 153.279 124.043V158.432C153.279 161.194 155.517 163.432 158.279 163.432H163.363Z" fill="#A54039"/>
</svg>
