<svg width="200" height="200" viewBox="0 0 200 200" fill="none" xmlns="http://www.w3.org/2000/svg">
<rect width="200" height="200" rx="10" fill="#2C5F8D"/>
<rect x="132.236" y="89.1235" width="47.3539" height="47.3539" rx="9.5" fill="#FDE1A9" stroke="#E3EAF3"/>
<rect x="83.0337" y="72.8539" width="47.3539" height="47.3539" rx="9.5" transform="rotate(-90 83.0337 72.8539)" fill="#FDE1A9" stroke="#E3EAF3"/>
<path d="M24.5 66.6572L24.5 30.8482C24.5 28.363 26.5147 26.3482 29 26.3482L74.1404 26.3482C76.6257 26.3482 78.6404 28.363 78.6404 30.8482L78.6404 66.6572C78.6404 69.1425 76.6257 71.1572 74.1404 71.1572L29 71.1572C26.5147 71.1572 24.5 69.1425 24.5 66.6572Z" fill="#F89D70" stroke="#E3EAF3"/>
<path fill-rule="evenodd" clip-rule="evenodd" d="M66.1122 40.2707L66.1122 57.4018C66.1122 60.7399 63.4037 63.4481 60.0654 63.4481L42.3031 63.4481C38.9648 63.4481 36.2563 60.7399 36.2563 57.4018L36.2563 40.2707C36.2563 36.9326 38.9648 34.2244 42.3031 34.2244L60.0654 34.2244C63.4037 34.2244 66.1122 36.9326 66.1122 40.2707Z" fill="white"/>
<path fill-rule="evenodd" clip-rule="evenodd" d="M47.72 49.4659C47.72 47.8284 49.1687 46.5057 50.9953 46.5057C52.8219 46.5057 54.2706 47.8284 54.2706 49.4659C54.2706 51.1034 52.8219 52.4261 50.9953 52.4261C49.1687 52.489 47.72 51.1664 47.72 49.4659Z" fill="#F89D70"/>
<path fill-rule="evenodd" clip-rule="evenodd" d="M50.1765 45.4982L51.8771 45.4982C52.3181 45.4982 52.696 45.1203 52.696 44.6794L52.696 33.3426C52.696 32.9017 52.3181 32.5238 51.8771 32.5238L50.1765 32.5238C49.7356 32.5238 49.3577 32.9017 49.3577 33.3426L49.3577 44.6794C49.3577 45.1203 49.7356 45.4982 50.1765 45.4982Z" fill="#FDE1A9"/>
<path fill-rule="evenodd" clip-rule="evenodd" d="M43.5626 34.4761C43.0587 33.9093 43.0587 33.0905 43.5626 32.5237C44.1295 32.0198 44.9483 32.0198 45.5152 32.5237C46.0191 33.0905 46.0191 33.9093 45.5152 34.4761C44.9483 35.043 44.0665 35.043 43.5626 34.4761Z" fill="#FDE1A9"/>
<path fill-rule="evenodd" clip-rule="evenodd" d="M45.5783 36.4287C44.6335 35.421 44.2556 34.2243 44.7595 33.7204C45.2633 33.2166 46.4601 33.6575 47.4049 34.6652C48.3497 35.6729 48.7276 36.8695 48.2237 37.3734C47.7198 37.8143 46.5231 37.3734 45.5783 36.4287Z" fill="#FDE1A9"/>
<path fill-rule="evenodd" clip-rule="evenodd" d="M41.6102 32.3978C40.6654 31.3901 40.2875 30.1934 40.7914 29.6896C41.2953 29.1857 42.492 29.6266 43.4368 30.6343C44.3816 31.642 44.7596 32.8386 44.2557 33.3425C43.7518 33.7834 42.555 33.4055 41.6102 32.3978Z" fill="#FDE1A9"/>
<path fill-rule="evenodd" clip-rule="evenodd" d="M47.4051 32.4609C46.3973 33.4056 45.2005 33.7835 44.6966 33.2796C44.1927 32.7758 44.6336 31.5791 45.6414 30.6344C46.6492 29.6896 47.846 29.3118 48.3499 29.8156C48.7908 30.2565 48.4128 31.4531 47.4051 32.4609Z" fill="#FDE1A9"/>
<path fill-rule="evenodd" clip-rule="evenodd" d="M43.3739 36.4285C42.3661 37.3733 41.1694 37.7511 40.6655 37.2473C40.1616 36.7434 40.6025 35.5468 41.6103 34.602C42.6181 33.6573 43.8148 33.2794 44.3187 33.7833C44.8226 34.2241 44.3817 35.4208 43.3739 36.4285Z" fill="#FDE1A9"/>
<path fill-rule="evenodd" clip-rule="evenodd" d="M56.7271 34.4761C56.2232 33.9093 56.2232 33.0905 56.7271 32.5237C57.294 32.0198 58.1128 32.0198 58.6797 32.5237C59.1836 33.0905 59.1836 33.9093 58.6797 34.4761C58.1758 35.043 57.294 35.043 56.7271 34.4761Z" fill="#FDE1A9"/>
<path fill-rule="evenodd" clip-rule="evenodd" d="M58.8056 36.4287C57.8608 35.421 57.4829 34.2243 57.9868 33.7204C58.4907 33.2166 59.6874 33.6575 60.6322 34.6652C61.577 35.6729 61.955 36.8695 61.4511 37.3734C60.9472 37.8143 59.7504 37.3734 58.8056 36.4287Z" fill="#FDE1A9"/>
<path fill-rule="evenodd" clip-rule="evenodd" d="M54.8374 32.3978C53.8926 31.3901 53.5146 30.1934 54.0185 29.6896C54.5224 29.1857 55.7192 29.6266 56.664 30.6343C57.6088 31.642 57.9867 32.8386 57.4828 33.3425C56.9789 33.7834 55.7822 33.4055 54.8374 32.3978Z" fill="#FDE1A9"/>
<path fill-rule="evenodd" clip-rule="evenodd" d="M60.6322 32.4609C59.6244 33.4056 58.4277 33.7835 57.9238 33.2796C57.4199 32.7758 57.8608 31.5791 58.8686 30.6344C59.8764 29.6896 61.0731 29.3118 61.577 29.8156C62.0179 30.2565 61.64 31.4531 60.6322 32.4609Z" fill="#FDE1A9"/>
<path fill-rule="evenodd" clip-rule="evenodd" d="M56.6012 36.4285C55.5934 37.3733 54.3966 37.7511 53.8927 37.2473C53.3888 36.7434 53.8297 35.5468 54.8375 34.602C55.8453 33.6573 57.0421 33.2794 57.546 33.7833C57.9869 34.2241 57.6089 35.4208 56.6012 36.4285Z" fill="#FDE1A9"/>
<rect x="20.5" y="147.5" width="119" height="29" rx="9.5" fill="#F89D70" stroke="#E3EAF3"/>
<path d="M102 56.4213V43.6244H105.937C107.062 43.6244 108.067 43.8793 108.952 44.389C109.843 44.8929 110.537 45.6136 111.035 46.5511C111.533 47.4828 111.782 48.5433 111.782 49.7328V50.3217C111.782 51.5111 111.536 52.5687 111.044 53.4945C110.557 54.4203 109.869 55.1381 108.978 55.6478C108.088 56.1576 107.083 56.4154 105.964 56.4213H102ZM104.636 45.7601V54.3031H105.911C106.942 54.3031 107.73 53.9662 108.275 53.2924C108.82 52.6185 109.098 51.6547 109.11 50.4008V49.724C109.11 48.4232 108.841 47.4388 108.301 46.7709C107.762 46.097 106.974 45.7601 105.937 45.7601H104.636Z" fill="#2C5F8D"/>
<path d="M150.663 116.035L159.769 117.758L159.769 120.386L146.972 117.547L146.972 114.892L155.532 112.809L146.972 110.726L146.972 108.072L159.769 105.233L159.769 107.861L150.681 109.593L159.769 111.702L159.769 113.934L150.663 116.035Z" fill="#2C5F8D"/>
<circle cx="158.034" cy="58.9325" r="10.5281" fill="#F89D70" stroke="#E3EAF3"/>
</svg>
