<svg width="200" height="200" viewBox="0 0 200 200" fill="none" xmlns="http://www.w3.org/2000/svg">
<rect width="200" height="200" rx="10" fill="#FDE1A9"/>
<path fill-rule="evenodd" clip-rule="evenodd" d="M171.656 103.092L159.302 90.7885C157.833 89.3202 155.403 89.3202 153.935 90.7885L152.365 92.3581C150.897 93.8264 150.897 96.2568 152.365 97.7251L164.719 110.029C166.187 111.497 168.618 111.497 170.086 110.029L171.656 108.459C173.124 106.991 173.124 104.56 171.656 103.092Z" fill="#D5544B"/>
<path fill-rule="evenodd" clip-rule="evenodd" d="M164.365 110.383L152.01 98.0795C150.34 96.4086 150.289 93.6239 152.01 91.953L153.58 90.3834C155.251 88.7125 158.036 88.6619 159.706 90.3834L172.061 102.687C173.732 104.358 173.782 107.143 172.061 108.813L170.491 110.383C168.77 112.105 166.035 112.105 164.365 110.383ZM169.732 109.624L171.301 108.054C172.567 106.788 172.567 104.712 171.301 103.396L158.947 91.0923C157.681 89.8265 155.605 89.8265 154.289 91.0923L152.719 92.6618C151.453 93.9276 151.453 96.0036 152.719 97.32L165.073 109.624C166.39 110.94 168.466 110.94 169.732 109.624Z" fill="#A54039"/>
<path fill-rule="evenodd" clip-rule="evenodd" d="M147.251 97.9783L135.656 109.624C134.188 111.092 134.188 113.522 135.656 114.991L150.492 129.775C151.96 131.244 154.39 131.244 155.859 129.775L167.453 118.13C168.922 116.662 168.922 114.231 167.453 112.763L152.618 97.9783C151.15 96.51 148.77 96.51 147.251 97.9783Z" fill="#D5544B"/>
<path fill-rule="evenodd" clip-rule="evenodd" d="M150.086 130.18L135.302 115.396C133.631 113.725 133.58 110.94 135.302 109.269L146.897 97.6239C148.567 95.953 151.302 95.953 153.023 97.6239L167.808 112.358C169.478 114.029 169.529 116.813 167.808 118.484L156.213 130.13C154.542 131.851 151.808 131.851 150.086 130.18ZM155.504 129.421L167.099 117.775C168.365 116.51 168.365 114.434 167.099 113.168L152.264 98.3834C150.998 97.1175 148.922 97.1175 147.656 98.3834L136.061 110.029C134.796 111.295 134.796 113.37 136.061 114.636L150.897 129.421C152.112 130.687 154.188 130.687 155.504 129.421Z" fill="#A54039"/>
<path fill-rule="evenodd" clip-rule="evenodd" d="M148.314 126.484L135.96 114.181C134.492 112.712 132.061 112.712 130.593 114.181L129.023 115.75C127.555 117.219 127.555 119.649 129.023 121.117L141.378 133.421C142.846 134.889 145.276 134.889 146.745 133.421L148.314 131.851C149.833 130.383 149.833 127.952 148.314 126.484Z" fill="#D5544B"/>
<path fill-rule="evenodd" clip-rule="evenodd" d="M141.023 133.826L128.669 121.522C126.998 119.851 126.948 117.067 128.669 115.396L130.239 113.826C131.91 112.155 134.694 112.105 136.365 113.826L148.719 126.13C150.39 127.801 150.441 130.585 148.719 132.256L147.15 133.826C145.479 135.497 142.694 135.497 141.023 133.826ZM146.39 133.066L147.96 131.497C149.226 130.231 149.226 128.155 147.96 126.839L135.606 114.535C134.34 113.269 132.264 113.269 130.947 114.535L129.378 116.105C128.112 117.37 128.112 119.446 129.378 120.763L141.732 133.066C143.049 134.332 145.124 134.332 146.39 133.066Z" fill="#A54039"/>
<path fill-rule="evenodd" clip-rule="evenodd" d="M166.694 106.535L145.074 128.256C142.998 130.332 142.998 133.725 145.074 135.801L145.327 136.054C147.403 138.13 150.795 138.13 152.871 136.054L174.491 114.333C176.567 112.257 176.567 108.864 174.491 106.788L174.238 106.535C172.162 104.409 168.77 104.459 166.694 106.535Z" fill="#D5544B"/>
<path fill-rule="evenodd" clip-rule="evenodd" d="M144.922 136.357L144.669 136.104C142.39 133.826 142.39 130.13 144.669 127.851L166.289 106.13C168.567 103.852 172.263 103.852 174.542 106.13L174.795 106.383C177.073 108.662 177.073 112.358 174.795 114.636L153.175 136.357C150.947 138.636 147.2 138.636 144.922 136.357ZM152.466 135.598L174.137 113.877C176.01 112.003 176.01 108.965 174.137 107.092L173.883 106.839C172.01 104.965 168.972 104.965 167.099 106.839L145.428 128.56C143.555 130.433 143.555 133.471 145.428 135.345L145.681 135.598C147.555 137.471 150.593 137.471 152.466 135.598Z" fill="#A54039"/>
<path fill-rule="evenodd" clip-rule="evenodd" d="M119.657 22.0808L107.353 34.3844C105.885 35.8527 105.885 38.2831 107.353 39.7514L108.923 41.321C110.391 42.7893 112.821 42.7893 114.29 41.321L126.593 28.9668C128.061 27.4984 128.061 25.0681 126.593 23.5998L125.024 22.0302C123.555 20.5619 121.125 20.5618 119.657 22.0808Z" fill="#D5544B"/>
<path fill-rule="evenodd" clip-rule="evenodd" d="M126.948 29.3718L114.644 41.726C112.973 43.3969 110.188 43.4475 108.517 41.726L106.948 40.1565C105.277 38.4856 105.226 35.7008 106.948 34.03L119.251 21.6758C120.922 20.0049 123.707 19.9543 125.378 21.6758L126.948 23.2454C128.669 24.9162 128.669 27.701 126.948 29.3718ZM126.239 24.0048L124.669 22.4352C123.403 21.1694 121.327 21.1694 120.011 22.4352L107.707 34.7895C106.442 36.0553 106.442 38.1312 107.707 39.4476L109.277 41.0172C110.543 42.283 112.619 42.283 113.935 41.0172L126.239 28.663C127.504 27.3466 127.504 25.2706 126.239 24.0048Z" fill="#A54039"/>
<path fill-rule="evenodd" clip-rule="evenodd" d="M114.543 46.4349L126.188 58.0296C127.656 59.498 130.087 59.498 131.555 58.0296L146.34 43.1944C147.808 41.7261 147.808 39.2958 146.34 37.8274L134.694 26.2327C133.226 24.7644 130.796 24.7644 129.327 26.2327L114.543 41.0679C113.074 42.5869 113.074 44.9666 114.543 46.4349Z" fill="#D5544B"/>
<path fill-rule="evenodd" clip-rule="evenodd" d="M146.745 43.5993L131.96 58.4345C130.289 60.1054 127.505 60.156 125.834 58.4345L114.188 46.8398C112.517 45.1689 112.467 42.4348 114.188 40.7133L128.973 25.8781C130.644 24.2073 133.378 24.2073 135.099 25.8781L146.745 37.4729C148.416 39.1944 148.416 41.9285 146.745 43.5993ZM145.985 38.2324L134.34 26.6376C133.074 25.3718 130.998 25.3718 129.732 26.6376L114.948 41.4728C113.682 42.7386 113.682 44.8145 114.948 46.0803L126.593 57.6751C127.859 58.9409 129.935 58.9409 131.201 57.6751L145.985 42.8905C147.251 41.5741 147.251 39.4982 145.985 38.2324Z" fill="#A54039"/>
<path fill-rule="evenodd" clip-rule="evenodd" d="M143.048 45.3715L130.745 57.7257C129.276 59.194 129.276 61.6244 130.745 63.0927L132.314 64.6623C133.783 66.1306 136.213 66.1306 137.681 64.6623L149.985 52.3081C151.453 50.8398 151.453 48.4094 149.985 46.9411L148.415 45.3715C146.947 43.9032 144.517 43.9032 143.048 45.3715Z" fill="#D5544B"/>
<path fill-rule="evenodd" clip-rule="evenodd" d="M150.39 52.7131L138.087 65.0674C136.416 66.7888 133.631 66.7888 131.96 65.0674L130.391 63.4978C128.72 61.8269 128.669 59.0421 130.391 57.3713L142.644 45.0171C144.314 43.3462 147.099 43.2956 148.77 45.0171L150.34 46.5867C152.061 48.2575 152.061 50.9917 150.39 52.7131ZM149.631 47.2955L148.061 45.7259C146.795 44.4601 144.719 44.4601 143.403 45.7259L131.099 58.0801C129.834 59.3459 129.834 61.4218 131.099 62.7383L132.669 64.3079C133.935 65.5737 136.011 65.5737 137.327 64.3079L149.631 51.9537C150.897 50.6879 150.897 48.6119 149.631 47.2955Z" fill="#A54039"/>
<path fill-rule="evenodd" clip-rule="evenodd" d="M123.099 27.0427L144.821 48.7132C146.897 50.7892 150.289 50.7892 152.365 48.7132L152.618 48.4601C154.694 46.3842 154.694 42.9918 152.618 40.9665L130.846 19.2454C128.77 17.1695 125.378 17.1695 123.302 19.2454L123.049 19.4986C121.024 21.5745 121.024 24.9668 123.099 27.0427Z" fill="#D5544B"/>
<path fill-rule="evenodd" clip-rule="evenodd" d="M152.922 48.8144L152.669 49.0676C150.39 51.346 146.694 51.346 144.416 49.0676L122.694 27.4477C120.416 25.1692 120.416 21.4731 122.694 19.1947L122.948 18.9415C125.226 16.6631 128.922 16.6631 131.201 18.9415L152.922 40.612C155.2 42.7892 155.2 46.4853 152.922 48.8144ZM152.162 41.2702L130.441 19.5997C128.568 17.7263 125.53 17.7263 123.656 19.5997L123.403 19.8529C121.53 21.7263 121.53 24.7642 123.403 26.6376L145.124 48.3081C146.998 50.1815 150.036 50.1815 151.909 48.3081L152.162 48.0549C154.036 46.1815 154.036 43.1436 152.162 41.2702Z" fill="#A54039"/>
<path fill-rule="evenodd" clip-rule="evenodd" d="M129.226 153.065C132.365 153.065 134.897 155.597 134.897 158.736C134.897 161.875 132.365 164.407 129.226 164.407C126.087 164.407 123.555 161.875 123.555 158.736C123.505 155.597 126.036 153.065 129.226 153.065Z" fill="#D5544B"/>
<path fill-rule="evenodd" clip-rule="evenodd" d="M128.821 162.939C131.96 162.939 134.492 165.47 134.492 168.61C134.492 171.749 131.96 174.28 128.821 174.28C125.682 174.28 123.15 171.749 123.15 168.61C123.15 165.521 125.682 162.939 128.821 162.939Z" fill="#D5544B"/>
<path fill-rule="evenodd" clip-rule="evenodd" d="M135.15 169.47C137.378 169.47 139.15 171.242 139.15 173.47C139.15 175.698 137.378 177.47 135.15 177.47C132.922 177.47 131.15 175.698 131.15 173.47C131.201 171.293 132.973 169.47 135.15 169.47Z" fill="#D5544B"/>
<path fill-rule="evenodd" clip-rule="evenodd" d="M136.163 150.534C138.39 150.534 140.162 152.306 140.162 154.534C140.162 156.762 138.39 158.534 136.163 158.534C133.935 158.534 132.163 156.762 132.163 154.534C132.163 152.306 133.985 150.534 136.163 150.534Z" fill="#D5544B"/>
<path fill-rule="evenodd" clip-rule="evenodd" d="M143.808 152.661C146.947 152.661 149.479 155.192 149.479 158.331C149.479 161.47 146.947 164.002 143.808 164.002C140.669 164.002 138.137 161.47 138.137 158.331C138.087 155.192 140.618 152.661 143.808 152.661Z" fill="#D5544B"/>
<path fill-rule="evenodd" clip-rule="evenodd" d="M141.935 168.002C144.618 168.002 146.795 170.179 146.795 172.863C146.795 175.546 144.618 177.723 141.935 177.723C139.251 177.723 137.074 175.546 137.074 172.863C137.074 170.179 139.251 168.002 141.935 168.002Z" fill="#D5544B"/>
<path fill-rule="evenodd" clip-rule="evenodd" d="M145.884 161.825C148.112 161.825 149.884 163.597 149.884 165.825C149.884 168.053 148.112 169.825 145.884 169.825C143.656 169.825 141.884 168.053 141.884 165.825C141.884 163.597 143.656 161.825 145.884 161.825Z" fill="#D5544B"/>
<path fill-rule="evenodd" clip-rule="evenodd" d="M138.39 156.66C143.15 156.66 146.998 160.508 146.998 165.268C146.998 170.027 143.15 173.875 138.39 173.875C133.631 173.875 129.783 170.027 129.783 165.268C129.783 160.508 133.631 156.66 138.39 156.66Z" fill="#D5544B"/>
<path fill-rule="evenodd" clip-rule="evenodd" d="M138.238 176.761L137.935 177.065C137.175 177.673 136.213 178.027 135.15 178.027C133.074 178.027 131.302 176.609 130.795 174.736L130.745 174.534L130.137 174.736C129.682 174.837 129.277 174.888 128.77 174.888C125.327 174.888 122.542 172.103 122.542 168.66C122.542 166.584 123.606 164.711 125.175 163.546L124.669 163.04C123.606 161.926 122.948 160.407 122.948 158.736C122.948 155.293 125.732 152.509 129.175 152.509C130.087 152.509 130.947 152.711 131.707 153.066L131.808 153.116V153.015C132.416 151.243 134.087 149.926 136.112 149.926C137.833 149.926 139.302 150.888 140.112 152.306L140.416 153.015L140.618 152.863C141.529 152.306 142.593 152.002 143.757 152.002C147.2 152.002 149.985 154.787 149.985 158.23C149.985 159.496 149.58 160.711 148.922 161.673L148.567 162.129L149.023 162.483C149.884 163.293 150.39 164.458 150.39 165.724C150.39 167.901 148.82 169.724 146.795 170.179H146.694L147.048 170.939C147.251 171.496 147.352 172.103 147.352 172.761C147.352 175.749 144.922 178.179 141.935 178.179C140.719 178.179 139.555 177.774 138.643 177.065L138.238 176.761ZM146.289 172.863C146.289 171.85 145.934 170.888 145.327 170.129L144.618 169.268H145.833C147.757 169.268 149.276 167.698 149.276 165.825C149.276 164.559 148.567 163.395 147.504 162.787L146.896 162.432L147.403 161.926C148.314 161.015 148.871 159.698 148.871 158.281C148.871 155.445 146.542 153.116 143.707 153.116C142.441 153.116 141.276 153.572 140.416 154.331L139.656 154.939L139.504 153.977C139.302 152.306 137.833 150.99 136.061 150.99C134.34 150.99 132.871 152.255 132.618 153.977L132.517 154.787L131.808 154.331C130.998 153.825 130.087 153.521 129.074 153.521C126.239 153.521 123.91 155.85 123.91 158.686C123.91 160.559 124.872 162.179 126.34 163.091L127.15 163.597L126.34 164.002C124.669 164.863 123.555 166.584 123.555 168.61C123.555 171.445 125.884 173.774 128.72 173.774C129.479 173.774 130.239 173.622 130.846 173.318L131.504 173.015L131.555 173.774C131.707 175.546 133.175 176.964 134.998 176.964C136.061 176.964 137.023 176.458 137.681 175.698L138.087 175.192L138.492 175.647C139.302 176.559 140.466 177.166 141.783 177.166C144.365 177.217 146.289 175.242 146.289 172.863Z" fill="#A54039"/>
<path fill-rule="evenodd" clip-rule="evenodd" d="M89.024 83.0922C89.024 66.2824 96.1125 52.6624 104.872 52.6624C113.631 52.6624 120.72 66.2824 120.72 83.0922C120.72 99.902 113.631 113.522 104.872 113.522C96.1125 113.522 89.024 99.902 89.024 83.0922Z" fill="#F89D70"/>
<path fill-rule="evenodd" clip-rule="evenodd" d="M100.366 106.737L111.15 103.092L108.517 95.2943L97.6823 98.9905L100.366 106.737Z" fill="white"/>
<path fill-rule="evenodd" clip-rule="evenodd" d="M88.5177 83.0923C88.5177 66.2824 95.6062 52.1055 104.922 52.1055C114.188 52.1055 121.327 66.3331 121.327 83.0923C121.327 99.8515 114.239 114.028 104.922 114.028C95.6062 114.079 88.5177 99.8515 88.5177 83.0923ZM120.213 83.0923C120.213 66.2824 113.074 53.1687 104.872 53.1687C96.6188 53.1687 89.5303 66.2318 89.5303 83.0923C89.5303 99.9021 96.6695 113.016 104.872 113.016C113.125 113.016 120.213 99.9527 120.213 83.0923Z" fill="#A54039"/>
<path fill-rule="evenodd" clip-rule="evenodd" d="M100.011 107.446L97.0238 98.6868L108.821 94.6362L111.808 103.396L100.011 107.446ZM100.669 106.079L110.492 102.737L108.163 95.9527L98.3402 99.2944L100.669 106.079Z" fill="#A54039"/>
<path fill-rule="evenodd" clip-rule="evenodd" d="M96.7202 81.0162L109.176 83.5478L110.998 74.6366L98.5936 72.0543L96.7202 81.0162Z" fill="white"/>
<path fill-rule="evenodd" clip-rule="evenodd" d="M109.581 84.2059L96.1125 81.4212L98.1885 71.4467L111.657 74.2314L109.581 84.2059ZM108.771 82.9401L110.391 75.0415L98.9986 72.6618L97.3783 80.5604L108.771 82.9401Z" fill="#A54039"/>
<path fill-rule="evenodd" clip-rule="evenodd" d="M99.0491 79.9022L111.555 77.8263L110.087 68.8644L97.5808 70.8897L99.0491 79.9022Z" fill="#D5544B"/>
<path fill-rule="evenodd" clip-rule="evenodd" d="M98.5936 80.5099L96.9734 70.4848L110.543 68.257L112.163 78.2821L98.5936 80.5099ZM99.4544 79.2947L110.948 77.4214L109.631 69.4721L98.1379 71.3455L99.4544 79.2947Z" fill="#A54039"/>
<path fill-rule="evenodd" clip-rule="evenodd" d="M92.5684 138.382H71.708C68.822 138.382 66.4423 140.712 66.4423 143.598V172.458C66.4423 175.344 68.7713 177.673 71.708 177.673H92.5684C95.4544 177.673 97.8341 175.344 97.8341 172.458V143.598C97.7835 140.712 95.4544 138.382 92.5684 138.382Z" fill="#F89D70"/>
<path fill-rule="evenodd" clip-rule="evenodd" d="M37.025 47.8018H61.0246C63.9106 47.8018 66.2903 45.4221 66.2903 42.5361V37.2704C66.2903 34.3843 63.9612 32.0046 61.0246 32.0046H37.025C34.139 32.0046 31.7593 34.3843 31.7593 37.2704V42.5361C31.7593 45.4221 34.0884 47.8018 37.025 47.8018Z" fill="#F89D70"/>
<path fill-rule="evenodd" clip-rule="evenodd" d="M31.2024 42.5359V37.2702C31.2024 34.0804 33.7846 31.4982 36.9744 31.4982H60.974C64.1638 31.4982 66.7461 34.0804 66.7461 37.2702V42.5359C66.7461 45.7258 64.1638 48.308 60.974 48.308H37.0251C33.8353 48.308 31.2024 45.7258 31.2024 42.5359ZM65.7334 42.5359V37.2702C65.7334 34.688 63.6069 32.5614 61.0246 32.5614H37.0251C34.4428 32.5614 32.3163 34.688 32.3163 37.2702V42.5359C32.3163 45.1182 34.4428 47.2447 37.0251 47.2447H61.0246C63.6575 47.2447 65.7334 45.1182 65.7334 42.5359Z" fill="#A54039"/>
<path fill-rule="evenodd" clip-rule="evenodd" d="M65.7839 72.5607V51.7003C65.7839 48.8143 63.4548 46.4346 60.5182 46.4346H31.6579C28.7719 46.4346 26.3922 48.7636 26.3922 51.7003V72.5607C26.3922 75.4467 28.7213 77.8264 31.6579 77.8264H60.5182C63.4042 77.8264 65.7839 75.4467 65.7839 72.5607Z" fill="#F89D70"/>
<path fill-rule="evenodd" clip-rule="evenodd" d="M65.9359 172.458V143.597C65.9359 140.408 68.5181 137.825 71.708 137.825H92.5683C95.7582 137.825 98.3404 140.408 98.3404 143.597V172.458C98.3404 175.648 95.7582 178.23 92.5683 178.23H71.708C68.5181 178.23 65.9359 175.648 65.9359 172.458ZM97.2771 172.458V143.597C97.2771 141.015 95.1506 138.889 92.5683 138.889H71.708C69.1257 138.889 66.9992 141.015 66.9992 143.597V172.458C66.9992 175.04 69.1257 177.167 71.708 177.167H92.5683C95.1506 177.167 97.2771 175.091 97.2771 172.458Z" fill="#A54039"/>
<path fill-rule="evenodd" clip-rule="evenodd" d="M61.8853 138.382H41.0249C38.1389 138.382 35.7592 140.712 35.7592 143.648V172.508C35.7592 175.394 38.0882 177.774 41.0249 177.774H61.8853C64.7713 177.774 67.151 175.445 67.151 172.508V143.648C67.151 140.712 64.7713 138.382 61.8853 138.382Z" fill="#F89D70"/>
<path fill-rule="evenodd" clip-rule="evenodd" d="M35.2529 172.458V143.597C35.2529 140.408 37.8352 137.825 41.025 137.825H61.8854C65.0752 137.825 67.6574 140.408 67.6574 143.597V172.458C67.6574 175.648 65.0752 178.23 61.8854 178.23H41.025C37.8352 178.23 35.2529 175.648 35.2529 172.458ZM66.5942 172.458V143.597C66.5942 141.015 64.4676 138.889 61.8854 138.889H41.025C38.4427 138.889 36.3162 141.015 36.3162 143.597V172.458C36.3162 175.04 38.4427 177.167 41.025 177.167H61.8854C64.4676 177.167 66.5942 175.091 66.5942 172.458Z" fill="#A54039"/>
<path fill-rule="evenodd" clip-rule="evenodd" d="M65.7839 103.851V82.991C65.7839 80.105 63.4548 77.7759 60.5182 77.7759H31.6579C28.7719 77.7759 26.3922 80.105 26.3922 82.991V103.851C26.3922 106.737 28.7213 109.066 31.6579 109.066H60.5182C63.4042 109.117 65.7839 106.737 65.7839 103.851Z" fill="#F89D70"/>
<path fill-rule="evenodd" clip-rule="evenodd" d="M25.886 103.851V82.9909C25.886 79.8011 28.4682 77.2189 31.658 77.2189H60.5183C63.7081 77.2189 66.2903 79.8011 66.2903 82.9909V103.851C66.2903 107.041 63.7081 109.623 60.5183 109.623H31.658C28.4682 109.623 25.886 107.041 25.886 103.851ZM65.2271 103.851V82.9909C65.2271 80.4087 63.1005 78.2821 60.5183 78.2821H31.658C29.0758 78.2821 26.9493 80.4087 26.9493 82.9909V103.851C26.9493 106.434 29.0758 108.56 31.658 108.56H60.5183C63.1512 108.56 65.2271 106.484 65.2271 103.851Z" fill="#A54039"/>
<path fill-rule="evenodd" clip-rule="evenodd" d="M65.7839 134.534V113.674C65.7839 110.788 63.4548 108.459 60.5182 108.459H31.6579C28.7719 108.459 26.3922 110.788 26.3922 113.674V134.534C26.3922 137.42 28.7213 139.8 31.6579 139.8H60.5182C63.4042 139.749 65.7839 137.42 65.7839 134.534Z" fill="#F89D70"/>
<path fill-rule="evenodd" clip-rule="evenodd" d="M113.226 167.698V143.648C113.226 140.762 110.846 138.382 107.96 138.382H102.695C99.8087 138.382 97.429 140.712 97.429 143.648V167.698C97.429 170.584 99.8087 172.964 102.695 172.964H107.96C110.897 172.964 113.226 170.584 113.226 167.698Z" fill="#F89D70"/>
<path fill-rule="evenodd" clip-rule="evenodd" d="M25.886 72.5608V51.7004C25.886 48.5106 28.4682 45.9283 31.658 45.9283H60.5183C63.7081 45.9283 66.2903 48.5106 66.2903 51.7004V72.5608C66.2903 75.7506 63.7081 78.3328 60.5183 78.3328H31.658C28.5189 78.3328 25.886 75.7506 25.886 72.5608ZM65.2271 72.5608V51.7004C65.2271 49.1182 63.1005 46.9916 60.5183 46.9916H31.658C29.0758 46.9916 26.9493 49.1182 26.9493 51.7004V72.5608C26.9493 75.143 29.0758 77.2696 31.658 77.2696H60.5183C63.1512 77.2696 65.2271 75.143 65.2271 72.5608Z" fill="#A54039"/>
<path fill-rule="evenodd" clip-rule="evenodd" d="M25.886 134.534V113.674C25.886 110.484 28.4682 107.902 31.658 107.902H60.5183C63.7081 107.902 66.2903 110.484 66.2903 113.674V134.534C66.2903 137.724 63.7081 140.306 60.5183 140.306H31.658C28.5189 140.306 25.886 137.724 25.886 134.534ZM65.2271 134.534V113.674C65.2271 111.092 63.1005 108.965 60.5183 108.965H31.658C29.0758 108.965 26.9493 111.092 26.9493 113.674V134.534C26.9493 137.117 29.0758 139.243 31.658 139.243H60.5183C63.1512 139.243 65.2271 137.117 65.2271 134.534Z" fill="#A54039"/>
<path fill-rule="evenodd" clip-rule="evenodd" d="M96.9227 167.698V143.699C96.9227 140.509 99.505 137.927 102.695 137.927H107.961C111.15 137.927 113.733 140.509 113.733 143.699V167.698C113.733 170.888 111.15 173.47 107.961 173.47H102.695C99.505 173.47 96.9227 170.888 96.9227 167.698ZM112.72 167.698V143.699C112.72 141.116 110.593 138.99 108.011 138.99H102.745C100.163 138.99 98.0366 141.116 98.0366 143.699V167.698C98.0366 170.28 100.163 172.407 102.745 172.407H108.011C110.593 172.407 112.72 170.331 112.72 167.698Z" fill="#A54039"/>
<path fill-rule="evenodd" clip-rule="evenodd" d="M23.405 174.939V41.8776C23.405 37.8776 26.6455 34.5865 30.696 34.5865H31.1517C35.1517 34.5865 38.4427 37.827 38.4427 41.8776V167.242H104.315C108.315 167.242 111.606 170.483 111.606 174.533V174.989C111.606 178.989 108.366 182.28 104.315 182.28H30.696C26.6961 182.23 23.405 178.938 23.405 174.939Z" fill="#F89D70"/>
<path fill-rule="evenodd" clip-rule="evenodd" d="M41.5818 132.357H48.6196C50.1386 132.357 51.3538 131.142 51.3538 129.623V114.535C51.3538 113.016 50.1386 111.801 48.6196 111.801H41.5818C40.0628 111.801 38.8477 113.016 38.8477 114.535V129.572C38.797 131.091 40.0628 132.357 41.5818 132.357Z" fill="#F89D70"/>
<path fill-rule="evenodd" clip-rule="evenodd" d="M41.5818 132.357H48.6196C50.1386 132.357 51.3538 131.142 51.3538 129.623V114.535C51.3538 113.016 50.1386 111.801 48.6196 111.801H41.5818C40.0628 111.801 38.8477 113.016 38.8477 114.535V129.572C38.797 131.091 40.0628 132.357 41.5818 132.357Z" fill="#D5544B"/>
<path fill-rule="evenodd" clip-rule="evenodd" d="M40.5188 66.1306L43.5061 67.1433C44.9744 67.599 46.4934 66.8395 46.9997 65.4218L51.7591 51.0929C52.2148 49.6246 51.4553 48.1056 49.987 47.5993L46.9997 46.5867C45.582 46.131 44.0124 46.8905 43.5061 48.3588L38.7467 62.6877C38.291 64.1053 39.1011 65.6243 40.5188 66.1306Z" fill="white"/>
<path fill-rule="evenodd" clip-rule="evenodd" d="M43.354 67.5989L40.3667 66.5863C38.6452 66.0293 37.7339 64.156 38.2908 62.4345L43.0502 48.1056C43.6072 46.3841 45.4806 45.4727 47.202 46.0297L50.1893 47.0423C51.9108 47.5993 52.8222 49.4727 52.2652 51.1942L47.5058 65.523C46.9489 67.2445 45.0755 68.2065 43.354 67.5989ZM46.4932 65.2192L51.2526 50.8904C51.6577 49.7258 50.9994 48.46 49.8349 48.055L46.8476 47.0423C45.6831 46.6373 44.4173 47.2955 44.0629 48.46L39.3035 62.7889C38.8984 63.9534 39.5566 65.2192 40.7211 65.6243L43.7084 66.6369C44.873 66.9914 46.0881 66.3838 46.4932 65.2192Z" fill="#A54039"/>
<path fill-rule="evenodd" clip-rule="evenodd" d="M40.9238 132.813C39.4048 132.509 38.2909 131.193 38.2909 129.623V114.535C38.2909 112.712 39.7592 111.244 41.582 111.244H48.6198C48.8224 111.244 49.0755 111.244 49.278 111.294C50.797 111.598 51.9109 112.915 51.9109 114.484V129.572C51.9109 131.395 50.4426 132.864 48.6198 132.864H41.582C41.3288 132.864 41.1263 132.864 40.9238 132.813ZM50.797 129.572V114.484C50.797 113.269 49.7844 112.256 48.5692 112.256H41.582C40.3668 112.256 39.3542 113.269 39.3542 114.484V129.572C39.3542 130.788 40.3668 131.8 41.582 131.8H48.6198C49.835 131.8 50.797 130.788 50.797 129.572Z" fill="#A54039"/>
<path fill-rule="evenodd" clip-rule="evenodd" d="M23 174.939V41.8777C23 37.6246 26.443 34.1816 30.6961 34.1816H31.1518C35.4048 34.1816 38.8478 37.6246 38.8478 41.8777V166.787H104.315C108.568 166.787 112.011 170.23 112.011 174.483V174.939C112.011 179.192 108.568 182.635 104.315 182.635H30.6961C26.443 182.635 23 179.192 23 174.939ZM111.15 174.939V174.483C111.15 170.686 108.062 167.648 104.315 167.648H37.9871V41.8777C37.9871 38.0803 34.8985 35.0424 31.1518 35.0424H30.6961C26.8987 35.0424 23.8607 38.1309 23.8607 41.8777V174.939C23.8607 178.736 26.9493 181.774 30.6961 181.774H104.315C108.112 181.774 111.15 178.736 111.15 174.939Z" fill="#A54039"/>
<path fill-rule="evenodd" clip-rule="evenodd" d="M46.1895 169.116L52.7716 166.736C54.1893 166.23 54.9488 164.66 54.4425 163.192L49.278 149.015C48.7717 147.597 47.2021 146.838 45.7338 147.344L39.1516 149.724C37.7339 150.23 36.9744 151.8 37.4808 153.268L42.6452 167.445C43.2022 168.863 44.7718 169.622 46.1895 169.116Z" fill="white"/>
<path fill-rule="evenodd" clip-rule="evenodd" d="M42.1895 167.648L37.025 153.471C36.4174 151.749 37.2782 149.876 38.9997 149.268L45.5818 146.889C47.3033 146.281 49.1767 147.142 49.7843 148.863L54.9487 163.04C55.5563 164.762 54.6956 166.635 52.9741 167.243L46.3919 169.622C44.6704 170.23 42.7971 169.319 42.1895 167.648ZM45.9869 168.61L52.569 166.23C53.7336 165.825 54.3412 164.559 53.8855 163.395L48.721 149.218C48.3159 148.053 46.9995 147.445 45.8856 147.901L39.3034 150.281C38.1389 150.686 37.5313 152.002 37.987 153.116L43.1515 167.293C43.5565 168.407 44.873 169.015 45.9869 168.61Z" fill="#A54039"/>
</svg>
