<svg width="120" height="120" viewBox="0 0 120 120" fill="none" xmlns="http://www.w3.org/2000/svg">
<circle cx="60" cy="60" r="60" fill="#B2B6BB"/>
<path d="M60 60.5C70.7313 60.5 79.4286 51.6588 79.4286 40.75C79.4286 29.8412 70.7313 21 60 21C49.2687 21 40.5714 29.8412 40.5714 40.75C40.5714 51.6588 49.2687 60.5 60 60.5ZM73.6 65.4375H71.0652C67.6955 67.0113 63.9464 67.9062 60 67.9062C56.0536 67.9062 52.3196 67.0113 48.9348 65.4375H46.4C35.1375 65.4375 26 74.7262 26 86.175V92.5938C26 96.6826 29.2634 100 33.2857 100H86.7143C90.7366 100 94 96.6826 94 92.5938V86.175C94 74.7262 84.8625 65.4375 73.6 65.4375Z" fill="white"/>
</svg>
