<svg width="219" height="216" viewBox="0 0 219 216" fill="none" xmlns="http://www.w3.org/2000/svg">
<path d="M75.3089 182.473H71.0969V171.313H58.2089V182.473H53.9969V156.265H58.2089V167.317H71.0969V156.265H75.3089V182.473ZM101.445 166.561C102.933 166.561 104.109 166.981 104.973 167.821C105.861 168.661 106.329 169.765 106.377 171.133V182.473H102.381V172.681C102.333 171.865 102.153 171.241 101.841 170.809C101.529 170.353 101.013 170.101 100.293 170.053C99.0446 170.053 98.0366 170.617 97.2686 171.745C96.5006 172.849 96.1046 174.145 96.0806 175.633V182.473H92.0126V172.681C91.9646 171.889 91.7726 171.265 91.4366 170.809C91.1246 170.353 90.5966 170.101 89.8526 170.053C89.0366 170.053 88.3166 170.317 87.6926 170.845C87.0686 171.373 86.5766 172.069 86.2166 172.933C85.8806 173.797 85.7126 174.697 85.7126 175.633V182.473H81.6806V167.245H85.3166L85.6406 169.909C86.2166 168.829 86.9966 168.001 87.9806 167.425C88.9646 166.849 90.0926 166.561 91.3646 166.561C92.5886 166.561 93.6086 166.837 94.4246 167.389C95.2646 167.917 95.8166 168.685 96.0806 169.693C96.7046 168.709 97.4966 167.941 98.4566 167.389C99.4166 166.837 100.413 166.561 101.445 166.561ZM110.079 180.277C110.079 179.677 110.295 179.161 110.727 178.729C111.183 178.297 111.699 178.081 112.275 178.081C112.803 178.081 113.283 178.297 113.715 178.729C114.171 179.161 114.399 179.677 114.399 180.277C114.399 180.901 114.171 181.429 113.715 181.861C113.283 182.269 112.803 182.473 112.275 182.473C111.699 182.473 111.183 182.269 110.727 181.861C110.295 181.453 110.079 180.925 110.079 180.277ZM132.612 161.593C130.356 160.417 128.352 159.829 126.6 159.829C125.304 159.829 124.272 160.117 123.504 160.693C122.76 161.269 122.388 162.061 122.388 163.069C122.388 164.053 122.856 164.881 123.792 165.553C124.752 166.201 126.084 166.849 127.788 167.497C129.084 167.953 130.188 168.481 131.1 169.081C132.036 169.657 132.804 170.449 133.404 171.457C134.004 172.465 134.304 173.737 134.304 175.273C134.304 176.665 133.956 177.925 133.26 179.053C132.564 180.181 131.556 181.081 130.236 181.753C128.916 182.425 127.356 182.761 125.556 182.761C123.972 182.761 122.412 182.521 120.876 182.041C119.34 181.537 117.972 180.853 116.772 179.989L118.644 176.713C119.532 177.385 120.576 177.949 121.776 178.405C123 178.837 124.128 179.053 125.16 179.053C126.432 179.053 127.548 178.753 128.508 178.153C129.468 177.529 129.948 176.581 129.948 175.309C129.948 174.301 129.54 173.461 128.724 172.789C127.932 172.117 126.816 171.505 125.376 170.953C123.888 170.401 122.652 169.861 121.668 169.333C120.684 168.781 119.832 168.025 119.112 167.065C118.416 166.081 118.068 164.857 118.068 163.393C118.068 161.257 118.788 159.541 120.228 158.245C121.692 156.925 123.612 156.217 125.988 156.121C127.716 156.121 129.228 156.325 130.524 156.733C131.844 157.117 133.068 157.669 134.196 158.389L132.612 161.593ZM137.725 174.697C137.725 173.185 138.085 171.805 138.805 170.557C139.549 169.309 140.569 168.337 141.865 167.641C143.161 166.921 144.637 166.561 146.293 166.561C147.949 166.561 149.413 166.921 150.685 167.641C151.981 168.337 152.977 169.309 153.673 170.557C154.369 171.781 154.717 173.161 154.717 174.697C154.717 176.233 154.369 177.625 153.673 178.873C152.977 180.097 151.981 181.069 150.685 181.789C149.413 182.509 147.937 182.869 146.257 182.869C144.625 182.869 143.161 182.545 141.865 181.897C140.569 181.225 139.549 180.277 138.805 179.053C138.085 177.805 137.725 176.353 137.725 174.697ZM141.793 174.733C141.793 176.101 142.213 177.253 143.053 178.189C143.893 179.101 144.937 179.557 146.185 179.557C147.481 179.557 148.537 179.101 149.353 178.189C150.193 177.277 150.613 176.125 150.613 174.733C150.613 173.341 150.193 172.189 149.353 171.277C148.537 170.341 147.481 169.873 146.185 169.873C144.937 169.873 143.893 170.353 143.053 171.313C142.213 172.249 141.793 173.389 141.793 174.733ZM157.118 180.277C157.118 179.677 157.334 179.161 157.766 178.729C158.222 178.297 158.738 178.081 159.314 178.081C159.842 178.081 160.322 178.297 160.754 178.729C161.21 179.161 161.438 179.677 161.438 180.277C161.438 180.901 161.21 181.429 160.754 181.861C160.322 182.269 159.842 182.473 159.314 182.473C158.738 182.473 158.222 182.269 157.766 181.861C157.334 181.453 157.118 180.925 157.118 180.277ZM163.235 180.277C163.235 179.677 163.451 179.161 163.883 178.729C164.339 178.297 164.855 178.081 165.431 178.081C165.959 178.081 166.439 178.297 166.871 178.729C167.327 179.161 167.555 179.677 167.555 180.277C167.555 180.901 167.327 181.429 166.871 181.861C166.439 182.269 165.959 182.473 165.431 182.473C164.855 182.473 164.339 182.269 163.883 181.861C163.451 181.453 163.235 180.925 163.235 180.277Z" fill="#7C8085"/>
<path d="M105.921 1.01971L27.3555 71.4114C26.7186 71.9825 26.2623 72.7475 26.0484 73.6028C25.8344 74.4582 25.8731 75.3626 26.1593 76.1939C26.4454 77.0251 26.9651 77.743 27.6481 78.2505C28.3312 78.758 29.1446 79.0305 29.9783 79.0313H42.2048C43.2842 79.0313 44.3194 79.4865 45.0826 80.2966C45.8459 81.1068 46.2747 82.2056 46.2747 83.3513V141.791C46.2747 142.937 46.7035 144.036 47.4667 144.846C48.2299 145.656 49.2651 146.111 50.3445 146.111H166.833C167.912 146.111 168.947 145.656 169.711 144.846C170.474 144.036 170.903 142.937 170.903 141.791V83.3033C170.903 82.1576 171.331 81.0588 172.095 80.2486C172.858 79.4385 173.893 78.9834 174.973 78.9834H187.058C187.891 78.9823 188.703 78.7101 189.386 78.2034C190.068 77.6966 190.588 76.9798 190.874 76.1497C191.161 75.3196 191.201 74.4161 190.988 73.5613C190.776 72.7064 190.321 71.9414 189.686 71.3694L165.555 49.6855C165.103 49.2812 164.739 48.7771 164.489 48.2081C164.239 47.6392 164.109 47.0192 164.108 46.3915V22.2656C164.108 21.1199 163.68 20.0211 162.916 19.2109C162.153 18.4008 161.118 17.9456 160.038 17.9456H155.692C154.612 17.9456 153.577 18.4008 152.814 19.2109C152.051 20.0211 151.622 21.1199 151.622 22.2656V32.5736C151.621 32.9839 151.509 33.3854 151.301 33.731C151.093 34.0766 150.796 34.3521 150.445 34.5252C150.095 34.6984 149.705 34.7619 149.322 34.7085C148.939 34.6551 148.578 34.4869 148.281 34.2236L111.166 1.01371C110.432 0.35795 109.502 -0.00109539 108.542 2.51045e-06C107.583 0.00110041 106.654 0.362271 105.921 1.01971Z" fill="#BADCF6"/>
<path d="M108.023 108.641C118.057 108.641 126.191 100.008 126.191 89.3573C126.191 78.7071 118.057 70.0734 108.023 70.0734C97.9899 70.0734 89.856 78.7071 89.856 89.3573C89.856 100.008 97.9899 108.641 108.023 108.641Z" fill="#FDE1A9" stroke="#F89D70" stroke-width="3" stroke-miterlimit="10"/>
<path d="M152.916 105.041C141.673 115.883 121.171 117.563 102.128 107.933C79.2575 96.3713 67.0027 72.8094 74.3058 54.8635" stroke="#F89D70" stroke-width="2" stroke-miterlimit="10"/>
</svg>
