<svg width="201" height="201" viewBox="0 0 201 201" fill="none" xmlns="http://www.w3.org/2000/svg">
<rect width="201" height="201" rx="10" fill="#C2C7CD"/>
<path fill-rule="evenodd" clip-rule="evenodd" d="M127.385 112.414V79.8844C127.385 76.1237 124.377 73.1152 120.616 73.1152H98.8047C95.0441 73.1152 92.0356 76.1237 92.0356 79.8844V112.414C92.0356 116.174 95.0441 119.183 98.8047 119.183H120.616C124.377 119.183 127.385 116.174 127.385 112.414Z" fill="#BADCF6"/>
<path fill-rule="evenodd" clip-rule="evenodd" d="M91.0955 112.414V79.8843C91.0955 75.6536 94.574 72.175 98.8047 72.175H120.616C124.847 72.175 128.326 75.6536 128.326 79.8843V112.414C128.326 116.644 124.847 120.123 120.616 120.123H98.8047C94.574 120.123 91.0955 116.644 91.0955 112.414ZM126.445 112.414V79.8843C126.445 76.6878 123.813 74.1494 120.71 74.1494H98.8047C95.6082 74.1494 93.0698 76.7818 93.0698 79.8843V112.414C93.0698 115.61 95.7022 118.149 98.8047 118.149H120.616C123.813 118.149 126.445 115.61 126.445 112.414Z" fill="#B2B6BB"/>
<path d="M168.06 172.46H133.437C128.19 172.46 123.937 168.206 123.937 162.96V38.1758C123.937 32.9291 128.19 28.6758 133.437 28.6758H168.06C173.306 28.6758 177.56 32.9291 177.56 38.1758V162.96C177.56 168.206 173.306 172.46 168.06 172.46Z" fill="#BADCF6" stroke="#B2B6BB"/>
<path fill-rule="evenodd" clip-rule="evenodd" d="M135.283 123.79H149.291V88.0637H135.283V123.79Z" fill="#FDE1A9"/>
<path fill-rule="evenodd" clip-rule="evenodd" d="M165.462 135.26H170.539V65.1241H165.462V135.26Z" fill="#FDE1A9"/>
<path fill-rule="evenodd" clip-rule="evenodd" d="M138.479 71.4229C139.137 69.1665 142.428 68.0383 145.813 69.0725C149.197 70.1067 151.359 72.7391 150.701 74.9955C150.043 77.2519 146.753 78.38 143.368 77.3459C139.984 76.4057 137.821 73.6793 138.479 71.4229Z" fill="#FDE1A9"/>
<path fill-rule="evenodd" clip-rule="evenodd" d="M136.599 58.2609L159.633 62.9616L163.111 46.4149L139.984 41.6201L136.599 58.2609Z" fill="#FDE1A9"/>
<path fill-rule="evenodd" clip-rule="evenodd" d="M160.385 64.1837L135.377 59.0129L139.231 40.4918L164.24 45.6627L160.385 64.1837ZM158.881 61.8333L161.889 47.1669L140.736 42.7482L137.727 57.4146L158.881 61.8333Z" fill="#B2B6BB"/>
<path fill-rule="evenodd" clip-rule="evenodd" d="M140.83 56.1925L164.146 52.4319L161.419 35.6971L138.103 39.4578L140.83 56.1925Z" fill="#BADCF6"/>
<path fill-rule="evenodd" clip-rule="evenodd" d="M140.078 57.3206L137.069 38.7055L162.265 34.5688L165.274 53.1839L140.078 57.3206ZM141.676 55.0642L163.017 51.5857L160.573 36.8252L139.231 40.3038L141.676 55.0642Z" fill="#B2B6BB"/>
<path fill-rule="evenodd" clip-rule="evenodd" d="M77.3693 95.9612C77.3693 80.9187 81.3179 68.6967 86.3007 68.6967C91.1895 68.6967 95.2322 80.9187 95.2322 95.9612C95.2322 111.004 91.2836 123.226 86.3007 123.226C81.4119 123.226 77.3693 111.004 77.3693 95.9612Z" fill="#BADCF6"/>
<path fill-rule="evenodd" clip-rule="evenodd" d="M79.0615 115.61C77.4632 110.534 76.4291 103.576 76.4291 95.9611C76.4291 88.3459 77.4632 81.4827 79.0615 76.4059C80.6598 71.6111 83.1042 67.7565 86.3007 67.7565C89.4972 67.7565 91.9416 71.6111 93.5399 76.4059C95.2322 81.4827 96.1723 88.4399 96.1723 95.9611C96.1723 103.576 95.1382 110.534 93.5399 115.516C91.9416 120.311 89.4972 124.166 86.3007 124.166C83.1042 124.26 80.6598 120.405 79.0615 115.61ZM91.6596 114.952C93.2579 110.157 94.292 103.388 94.292 95.9611C94.292 88.5339 93.2579 81.7648 91.7536 76.97C90.0613 71.8932 88.087 69.6368 86.3947 69.6368C84.7024 69.6368 82.6341 71.8932 81.0358 76.97C79.4376 81.7648 78.4974 88.5339 78.4974 95.9611C78.4974 103.388 79.5316 110.157 81.0358 114.952C82.7281 120.029 84.7024 122.285 86.3947 122.285C87.993 122.285 90.0613 119.935 91.6596 114.952Z" fill="#B2B6BB"/>
<path fill-rule="evenodd" clip-rule="evenodd" d="M92.3177 70.1067C92.3177 67.7563 97.3946 65.876 103.694 65.876C109.993 65.876 115.069 67.7563 115.069 70.1067C115.069 72.4571 109.993 74.3374 103.694 74.3374C97.3946 74.4314 92.3177 72.4571 92.3177 70.1067Z" fill="#BADCF6"/>
<path fill-rule="evenodd" clip-rule="evenodd" d="M95.3263 74.0554C94.1981 73.6794 93.2579 73.1153 92.5998 72.5512C91.9417 71.8931 91.3776 71.1409 91.3776 70.1068C91.3776 69.1666 91.9417 68.3205 92.5998 67.7564C93.2579 67.0983 94.2921 66.6282 95.3263 66.2521C97.4886 65.406 100.497 64.9359 103.694 64.9359C106.89 64.9359 109.899 65.406 112.061 66.2521C113.189 66.6282 114.129 67.1923 114.787 67.7564C115.446 68.4145 116.01 69.1666 116.01 70.1068C116.01 71.0469 115.446 71.8931 114.787 72.5512C114.129 73.2093 113.095 73.6794 112.061 74.0554C109.899 74.9016 106.89 75.3716 103.694 75.3716C100.497 75.3716 97.4886 74.9016 95.3263 74.0554ZM111.497 72.1751C113.565 71.423 114.223 70.5768 114.223 70.1068C114.223 69.6367 113.565 68.7906 111.497 68.0384C109.617 67.2863 106.796 66.8162 103.788 66.8162C100.685 66.8162 97.9587 67.2863 96.0784 68.0384C94.0101 68.7906 93.352 69.6367 93.352 70.1068C93.352 70.5768 94.0101 71.423 96.0784 72.1751C97.9587 72.9272 100.779 73.3973 103.788 73.3973C106.796 73.3973 109.523 72.9272 111.497 72.1751Z" fill="#B2B6BB"/>
<path fill-rule="evenodd" clip-rule="evenodd" d="M92.3177 122.473C92.3177 120.123 97.3946 118.243 103.694 118.243C109.993 118.243 115.069 120.123 115.069 122.473C115.069 124.824 109.993 126.704 103.694 126.704C97.3946 126.704 92.3177 124.824 92.3177 122.473Z" fill="#BADCF6"/>
<path fill-rule="evenodd" clip-rule="evenodd" d="M95.3263 126.422C94.1981 126.046 93.2579 125.482 92.5998 124.918C91.9417 124.26 91.3776 123.508 91.3776 122.473C91.3776 121.533 91.9417 120.687 92.5998 120.123C93.2579 119.465 94.2921 118.995 95.3263 118.619C97.4886 117.773 100.497 117.303 103.694 117.303C106.89 117.303 109.899 117.773 112.061 118.619C113.189 118.995 114.129 119.559 114.787 120.123C115.446 120.781 116.01 121.533 116.01 122.473C116.01 123.414 115.446 124.26 114.787 124.918C114.129 125.576 113.095 126.046 112.061 126.422C109.899 127.268 106.89 127.738 103.694 127.738C100.497 127.738 97.4886 127.268 95.3263 126.422ZM111.497 124.542C113.565 123.79 114.223 122.944 114.223 122.473C114.223 122.003 113.565 121.157 111.497 120.405C109.617 119.653 106.796 119.183 103.788 119.183C100.685 119.183 97.9587 119.653 96.0784 120.405C94.0101 121.157 93.352 122.003 93.352 122.473C93.352 122.944 94.0101 123.79 96.0784 124.542C97.9587 125.294 100.779 125.764 103.788 125.764C106.796 125.764 109.523 125.294 111.497 124.542Z" fill="#B2B6BB"/>
<path d="M44.2414 171.99H32.8402C27.5935 171.99 23.3402 167.736 23.3402 162.49V40.0562C23.3402 34.8094 27.5935 30.5562 32.8402 30.5562H44.2414C49.4881 30.5562 53.7414 34.8094 53.7414 40.0561V162.49C53.7414 167.736 49.4881 171.99 44.2414 171.99Z" fill="#BADCF6" stroke="#B2B6BB"/>
</svg>
