<svg width="74" height="228" viewBox="0 0 74 228" fill="none" xmlns="http://www.w3.org/2000/svg">
<path d="M69.8342 111.372C69.8342 111.372 72.6596 118.473 72.9672 119.156C73.1603 119.54 73.2592 119.964 73.2558 120.393C73.2523 120.823 73.1465 121.245 72.9473 121.626C72.5713 122.312 69.5295 127.439 67.7664 126.522C66.0034 125.605 63.2748 123.073 63.2748 123.073C63.1921 123.019 63.122 122.948 63.0695 122.865C63.0169 122.781 62.9831 122.687 62.9703 122.589C62.9576 122.492 62.9663 122.392 62.9957 122.298C63.0252 122.204 63.0747 122.117 63.141 122.044C63.279 121.914 63.4479 121.821 63.6318 121.774C63.8157 121.728 64.0085 121.728 64.1919 121.777L63.1324 120.874C63.1324 120.874 62.5799 120.447 62.9872 119.942C63.3261 119.518 64.2318 119.612 64.2318 119.612C64.2318 119.612 63.3945 119.082 63.7847 118.504C63.8892 118.358 64.0348 118.245 64.2031 118.181C64.3714 118.118 64.5548 118.105 64.7303 118.145C64.6815 118.047 64.6528 117.939 64.6458 117.83C64.6389 117.72 64.6539 117.61 64.69 117.506C64.726 117.402 64.7824 117.306 64.8558 117.224C64.9293 117.142 65.0182 117.076 65.1176 117.029C64.4074 115.269 64.4074 113.303 65.1176 111.543C65.1176 111.543 65.2857 109.455 67.3962 109.265C69.5067 109.074 69.8342 111.372 69.8342 111.372Z" fill="#FAA284"/>
<path d="M70.3896 120.031C71.4235 121.526 68.7633 124.665 68.2022 125.046C67.5044 125.522 65.1517 123.725 64.1919 123.007C63.5738 122.548 63.5283 122.056 63.5539 121.802C63.7626 121.742 63.9832 121.736 64.1948 121.785L63.1352 120.882C63.1352 120.882 62.5827 120.455 62.99 119.951C63.3289 119.526 64.2346 119.62 64.2346 119.62C64.2346 119.62 63.42 119.185 63.7875 118.513C63.8935 118.368 64.0393 118.257 64.2071 118.193C64.3749 118.129 64.5576 118.116 64.7331 118.154C64.6843 118.055 64.6556 117.948 64.6486 117.838C64.6417 117.728 64.6567 117.618 64.6928 117.514C64.7289 117.41 64.7852 117.315 64.8586 117.233C64.9321 117.151 65.021 117.084 65.1204 117.037C68.393 117.288 69.3557 118.538 70.3896 120.031Z" fill="#EF8D72"/>
<path d="M65.1204 117.037C65.3599 117.922 65.5407 118.823 65.6616 119.732C65.8239 121.304 65.9464 122.358 65.9749 123.189C66.0176 124.984 67.7066 124.841 67.6838 123.372C67.6653 122.191 67.7955 121.013 68.0711 119.865C68.2524 119.291 68.5425 118.758 68.9256 118.293C68.9256 118.293 68.9512 116.322 67.1597 116.015C65.3682 115.707 65.0207 116.55 65.1204 117.037Z" fill="#FAA284"/>
<path d="M3.37162 111.722C3.37162 111.722 0.588936 118.843 0.281331 119.527C0.0906616 119.911 -0.00568398 120.336 0.000259177 120.765C0.00620234 121.195 0.114264 121.617 0.315509 121.996C0.697167 122.679 3.78461 127.786 5.52486 126.861C7.2651 125.935 9.99937 123.386 9.99937 123.386C9.99937 123.386 10.6288 122.927 10.1247 122.358C9.98499 122.229 9.81542 122.138 9.63139 122.091C9.44735 122.045 9.25468 122.046 9.07086 122.093L10.1247 121.187C10.1247 121.187 10.6744 120.754 10.2671 120.253C9.92532 119.831 9.01959 119.931 9.01959 119.931C9.01959 119.931 9.85411 119.396 9.46106 118.82C9.35556 118.674 9.20917 118.563 9.04036 118.5C8.87156 118.437 8.68791 118.426 8.51261 118.467C8.56078 118.368 8.58882 118.261 8.5951 118.151C8.60138 118.041 8.58578 117.932 8.5492 117.828C8.51263 117.724 8.4558 117.629 8.38204 117.547C8.30829 117.466 8.21906 117.4 8.11956 117.353C8.82204 115.59 8.81489 113.623 8.09962 111.865C8.09962 111.865 7.91734 109.78 5.80113 109.586C3.68492 109.393 3.37162 111.722 3.37162 111.722Z" fill="#FAA284"/>
<path d="M2.8676 120.378C1.8451 121.876 4.51955 125.004 5.0835 125.38C5.78415 125.85 8.12537 124.041 9.07097 123.317C9.68618 122.853 9.7289 122.36 9.70327 122.107C9.49299 122.05 9.27215 122.046 9.05957 122.093L10.1134 121.187C10.1134 121.187 10.6631 120.754 10.2558 120.253C9.91403 119.831 9.00831 119.931 9.00831 119.931C9.00831 119.931 9.82004 119.489 9.44978 118.82C9.34328 118.675 9.19678 118.565 9.02829 118.502C8.85979 118.439 8.67664 118.427 8.50133 118.467C8.54988 118.369 8.57852 118.262 8.5856 118.153C8.59267 118.044 8.57805 117.934 8.54256 117.831C8.50708 117.727 8.45144 117.632 8.37886 117.55C8.30627 117.468 8.21818 117.401 8.11967 117.353C4.8414 117.621 3.89295 118.88 2.8676 120.378Z" fill="#EF8D72"/>
<path d="M8.11948 117.353C7.88479 118.239 7.70877 119.139 7.59256 120.048C7.44161 121.623 7.30774 122.679 7.30774 123.508C7.27356 125.303 5.58458 125.172 5.59882 123.702C5.61446 122.523 5.4795 121.346 5.19723 120.202C5.0176 119.629 4.7273 119.096 4.34277 118.635C4.34277 118.635 4.30574 116.664 6.09726 116.356C7.88877 116.049 8.21631 116.863 8.11948 117.353Z" fill="#FAA284"/>
<path d="M21.6229 166.53C21.6229 166.51 21.6001 166.285 21.6001 166.285C19.3215 151.426 15.5876 116.55 15.5819 116.499C15.3821 115.219 15.4377 113.911 15.7453 112.653C16.053 111.394 16.6066 110.208 17.3744 109.165C18.1421 108.121 19.1088 107.239 20.2187 106.57C21.3287 105.902 22.5599 105.459 23.8416 105.268C29.2532 104.471 34.2859 108.074 35.0834 113.483C35.0834 113.534 35.1091 113.503 35.1091 113.503C35.3939 129.737 35.3198 141.7 34.1578 166.171V166.439C34.1272 167.924 33.5745 169.35 32.5969 170.468C31.6193 171.586 30.2791 172.323 28.8117 172.551C27.9989 172.675 27.1697 172.638 26.3715 172.441C25.5733 172.243 24.8218 171.891 24.1603 171.402C23.4988 170.914 22.9401 170.3 22.5164 169.596C22.0927 168.891 21.8123 168.11 21.6912 167.296C21.6517 167.043 21.6289 166.787 21.6229 166.53V166.53Z" fill="#5E8C9E"/>
<path d="M34.1208 167.325C34.1424 166.731 34.131 166.137 34.0866 165.545C33.8587 163.992 33.0563 162.581 31.8382 161.591C30.62 160.602 29.0749 160.105 27.5083 160.2C25.9416 160.295 24.4677 160.974 23.3779 162.104C22.2881 163.233 21.6618 164.731 21.6229 166.3C21.6229 166.408 21.5859 166.627 21.5859 166.636C21.5631 167.279 18.7064 177.336 24.6534 196.621C25.1888 198.35 25.8895 202.081 26.6016 206.354H34.7702C34.0866 192.113 33.7875 171.973 34.1208 167.325Z" fill="#5E8C9E"/>
<path d="M28.1964 217.53L35.2941 217.84C35.1005 215.562 34.9267 209.487 34.7701 206.354H26.6014C27.1483 209.202 27.7037 215.306 28.1964 217.53Z" fill="#FAA284"/>
<path d="M26.2939 203.884C26.2939 203.884 25.5648 204.092 25.8439 205.24C26.123 206.388 25.7613 207.305 26.2569 207.724C26.7524 208.142 30.6516 209.008 35.0265 207.106C35.0265 207.106 35.6673 206.698 35.2002 205.058C35.0065 204.38 35.4081 203.56 34.6306 202.882C32.0521 204.173 29.1049 204.527 26.2939 203.884V203.884Z" fill="#7EB0BC"/>
<path d="M51.8877 166.459C51.8877 166.436 51.9105 166.214 51.9105 166.214C54.1264 151.341 57.7635 116.468 57.7721 116.416C58.143 113.816 57.4663 111.175 55.8908 109.073C54.3153 106.972 51.9698 105.582 49.3699 105.209C43.9583 104.437 38.9398 108.057 38.1708 113.468C38.1708 113.52 38.1451 113.491 38.1451 113.491C38.1024 129.726 38.1167 141.506 39.3613 166.154V166.419C39.4003 167.904 39.9609 169.328 40.9447 170.441C41.9285 171.554 43.2727 172.285 44.7416 172.506C45.5543 172.626 46.3829 172.585 47.1798 172.385C47.9766 172.185 48.7261 171.829 49.3853 171.338C50.0444 170.848 50.6002 170.232 51.0208 169.526C51.4415 168.82 51.7186 168.038 51.8364 167.225C51.8716 166.971 51.8888 166.715 51.8877 166.459V166.459Z" fill="#5E8C9E"/>
<path d="M38.5127 217.829L45.7186 217.744C46.2028 215.499 46.7155 209.484 47.2196 206.351H39.0567C38.9257 209.487 38.6921 215.556 38.5127 217.829Z" fill="#FAA284"/>
<path d="M51.9276 166.556C51.9276 166.556 51.8905 166.322 51.8877 166.214C51.8469 164.644 51.2179 163.146 50.1253 162.018C49.0327 160.89 47.5562 160.213 45.9882 160.121C44.4202 160.03 42.8751 160.531 41.6589 161.525C40.4426 162.519 39.644 163.933 39.4211 165.488C39.3784 166.097 39.3689 166.709 39.3927 167.319C39.7515 171.97 39.6405 192.116 39.0566 206.357H47.2195C47.8632 202.084 48.487 198.288 49.0082 196.564C54.8584 177.248 51.9532 167.197 51.9276 166.556Z" fill="#5E8C9E"/>
<path d="M47.5926 203.87C47.5926 203.87 48.1167 204.092 47.8376 205.24C47.5585 206.388 47.9202 207.305 47.4246 207.724C46.929 208.142 43.0327 209.008 38.655 207.106C38.655 207.106 38.0142 206.698 38.4841 205.058C38.6778 204.38 38.3958 203.517 39.1876 202.839C41.7872 204.14 44.7558 204.504 47.5926 203.87Z" fill="#7EB0BC"/>
<path d="M26.6129 218.245C26.6129 218.245 27.6268 216.673 31.5203 216.673C35.4138 216.673 35.7926 218.239 35.7926 218.239V220.31H26.6442L26.6129 218.245Z" fill="#FAA284"/>
<path d="M36.9461 226.006H20.4266V228H36.9461V226.006Z" fill="#D0D1D8"/>
<path d="M20.5718 226.006C20.5718 226.006 19.837 222.765 23.0896 222.019L27.0771 216.787C27.0771 216.787 28.5553 215.405 30.8225 216.787C31.3466 217.108 32.5485 219.159 34.0552 218.846C35.5619 218.533 35.0891 217.026 35.6217 217.137C36.1543 217.248 37.0287 220.555 36.8806 225.966L20.5718 226.006Z" fill="#DCDDE5"/>
<path d="M23.0896 221.99C19.837 222.722 20.5718 226.006 20.5718 226.006H29.1563C28.9427 221.164 23.0896 221.99 23.0896 221.99Z" fill="#CBCCD3"/>
<path d="M27.5271 221.657C27.4828 221.658 27.4389 221.648 27.399 221.629C25.4394 220.757 24.1406 221.144 24.1292 221.15C24.0499 221.175 23.9638 221.168 23.8898 221.13C23.8158 221.092 23.7601 221.026 23.7348 220.946C23.7095 220.867 23.7167 220.781 23.7549 220.707C23.7931 220.633 23.8591 220.577 23.9384 220.552C23.9982 220.532 25.4593 220.079 27.6411 221.059C27.7059 221.089 27.7586 221.14 27.7906 221.203C27.8226 221.267 27.8318 221.34 27.8169 221.409C27.802 221.479 27.7637 221.542 27.7084 221.587C27.6532 221.632 27.5842 221.657 27.5129 221.657H27.5271Z" fill="#EAEBF4"/>
<path d="M28.3104 220.563C28.2663 220.562 28.2228 220.552 28.1822 220.535C26.2227 219.661 24.9239 220.051 24.9125 220.054C24.8347 220.075 24.7517 220.066 24.6806 220.028C24.6095 219.989 24.5559 219.925 24.5309 219.849C24.506 219.772 24.5116 219.688 24.5466 219.616C24.5816 219.543 24.6433 219.487 24.7188 219.458C24.7815 219.438 26.2398 218.986 28.4215 219.962C28.4878 219.991 28.5421 220.042 28.5754 220.106C28.6087 220.17 28.6188 220.243 28.6041 220.314C28.5893 220.385 28.5506 220.448 28.4945 220.494C28.4384 220.539 28.3684 220.564 28.2962 220.563H28.3104Z" fill="#EAEBF4"/>
<path d="M28.9256 219.672C28.8792 219.671 28.8335 219.661 28.7917 219.641C26.8379 218.704 25.5505 219.071 25.5362 219.071C25.4964 219.083 25.4545 219.088 25.413 219.084C25.3715 219.08 25.3311 219.068 25.2942 219.049C25.2573 219.029 25.2246 219.003 25.198 218.971C25.1713 218.938 25.1513 218.901 25.1389 218.862C25.1266 218.822 25.1222 218.78 25.126 218.738C25.1299 218.697 25.1419 218.656 25.1613 218.62C25.1807 218.583 25.2073 218.55 25.2393 218.523C25.2714 218.497 25.3084 218.477 25.3483 218.464C25.4109 218.447 26.8806 218.031 29.0509 219.071C29.1148 219.102 29.1662 219.154 29.1969 219.217C29.2275 219.281 29.2356 219.354 29.2197 219.423C29.2038 219.492 29.165 219.554 29.1095 219.598C29.054 219.642 28.9851 219.666 28.9142 219.666L28.9256 219.672Z" fill="#EAEBF4"/>
<path d="M29.7031 218.607C29.6536 218.607 29.6048 218.595 29.5607 218.572C27.6239 217.604 26.3308 217.943 26.3166 217.946C26.2763 217.959 26.2339 217.963 26.1918 217.96C26.1496 217.956 26.1088 217.943 26.0716 217.923C26.0344 217.903 26.0017 217.875 25.9754 217.842C25.9491 217.809 25.9298 217.771 25.9186 217.73C25.9075 217.689 25.9047 217.647 25.9104 217.605C25.9162 217.563 25.9304 217.523 25.9521 217.486C25.9739 217.45 26.0028 217.419 26.037 217.394C26.0713 217.369 26.1102 217.351 26.1514 217.342C26.2141 217.325 27.6923 216.938 29.8541 218.014C29.9166 218.046 29.9665 218.098 29.996 218.162C30.0255 218.225 30.0328 218.297 30.0167 218.365C30.0007 218.433 29.9621 218.494 29.9073 218.538C29.8525 218.582 29.7846 218.606 29.7145 218.607H29.7031Z" fill="#EAEBF4"/>
<path d="M47.2794 218.245C47.2794 218.245 46.2654 216.673 42.3719 216.673C38.4784 216.673 38.0854 218.239 38.0854 218.239V220.31H47.248L47.2794 218.245Z" fill="#FAA284"/>
<path d="M53.4656 226.006H36.946V228H53.4656V226.006Z" fill="#D0D1D8"/>
<path d="M53.3203 226.006C53.3203 226.006 54.0551 222.765 50.8025 222.019L46.815 216.787C46.815 216.787 45.3368 215.405 43.0697 216.787C42.5456 217.108 41.3437 219.159 39.837 218.846C38.3303 218.533 38.8031 217.026 38.2733 217.137C37.7435 217.248 36.8634 220.555 37.0116 225.966L53.3203 226.006Z" fill="#DCDDE5"/>
<path d="M50.8026 221.99C54.0552 222.722 53.3204 226.006 53.3204 226.006H44.736C44.9524 221.164 50.8026 221.99 50.8026 221.99Z" fill="#CBCCD3"/>
<path d="M46.3651 221.657C46.4094 221.658 46.4533 221.648 46.4933 221.629C48.4528 220.757 49.7516 221.144 49.763 221.15C49.8423 221.175 49.9284 221.168 50.0024 221.13C50.0764 221.092 50.1321 221.026 50.1575 220.946C50.1828 220.867 50.1755 220.781 50.1373 220.707C50.0991 220.633 50.0331 220.577 49.9538 220.552C49.894 220.532 48.4329 220.079 46.2512 221.059C46.1863 221.089 46.1336 221.14 46.1016 221.203C46.0697 221.267 46.0604 221.34 46.0753 221.409C46.0903 221.479 46.1285 221.542 46.1838 221.587C46.2391 221.632 46.308 221.657 46.3793 221.657H46.3651Z" fill="#EAEBF4"/>
<path d="M45.5847 220.563C45.6279 220.562 45.6705 220.552 45.71 220.535C47.6696 219.661 48.9683 220.051 48.9826 220.054C49.0596 220.073 49.141 220.062 49.2103 220.023C49.2796 219.984 49.3316 219.921 49.3558 219.845C49.38 219.769 49.3747 219.687 49.3408 219.616C49.307 219.544 49.2471 219.488 49.1734 219.458C49.1108 219.438 47.6525 218.986 45.4565 219.962C45.39 219.991 45.3355 220.042 45.3022 220.106C45.269 220.171 45.2591 220.245 45.2742 220.315C45.2893 220.386 45.3285 220.45 45.3851 220.495C45.4417 220.54 45.5122 220.564 45.5847 220.563V220.563Z" fill="#EAEBF4"/>
<path d="M44.9667 219.672C45.013 219.671 45.0587 219.661 45.1005 219.641C47.0544 218.703 48.3446 219.071 48.356 219.071C48.4357 219.094 48.5212 219.084 48.5938 219.044C48.6664 219.004 48.7202 218.937 48.7434 218.857C48.7551 218.818 48.759 218.777 48.7548 218.736C48.7506 218.695 48.7383 218.656 48.7187 218.62C48.6991 218.584 48.6726 218.552 48.6406 218.526C48.6087 218.5 48.572 218.481 48.5326 218.47C48.4699 218.453 47.0003 218.037 44.8299 219.077C44.7661 219.108 44.7146 219.159 44.684 219.223C44.6533 219.287 44.6453 219.36 44.6611 219.429C44.677 219.498 44.7159 219.56 44.7714 219.604C44.8269 219.648 44.8957 219.672 44.9667 219.672V219.672Z" fill="#EAEBF4"/>
<path d="M44.1919 218.607C44.2404 218.606 44.2882 218.594 44.3314 218.572C46.2682 217.604 47.5613 217.943 47.5755 217.946C47.6542 217.964 47.7368 217.951 47.8061 217.909C47.8753 217.868 47.9258 217.801 47.9471 217.723C47.9685 217.645 47.9589 217.562 47.9204 217.491C47.882 217.42 47.8176 217.367 47.7407 217.342C47.6781 217.325 46.1998 216.938 44.0381 218.014C43.9754 218.046 43.9253 218.098 43.8958 218.162C43.8664 218.226 43.8593 218.298 43.8757 218.367C43.8922 218.435 43.9312 218.496 43.9865 218.539C44.0418 218.583 44.1101 218.607 44.1805 218.607H44.1919Z" fill="#EAEBF4"/>
<path d="M2.78485 111.845L8.94834 113.466L10.8509 108.077L4.09217 106.297L2.78485 111.845Z" fill="#E2A034"/>
<path d="M13.531 88.7774C12.289 88.4437 11.2251 87.6405 10.564 86.5373C9.90297 85.4341 9.69638 84.1172 9.98789 82.8646C11.1471 75.8153 14.9067 52.9585 15.0178 52.5512C15.4726 51.1765 16.4339 50.0266 17.7062 49.3353C18.9785 48.6439 20.4663 48.463 21.8672 48.8294C23.268 49.1958 24.4768 50.0819 25.2478 51.3076C26.0187 52.5333 26.294 54.0065 26.0175 55.4279L19.5407 85.3197V85.3425C19.1853 86.586 18.3578 87.6413 17.235 88.283C16.1121 88.9248 14.7829 89.1022 13.531 88.7774Z" fill="#EAA434"/>
<path d="M19.4695 85.5533C19.4895 85.4764 19.5521 85.2685 19.555 85.2685L19.5721 85.203C19.8748 83.9466 19.6751 82.6216 19.0154 81.5103C18.3557 80.3989 17.2883 79.5891 16.0403 79.2531C14.7696 78.9413 13.4276 79.1302 12.2923 79.7808C11.1571 80.4314 10.3157 81.4938 9.94233 82.7478C9.65751 83.4229 7.20521 89.1563 3.39148 106.71L11.2212 108.769C13.9554 102.708 18.2562 92.5228 19.4695 85.5533Z" fill="#EAA434"/>
<path d="M70.3468 111.845L64.1834 113.466L62.2808 108.077L69.0424 106.297L70.3468 111.845Z" fill="#E2A034"/>
<path d="M59.6034 88.7774C60.8454 88.4438 61.909 87.6404 62.5696 86.5371C63.2302 85.4338 63.4361 84.1169 63.1437 82.8646C61.9845 75.8153 58.2249 52.9585 58.1167 52.5512C57.6618 51.1765 56.7006 50.0266 55.4283 49.3353C54.156 48.6439 52.6682 48.463 51.2673 48.8294C49.8664 49.1958 48.6576 50.0819 47.8867 51.3076C47.1157 52.5333 46.8405 54.0065 47.1169 55.4279L53.5909 85.3197V85.3425C53.9463 86.5866 54.7742 87.6424 55.8977 88.2842C57.0212 88.9261 58.3512 89.1031 59.6034 88.7774Z" fill="#EAA434"/>
<path d="M53.6622 85.5532C53.6451 85.4763 53.5796 85.2684 53.5796 85.2684L53.5596 85.2029C53.2577 83.9461 53.4582 82.6212 54.1183 81.51C54.7784 80.3988 55.8461 79.589 57.0942 79.253C58.3646 78.9413 59.7062 79.1303 60.841 79.781C61.9757 80.4316 62.8166 81.4939 63.1894 82.7478C63.4742 83.4228 65.9293 89.1562 69.7402 106.71L61.9105 108.769C59.1763 102.708 54.8755 92.5228 53.6622 85.5532Z" fill="#EAA434"/>
<path d="M57.8177 113.585C57.7806 113.266 57.7294 112.95 57.661 112.637C55.6018 101.332 49.0993 91.5202 49.0993 91.5202L36.667 91.5914L24.2375 91.5202C24.2375 91.5202 17.7322 101.332 15.6644 112.637C15.596 112.95 15.5448 113.266 15.5049 113.585C15.4467 114.02 15.4105 114.457 15.3967 114.895C15.4346 117.477 16.4681 119.944 18.2815 121.782C20.0949 123.62 22.5481 124.686 25.1289 124.759H36.6698H48.2079C50.7865 124.684 53.2368 123.617 55.0478 121.78C56.8589 119.943 57.8909 117.478 57.9287 114.898C57.9169 114.459 57.8798 114.02 57.8177 113.585V113.585Z" fill="#5E8C9E"/>
<path d="M35.9179 98.9084C27.6581 98.9084 22.7706 96.3678 22.6965 96.3308C22.6634 96.3121 22.6343 96.2871 22.6109 96.2571C22.5875 96.2272 22.5702 96.1929 22.56 96.1563C22.5498 96.1197 22.547 96.0814 22.5516 96.0436C22.5562 96.0059 22.5682 95.9694 22.5869 95.9363C22.6056 95.9032 22.6306 95.8741 22.6606 95.8507C22.6905 95.8273 22.7248 95.81 22.7614 95.7998C22.798 95.7896 22.8363 95.7868 22.8741 95.7914C22.9118 95.796 22.9483 95.808 22.9814 95.8267C23.0867 95.8837 33.8871 101.466 50.5234 95.8096C50.5591 95.7958 50.5972 95.7894 50.6355 95.7907C50.6738 95.792 50.7114 95.801 50.7461 95.8171C50.7808 95.8333 50.8119 95.8563 50.8375 95.8847C50.8631 95.9132 50.8827 95.9465 50.8952 95.9827C50.9076 96.0189 50.9127 96.0573 50.91 96.0955C50.9073 96.1336 50.8969 96.1709 50.8795 96.205C50.862 96.2391 50.8379 96.2693 50.8086 96.2939C50.7792 96.3184 50.7452 96.3368 50.7085 96.3479C45.9528 98.0094 40.9554 98.8745 35.9179 98.9084V98.9084Z" fill="#7EB0BC"/>
<path d="M35.9407 97.3932C36.5888 97.3932 37.1141 96.8678 37.1141 96.2197C37.1141 95.5717 36.5888 95.0463 35.9407 95.0463C35.2926 95.0463 34.7672 95.5717 34.7672 96.2197C34.7672 96.8678 35.2926 97.3932 35.9407 97.3932Z" fill="#7EB0BC"/>
<path d="M47.5186 98.5381C47.5186 98.5381 48.1452 106.638 55.3455 105.909C55.3455 105.909 53.665 99.9565 51.8507 96.9801C51.8507 96.9801 48.863 98.3729 47.5186 98.5381Z" fill="#4A7582"/>
<path d="M55.2315 107.954C52.6367 108.139 50.4978 107.439 48.8629 105.867C46.0318 103.149 45.7498 98.8686 45.7299 98.6892C45.7238 98.6554 45.7249 98.6207 45.7332 98.5874C45.7416 98.5541 45.7569 98.5229 45.7781 98.496C45.7994 98.4691 45.8262 98.447 45.8567 98.4312C45.8871 98.4154 45.9206 98.4062 45.9549 98.4044V98.4044C45.9884 98.4032 46.0218 98.4087 46.0532 98.4206C46.0846 98.4325 46.1133 98.4505 46.1377 98.4735C46.162 98.4966 46.1816 98.5242 46.1952 98.5549C46.2088 98.5856 46.2162 98.6186 46.2169 98.6521C46.2169 98.6949 46.5017 102.885 49.1648 105.439C50.8737 107.071 53.1694 107.692 56.0005 107.296C56.0354 107.293 56.0707 107.297 56.1042 107.307C56.1378 107.318 56.1688 107.335 56.1954 107.358C56.2221 107.381 56.2438 107.409 56.2592 107.44C56.2747 107.472 56.2835 107.506 56.2853 107.541C56.2952 107.611 56.2792 107.681 56.2403 107.74C56.2014 107.798 56.1424 107.84 56.0745 107.858C55.7982 107.9 55.5106 107.929 55.2315 107.954Z" fill="#7EB0BC"/>
<path d="M26.0375 98.5381C26.0375 98.5381 25.4138 106.638 18.2107 105.909C18.2107 105.909 19.8911 99.9565 21.7054 96.9801C21.7054 96.9801 24.6932 98.3729 26.0375 98.5381Z" fill="#4A7582"/>
<path d="M18.3246 107.954C20.9193 108.139 23.0583 107.439 24.6932 105.867C27.5243 103.149 27.8091 98.8686 27.8262 98.6892C27.8328 98.6553 27.832 98.6205 27.8239 98.587C27.8158 98.5535 27.8005 98.5221 27.7791 98.4951C27.7577 98.468 27.7308 98.4459 27.7001 98.4303C27.6694 98.4146 27.6356 98.4058 27.6012 98.4044C27.5677 98.4032 27.5343 98.4087 27.5029 98.4206C27.4715 98.4325 27.4428 98.4505 27.4184 98.4735C27.3941 98.4966 27.3745 98.5242 27.3609 98.5549C27.3473 98.5856 27.3399 98.6186 27.3392 98.6521C27.3392 98.6949 27.0543 102.885 24.3913 105.439C22.6824 107.071 20.4038 107.692 17.5556 107.296C17.5206 107.292 17.4851 107.296 17.4514 107.306C17.4177 107.317 17.3865 107.334 17.3598 107.357C17.3331 107.38 17.3114 107.408 17.2961 107.44C17.2807 107.472 17.2721 107.506 17.2708 107.541C17.2607 107.61 17.2764 107.681 17.3147 107.739C17.353 107.797 17.4114 107.839 17.4787 107.858C17.7578 107.9 18.0455 107.929 18.3246 107.954Z" fill="#7EB0BC"/>
<path d="M39.0195 123.822C38.9651 123.82 38.9121 123.804 38.8657 123.776C38.8023 123.735 38.7577 123.671 38.7417 123.597C38.7257 123.523 38.7396 123.446 38.7802 123.383C38.8059 123.343 41.3892 119.35 45.1659 116.675C45.1962 116.651 45.2312 116.632 45.2689 116.622C45.3065 116.611 45.346 116.608 45.3847 116.614C45.4235 116.619 45.4608 116.632 45.4942 116.652C45.5276 116.673 45.5565 116.7 45.5791 116.732C45.6017 116.764 45.6174 116.8 45.6253 116.838C45.6332 116.876 45.6332 116.916 45.6251 116.954C45.6171 116.993 45.6012 117.029 45.5786 117.061C45.5559 117.093 45.5269 117.12 45.4934 117.14C41.8107 119.749 39.2844 123.651 39.2587 123.691C39.233 123.731 39.1976 123.764 39.1558 123.787C39.114 123.809 39.0672 123.822 39.0195 123.822Z" fill="#4A7582"/>
<path d="M40.7057 123.246C40.6471 123.246 40.5898 123.228 40.5418 123.195C40.4937 123.161 40.4573 123.114 40.4373 123.058C40.4174 123.003 40.4149 122.943 40.4304 122.887C40.4458 122.83 40.4783 122.78 40.5234 122.742C40.5719 122.702 45.4964 118.726 51.7624 117.587C51.838 117.574 51.9157 117.591 51.9784 117.635C52.0412 117.679 52.0839 117.746 52.0971 117.822C52.1103 117.898 52.093 117.975 52.0489 118.038C52.0048 118.101 51.9376 118.143 51.8621 118.157C45.7413 119.27 40.9336 123.152 40.8852 123.189C40.8335 123.228 40.7703 123.248 40.7057 123.246Z" fill="#4A7582"/>
<path d="M40.4181 124.357C40.3425 124.364 40.2672 124.341 40.2088 124.293C40.1503 124.244 40.1134 124.175 40.1062 124.099C40.099 124.024 40.1221 123.948 40.1705 123.89C40.2188 123.831 40.2884 123.795 40.364 123.787C40.6175 123.739 46.5816 122.58 49.7345 123.252C49.8028 123.272 49.8609 123.318 49.8972 123.379C49.9336 123.441 49.9456 123.513 49.931 123.583C49.9163 123.653 49.876 123.715 49.818 123.756C49.76 123.798 49.6885 123.816 49.6177 123.807C46.5759 123.161 40.5349 124.334 40.475 124.346C40.4567 124.352 40.4375 124.356 40.4181 124.357V124.357Z" fill="#4A7582"/>
<path d="M34.1549 123.822C34.1068 123.822 34.0593 123.81 34.017 123.787C33.9747 123.764 33.9388 123.731 33.9128 123.691C33.89 123.651 31.3494 119.749 27.6781 117.14C27.6476 117.118 27.6217 117.091 27.6019 117.059C27.582 117.027 27.5686 116.992 27.5624 116.955C27.5562 116.918 27.5573 116.88 27.5656 116.844C27.574 116.807 27.5895 116.773 27.6112 116.742C27.6329 116.712 27.6604 116.686 27.6921 116.666C27.7238 116.646 27.7591 116.633 27.796 116.627C27.8329 116.62 27.8706 116.622 27.9071 116.63C27.9436 116.638 27.978 116.654 28.0085 116.675C31.7852 119.347 34.3685 123.335 34.3942 123.383C34.4349 123.446 34.4487 123.523 34.4327 123.597C34.4167 123.671 34.3721 123.735 34.3087 123.776C34.2623 123.804 34.2093 123.82 34.1549 123.822Z" fill="#4A7582"/>
<path d="M32.4688 123.246C32.4035 123.247 32.3402 123.224 32.2893 123.184C32.2409 123.144 27.4275 119.259 21.3095 118.148C21.234 118.134 21.167 118.091 21.1232 118.028C21.0794 117.965 21.0624 117.887 21.076 117.812C21.0896 117.736 21.1326 117.669 21.1957 117.626C21.2587 117.582 21.3365 117.565 21.4121 117.578C27.6781 118.718 32.5998 122.705 32.651 122.734C32.6962 122.771 32.7287 122.821 32.7441 122.878C32.7595 122.935 32.7571 122.995 32.7372 123.05C32.7172 123.105 32.6807 123.153 32.6327 123.186C32.5847 123.22 32.5274 123.238 32.4688 123.238V123.246Z" fill="#4A7582"/>
<path d="M32.7536 124.357C32.7357 124.36 32.7174 124.36 32.6995 124.357C32.6397 124.357 26.5958 123.172 23.5568 123.819C23.4855 123.829 23.4131 123.811 23.3541 123.77C23.2951 123.729 23.2539 123.667 23.2387 123.597C23.2236 123.526 23.2356 123.453 23.2724 123.391C23.3092 123.329 23.3681 123.284 23.4371 123.263C26.5929 122.591 32.5514 123.75 32.8106 123.799C32.8861 123.806 32.9555 123.844 33.0036 123.902C33.0517 123.961 33.0744 124.037 33.0669 124.112C33.0593 124.188 33.0221 124.257 32.9633 124.305C32.9046 124.353 32.8291 124.376 32.7536 124.368V124.357Z" fill="#4A7582"/>
<path d="M38 124.041C37.9599 124.038 37.9208 124.028 37.8848 124.01C37.8487 123.993 37.8166 123.968 37.7901 123.938C37.7637 123.908 37.7434 123.873 37.7305 123.834C37.7177 123.796 37.7125 123.756 37.7152 123.716C38.1823 113.685 37.2965 94.8697 37.2879 94.6818C37.2852 94.6427 37.2905 94.6035 37.3036 94.5666C37.3167 94.5297 37.3372 94.4959 37.364 94.4674C37.3907 94.4388 37.423 94.416 37.4589 94.4004C37.4949 94.3849 37.5336 94.3769 37.5727 94.377C37.6454 94.3769 37.7154 94.4045 37.7683 94.4543C37.8213 94.5041 37.8532 94.5722 37.8576 94.6447C37.8576 94.8327 38.7547 113.685 38.2848 123.745C38.2828 123.821 38.2525 123.893 38.1998 123.948C38.1471 124.003 38.0758 124.036 38 124.041Z" fill="#7EB0BC"/>
<path d="M37.4303 118.231H37.456C33.6622 118.011 33.8131 113.488 33.8131 113.443V94.6447C33.8131 94.5692 33.8431 94.4967 33.8966 94.4433C33.95 94.3899 34.0224 94.3599 34.098 94.3599C34.1735 94.3599 34.2459 94.3899 34.2994 94.4433C34.3528 94.4967 34.3828 94.5692 34.3828 94.6447V113.443C34.3828 113.617 34.2518 117.467 37.4902 117.652C37.5616 117.662 37.6267 117.699 37.6721 117.755C37.7176 117.811 37.7401 117.882 37.7351 117.954C37.728 118.03 37.6928 118.101 37.6364 118.152C37.58 118.203 37.5065 118.231 37.4303 118.231V118.231Z" fill="#7EB0BC"/>
<path d="M36.7183 48.954C39.8228 49.028 41.6542 47.3732 42.1754 46.0203C40.5035 45.7213 38.1481 45.3396 36.6927 45.3225C35.3113 45.3225 32.8675 45.7726 31.4463 46.0203C31.5061 46.7182 33.4058 48.8771 36.7183 48.954Z" fill="#FAA284"/>
<path fill-rule="evenodd" clip-rule="evenodd" d="M18.8519 47.2473C17.4023 46.1568 15.2312 43.479 17.0197 38.6101C17.0197 38.6101 14.201 33.013 16.4157 28.2078C18.6304 23.4026 20.2847 22.4027 20.6303 16.1915C20.9759 9.98032 26.8448 -4.34127 38.7202 1.28267C38.7202 1.28267 40.1665 0.809536 41.3208 1.11489C42.4751 1.42025 43.6496 2.96046 43.6496 2.96046C43.6496 2.96046 46.6494 3.10139 47.636 6.98715C48.0186 7.1922 48.3293 7.50958 48.526 7.89655C48.7228 8.28351 48.7963 8.72149 48.7366 9.15149C48.7366 9.15149 50.6728 14.6043 53.5149 18.4565C56.3571 22.3087 59.1892 28.0031 55.4981 33.8921C51.807 39.7812 49.7936 41.7576 51.4714 46.0594C51.4943 46.0939 51.5093 46.133 51.5153 46.1739C51.5212 46.2149 51.518 46.2566 51.5057 46.2961C51.4935 46.3357 51.4727 46.372 51.4447 46.4024C51.4167 46.4329 51.3822 46.4567 51.3439 46.4722C51.1526 46.546 49.1795 45.8011 47.7937 43.7877C41.9349 49.2942 30.4689 53.7907 24.7308 51.9485C21.4759 50.9083 19.7612 49.0258 18.8519 47.2507V47.2473Z" fill="#403867"/>
<path d="M32.507 33.8527L32.4447 50.0873L41.069 50.1204L41.1313 33.8858L32.507 33.8527Z" fill="#FAA284"/>
<path d="M41.1101 40.9563L41.1358 33.8899L32.5115 33.8557L32.483 41.2155C34.7957 42.6396 37.5243 43.3003 41.1101 40.9563Z" fill="#EF8D72"/>
<path d="M57.7579 52.2152C57.7579 48.8686 52.9359 48.1935 52.9359 48.1935C52.9359 48.1935 49.2333 47.3163 44.5936 46.3394C44.5936 46.3394 43.1695 46.0545 41.6599 45.7953C41.6001 46.4704 39.9937 48.2476 36.8607 48.3587C33.6309 48.2419 31.8166 46.4647 31.7596 45.7953C30.2501 46.0631 28.8089 46.3394 28.8089 46.3394C24.1749 47.3163 20.4836 48.1935 20.4836 48.1935C20.4836 48.1935 15.7385 48.8686 15.7385 52.2152C15.7385 53.7276 19.0026 55.9349 20.4267 56.721V57.0913C20.4267 62.5171 19.8314 64.8896 19.9567 67.9287C20.1447 72.5342 23.0441 74.2801 23.0441 74.2801L24.0353 91.6541C28.1363 93.1798 32.4766 93.961 36.8522 93.9612C41.1353 93.9632 45.3826 93.1813 49.3842 91.6541L50.3754 74.2801C50.3754 74.2801 53.3546 72.5342 53.5454 67.9287C53.6708 64.8896 53.178 62.5171 53.178 57.0913V56.721C54.605 55.9349 57.7579 53.7276 57.7579 52.2152Z" fill="#F2AF36"/>
<path d="M36.741 50.3639C41.3608 50.3639 43.2691 47.6695 43.9612 46.2197C43.4058 46.1143 42.5371 45.9548 41.6513 45.7953C41.5915 46.4704 39.9851 48.2476 36.8521 48.3587C33.6223 48.2419 31.808 46.4647 31.751 45.7953C30.9279 45.9406 30.1275 46.0802 29.5693 46.1941C30.307 47.7093 32.2295 50.3639 36.741 50.3639Z" fill="#E2A034"/>
<path opacity="0.1" d="M20.4123 68.4413C20.4123 68.4413 20.5291 74.4824 26.6071 74.4824H46.8293C46.8293 74.4824 52.2579 74.7672 52.97 68.4413C52.97 68.4413 52.4716 71.506 46.7325 71.4889C41.9874 71.4747 26.3223 71.5145 26.3223 71.5145C26.3223 71.5145 22.1924 71.5858 20.4123 68.4413Z" fill="black"/>
<path d="M18.5724 101.54C17.9891 103.184 17.5339 104.87 17.2109 106.584C17.2109 106.584 30.8652 112.751 56.6812 106.601L54.9723 101.54H18.5724Z" fill="#E2A034"/>
<path d="M24.0864 91.0019C24.0864 91.0019 21.1129 96.5046 20.1189 98.1935C19.1249 99.8825 16.4333 99.4411 17.9258 103.144C17.9258 103.144 32.2294 109.188 55.5818 103.144C55.5818 103.144 57.3192 99.7515 54.7586 98.4214C52.1981 97.0913 49.4297 91.0161 49.4297 91.0161L24.0864 91.0019Z" fill="#F2AF36"/>
<path fill-rule="evenodd" clip-rule="evenodd" d="M49.1225 23.6375C49.213 23.648 49.3027 23.6649 49.3909 23.6878C50.1957 23.8663 50.9159 24.3131 51.4333 24.9549C51.9507 25.5967 52.2345 26.3953 52.2381 27.2197C52.2417 28.0441 51.965 28.8452 51.4533 29.4915C50.9415 30.1378 50.2253 30.5909 49.4221 30.7765C48.6189 30.9621 47.7764 30.869 47.0331 30.5126C46.2897 30.1563 45.6896 29.5578 45.3313 28.8153C44.9729 28.0729 44.8776 27.2307 45.0611 26.427C45.2445 25.6233 45.6957 24.9059 46.3407 24.3925C46.24 25.4696 46.4045 26.8118 47.7769 26.9528L47.7501 24.8522C47.7501 23.9965 48.5453 23.6106 49.1225 23.6375V23.6375Z" fill="#ED8E86"/>
<path fill-rule="evenodd" clip-rule="evenodd" d="M24.194 23.4697L23.9222 23.5067C23.2507 23.6432 22.6313 23.9664 22.1351 24.439C21.6389 24.9116 21.286 25.5145 21.1169 26.1786C20.9479 26.8426 20.9695 27.5409 21.1792 28.1933C21.389 28.8456 21.7784 29.4256 22.3029 29.8667C22.8273 30.3077 23.4655 30.592 24.1441 30.6868C24.8228 30.7816 25.5144 30.6832 26.1397 30.4028C26.7649 30.1223 27.2984 29.6713 27.679 29.1015C28.0595 28.5316 28.2717 27.866 28.2911 27.181C28.3079 26.6257 28.1954 26.0742 27.9625 25.5699C27.7295 25.0655 27.3825 24.6223 26.9489 24.2751C27.0395 25.3489 26.8583 26.681 25.4758 26.8119L25.5395 24.7113C25.5372 24.5407 25.5001 24.3724 25.4304 24.2167C25.3607 24.061 25.2599 23.9212 25.1342 23.8059C25.0085 23.6906 24.8606 23.6021 24.6994 23.5461C24.5383 23.49 24.3675 23.4674 24.1973 23.4798L24.194 23.4697Z" fill="#ED8E86"/>
<path fill-rule="evenodd" clip-rule="evenodd" d="M36.6298 41.8918C29.828 41.8918 24.1537 33.5029 24.1537 26.8656V18.0639C24.1626 14.7578 25.4799 11.5896 27.8177 9.2518C30.1555 6.91401 33.3236 5.59673 36.6298 5.58788V5.58788C39.9388 5.5923 43.1113 6.90762 45.4527 9.24589C47.7941 11.5842 49.1137 14.7549 49.1226 18.0639V26.6844C49.1226 33.9492 44.1765 41.8918 36.6432 41.8918H36.6298Z" fill="#FBBEAC"/>
<path fill-rule="evenodd" clip-rule="evenodd" d="M43.7536 28.9897C43.285 28.997 42.8291 29.1429 42.4434 29.409C42.0576 29.6752 41.7594 30.0496 41.5862 30.485C41.413 30.9204 41.3726 31.3974 41.4702 31.8558C41.5678 32.3141 41.799 32.7333 42.1345 33.0605C42.47 33.3876 42.895 33.608 43.3556 33.6939C43.8163 33.7799 44.2921 33.7274 44.723 33.5432C45.154 33.359 45.5207 33.0514 45.7769 32.659C46.0332 32.2666 46.1675 31.8072 46.1629 31.3386C46.163 31.025 46.1003 30.7145 45.9785 30.4255C45.8567 30.1365 45.6782 29.8748 45.4537 29.6559C45.2291 29.437 44.963 29.2653 44.671 29.1508C44.379 29.0364 44.0671 28.9816 43.7536 28.9897Z" fill="#ED8E86"/>
<path fill-rule="evenodd" clip-rule="evenodd" d="M29.4185 29.2614C28.9488 29.2708 28.4924 29.4193 28.107 29.688C27.7216 29.9568 27.4246 30.3338 27.2534 30.7713C27.0823 31.2089 27.0447 31.6874 27.1455 32.1463C27.2463 32.6052 27.4809 33.0239 27.8196 33.3495C28.1583 33.6751 28.586 33.8929 29.0485 33.9755C29.511 34.058 29.9877 34.0016 30.4181 33.8133C30.8486 33.625 31.2135 33.3133 31.4668 32.9176C31.7202 32.5219 31.8504 32.0599 31.8412 31.5902C31.8263 30.9609 31.5632 30.3631 31.1095 29.9269C30.6557 29.4907 30.0479 29.2515 29.4185 29.2614V29.2614Z" fill="#ED8E86"/>
<path d="M32.9284 20.5739C33.0523 20.6335 33.1481 20.739 33.1956 20.868C33.2432 20.9969 33.2388 21.1393 33.1834 21.2651C33.1567 21.3289 33.1172 21.3864 33.0673 21.4343C33.0175 21.4822 32.9584 21.5194 32.8936 21.5436C32.8289 21.5678 32.7599 21.5785 32.6908 21.5751C32.6218 21.5716 32.5542 21.5541 32.4922 21.5235C31.9975 21.3136 31.4605 21.2228 30.9243 21.2583C30.3881 21.2939 29.8677 21.4548 29.4051 21.7282C29.2866 21.7934 29.1477 21.8108 29.0167 21.777C28.8858 21.7431 28.7728 21.6605 28.7008 21.546C28.6287 21.4316 28.6032 21.2939 28.6293 21.1612C28.6554 21.0285 28.7313 20.9109 28.8413 20.8322C30.8278 19.5873 32.915 20.5739 32.9284 20.5739V20.5739Z" fill="#403867"/>
<path d="M45.267 20.8054C45.3277 20.8389 45.3812 20.8842 45.4243 20.9386C45.4673 20.993 45.4992 21.0554 45.5179 21.1223C45.5367 21.1891 45.5419 21.259 45.5334 21.3278C45.5249 21.3967 45.5027 21.4632 45.4683 21.5235C45.3969 21.6414 45.2836 21.7279 45.151 21.7659C45.0185 21.8039 44.8766 21.7904 44.7536 21.7281C44.2817 21.4711 43.755 21.3312 43.2178 21.3201C42.6805 21.309 42.1485 21.4271 41.6664 21.6644C41.5441 21.7289 41.4011 21.7422 41.2689 21.7013C41.1368 21.6604 41.0263 21.5686 40.9618 21.4463C40.8972 21.3239 40.884 21.1809 40.9249 21.0488C40.9658 20.9166 41.0575 20.8061 41.1799 20.7416C43.267 19.651 45.2535 20.8054 45.267 20.8054V20.8054Z" fill="#403867"/>
<path fill-rule="evenodd" clip-rule="evenodd" d="M36.9653 28.2213C37.2069 28.8924 37.6062 30.0802 37.5793 30.2715C37.529 30.5299 36.1431 30.6071 35.774 30.2078C35.5425 29.9393 35.8378 28.9393 36.1096 28.285C36.4686 27.3891 36.6733 27.3387 36.982 28.2213H36.9653Z" fill="#FBD5C9"/>
<path fill-rule="evenodd" clip-rule="evenodd" d="M42.6127 27.9293C43.0052 27.9266 43.3807 27.7688 43.6573 27.4903C43.9339 27.2118 44.0892 26.8353 44.0892 26.4428C44.0903 26.3298 44.0779 26.2172 44.0523 26.1072L44.2301 26.0434C44.4276 25.9703 44.6072 25.8559 44.7569 25.7079C44.7876 25.6725 44.8045 25.6272 44.8045 25.5804C44.8045 25.5335 44.7876 25.4882 44.7569 25.4529C44.7198 25.4189 44.6713 25.4001 44.621 25.4001C44.5707 25.4001 44.5222 25.4189 44.4851 25.4529C44.3432 25.5933 44.1675 25.6949 43.9751 25.7481V25.7481C44.1732 25.6397 44.3336 25.4735 44.4348 25.2717C44.4576 25.2275 44.4623 25.1761 44.4479 25.1285C44.4335 25.0809 44.4011 25.0408 44.3576 25.0166C44.3369 25.0047 44.314 24.9971 44.2902 24.9946C44.2665 24.992 44.2425 24.9944 44.2197 25.0017C44.1969 25.0089 44.176 25.0209 44.1581 25.0368C44.1402 25.0526 44.1259 25.0721 44.116 25.0938C44.0272 25.2582 43.8869 25.3891 43.7167 25.4663V25.4663C43.8494 25.3636 43.9439 25.2195 43.9851 25.0569C43.9923 25.0333 43.9947 25.0086 43.9921 24.9841C43.9895 24.9596 43.9821 24.9358 43.9702 24.9142C43.9583 24.8927 43.9422 24.8737 43.9229 24.8584C43.9036 24.8432 43.8814 24.8319 43.8576 24.8254C43.8118 24.814 43.7634 24.821 43.7227 24.8448C43.682 24.8687 43.6521 24.9074 43.6395 24.9529C43.6063 25.0643 43.5335 25.1598 43.4348 25.2213C43.2411 25.0928 43.0199 25.0114 42.7891 24.9837C42.5583 24.9559 42.3242 24.9826 42.1055 25.0615C41.8868 25.1404 41.6896 25.2694 41.5297 25.4382C41.3698 25.607 41.2516 25.8109 41.1846 26.0335C41.1176 26.2561 41.1036 26.4913 41.1438 26.7203C41.184 26.9493 41.2772 27.1658 41.416 27.3523C41.5548 27.5388 41.7353 27.6903 41.9431 27.7945C42.1509 27.8988 42.3802 27.953 42.6127 27.9528V27.9293Z" fill="#403867"/>
<path fill-rule="evenodd" clip-rule="evenodd" d="M30.6669 27.9292C30.2726 27.9292 29.8945 27.7726 29.6158 27.4939C29.337 27.2151 29.1804 26.837 29.1804 26.4427C29.1792 26.3298 29.1916 26.2171 29.2173 26.1072L29.0529 26.0434C28.8538 25.9735 28.6735 25.8587 28.526 25.7079C28.4924 25.6739 28.4736 25.6281 28.4736 25.5803C28.4736 25.5326 28.4924 25.4868 28.526 25.4528C28.5626 25.4191 28.6105 25.4004 28.6603 25.4004C28.71 25.4004 28.7579 25.4191 28.7945 25.4528C28.9402 25.59 29.116 25.6911 29.3079 25.7481C29.1098 25.6397 28.9494 25.4735 28.8482 25.2716C28.8364 25.2498 28.8291 25.2259 28.8266 25.2013C28.8242 25.1767 28.8266 25.1518 28.8337 25.1281C28.8409 25.1044 28.8527 25.0823 28.8684 25.0632C28.8841 25.0441 28.9035 25.0282 28.9253 25.0166C28.9695 24.9938 29.0209 24.9891 29.0685 25.0035C29.1161 25.0179 29.1562 25.0503 29.1804 25.0938C29.2595 25.2595 29.3951 25.3916 29.5629 25.4663C29.4302 25.3636 29.3357 25.2195 29.2945 25.0569C29.2827 25.0093 29.2892 24.9591 29.3129 24.9161C29.3365 24.8732 29.3755 24.8408 29.422 24.8253C29.4694 24.8158 29.5187 24.8234 29.5611 24.8467C29.6035 24.8701 29.6362 24.9077 29.6535 24.9529C29.6797 25.0639 29.7484 25.1603 29.8448 25.2213C30.0877 25.056 30.3731 24.964 30.6669 24.9562C31.0611 24.9562 31.4392 25.1128 31.718 25.3916C31.9968 25.6704 32.1534 26.0485 32.1534 26.4427C32.1534 26.837 31.9968 27.2151 31.718 27.4939C31.4392 27.7726 31.0611 27.9292 30.6669 27.9292V27.9292Z" fill="#403867"/>
<path fill-rule="evenodd" clip-rule="evenodd" d="M39.2571 33.2815C39.2697 33.6342 39.2111 33.9858 39.0849 34.3154C38.9586 34.645 38.7672 34.9457 38.5221 35.1997C38.2771 35.4537 37.9833 35.6557 37.6585 35.7937C37.3336 35.9317 36.9843 36.0028 36.6314 36.0028C36.2784 36.0028 35.9291 35.9317 35.6043 35.7937C35.2794 35.6557 34.9857 35.4537 34.7406 35.1997C34.4956 34.9457 34.3042 34.645 34.1779 34.3154C34.0516 33.9858 33.993 33.6342 34.0056 33.2815C34.0056 33.1524 34.0569 33.0287 34.1482 32.9374C34.2394 32.8462 34.3632 32.7949 34.4922 32.7949H38.7706C38.8996 32.7949 39.0234 32.8462 39.1146 32.9374C39.2059 33.0287 39.2571 33.1524 39.2571 33.2815Z" fill="white"/>
<path fill-rule="evenodd" clip-rule="evenodd" d="M49.458 26.3253C49.458 26.3253 47.5118 24.8019 48.6393 21.51C47.638 20.7056 46.8343 19.6824 46.2898 18.5191C45.7454 17.3557 45.4747 16.0831 45.4985 14.7989C45.4985 14.7989 44.0287 17.1478 42.5388 17.5135C41.049 17.8793 41.7067 15.5673 41.7067 15.5673C41.7067 15.5673 38.4551 19.4598 35.3311 19.0001C32.207 18.5404 33.8949 15.7452 33.8949 15.7452C33.8949 15.7452 32.962 18.2048 28.526 17.8088C28.526 17.8088 28.6535 22.1241 25.5798 22.9328C25.5798 22.9328 25.9153 25.3421 24.0161 26.4293C24.0161 26.4293 23.7208 23.4697 22.439 24.1609C22.439 24.1609 21.8886 21.51 21.5061 18.2954C21.9524 17.9867 22.4289 17.6813 22.9154 17.3458L22.5799 17.0639C22.5799 17.0639 24.8717 9.42997 26.3952 7.64816C27.9186 5.86635 34.113 3.67852 35.6331 3.8463C37.1531 4.01407 43.2536 4.77915 44.6931 6.30593C46.1327 7.83272 49.9479 14.517 49.9479 14.517L49.3976 14.9264L52.5485 18.6175C51.921 21.859 51.1761 24.9931 51.1761 24.9931C51.1761 24.9931 49.4345 23.7784 49.4345 26.3354L49.458 26.3253Z" fill="#403867"/>
<path d="M46.1863 4.22888C40.9852 9.73202 32.405 15.8861 20.8887 14.2453C21.2024 12.6063 21.6871 11.0048 22.3349 9.46693C32.301 11.0743 39.8074 7.20192 44.6629 3.2155C45.2339 3.44392 45.7523 3.78647 46.1863 4.22217V4.22888Z" fill="#4D3F74"/>
</svg>
