<svg width="120" height="120" viewBox="0 0 120 120" fill="none" xmlns="http://www.w3.org/2000/svg">
<circle cx="60" cy="59.0035" r="59.0035" fill="#FDE1A9"/>
<path fill-rule="evenodd" clip-rule="evenodd" d="M30.6019 92.0479C28.1892 90.2328 24.5757 85.7759 27.5525 77.6721C27.5525 77.6721 22.8611 68.3564 26.5472 60.3587C30.2333 52.361 32.9867 50.6966 33.5619 40.3588C34.1372 30.021 43.9053 6.18431 63.6706 15.5447C63.6706 15.5447 66.0777 14.7573 67.9989 15.2655C69.9202 15.7737 71.8749 18.3372 71.8749 18.3372C71.8749 18.3372 76.8679 18.5718 78.5099 25.0392C79.1468 25.3805 79.6638 25.9088 79.9913 26.5528C80.3188 27.1969 80.4411 27.9258 80.3418 28.6415C80.3418 28.6415 83.5643 37.7171 88.2948 44.1287C93.0253 50.5403 97.739 60.018 91.5955 69.8196C85.452 79.6213 82.101 82.9108 84.8935 90.0708C84.9317 90.1281 84.9566 90.1932 84.9665 90.2613C84.9764 90.3294 84.971 90.3989 84.9507 90.4647C84.9304 90.5305 84.8956 90.5909 84.849 90.6416C84.8024 90.6923 84.7451 90.732 84.6813 90.7578C84.3629 90.8806 81.079 89.6408 78.7724 86.2898C69.021 95.4547 49.9371 102.939 40.3868 99.8724C34.9693 98.1411 32.1154 95.0079 30.6019 92.0535V92.0479Z" fill="#403867"/>
<path fill-rule="evenodd" clip-rule="evenodd" d="M95.0303 106.647V100.744C95.0185 97.6145 93.7703 94.6169 91.5576 92.4042C89.3449 90.1915 86.3473 88.9433 83.2181 88.9315H37.1866C34.0561 88.9389 31.0559 90.1857 28.8423 92.3994C26.6286 94.613 25.3818 97.6132 25.3744 100.744V106.647C35.2072 114.673 47.51 119.056 60.2024 119.056C72.8947 119.056 85.1975 114.673 95.0303 106.647Z" fill="#FBBEAC"/>
<path fill-rule="evenodd" clip-rule="evenodd" d="M73.2823 105.603H60.1911V119.057C68.51 119.069 76.7224 117.188 84.2066 113.556C83.7598 112.064 83.2906 110.489 82.9946 109.423C82.2239 106.775 81.2018 105.603 79.7107 105.603H73.2823Z" fill="#9AD2E9"/>
<path fill-rule="evenodd" clip-rule="evenodd" d="M60.1912 61.1518C62.7168 61.1577 65.1375 62.1632 66.9239 63.9486C68.7104 65.734 69.7174 68.1541 69.7247 70.6797V88.9315C69.7174 91.4577 68.7106 93.8783 66.9243 95.6646C65.138 97.4509 62.7174 98.4577 60.1912 98.465C57.6655 98.4577 55.2454 97.4507 53.46 95.6642C51.6746 93.8778 50.6691 91.4572 50.6632 88.9315V70.6797C50.6691 68.1546 51.6748 65.7345 53.4604 63.949C55.2459 62.1634 57.666 61.1577 60.1912 61.1518Z" fill="#FBBEAC"/>
<path fill-rule="evenodd" clip-rule="evenodd" d="M60.1912 61.1518C62.7168 61.1577 65.1375 62.1632 66.9239 63.9486C68.7104 65.734 69.7174 68.1541 69.7247 70.6797V85.7592C67.5301 86.733 65.1556 87.2353 62.7547 87.2336C58.2867 87.2336 54.0979 85.0332 50.6632 81.7101V70.6797C50.6691 68.1546 51.6748 65.7345 53.4604 63.949C55.2459 62.1634 57.666 61.1577 60.1912 61.1518Z" fill="#ED8E86"/>
<path fill-rule="evenodd" clip-rule="evenodd" d="M80.984 52.7519C81.1347 52.7695 81.284 52.7975 81.4308 52.8356C82.7704 53.1327 83.9691 53.8764 84.8302 54.9446C85.6913 56.0128 86.1636 57.3421 86.1697 58.7141C86.1757 60.0862 85.7151 61.4195 84.8634 62.4952C84.0117 63.571 82.8195 64.3252 81.4827 64.634C80.1458 64.9429 78.7437 64.788 77.5064 64.1949C76.2692 63.6017 75.2704 62.6056 74.674 61.3699C74.0776 60.1342 73.919 58.7325 74.2243 57.3948C74.5296 56.0572 75.2806 54.863 76.3541 54.0085C76.1865 55.8013 76.4602 58.0353 78.7445 58.2698L78.6998 54.7736C78.6998 53.3495 80.0234 52.7072 80.984 52.7519Z" fill="#ED8E86"/>
<path fill-rule="evenodd" clip-rule="evenodd" d="M39.4932 52.4727L39.0408 52.5341C37.9232 52.7614 36.8923 53.2992 36.0664 54.0858C35.2406 54.8724 34.6532 55.8759 34.3718 56.9812C34.0904 58.0865 34.1264 59.2487 34.4755 60.3344C34.8246 61.4202 35.4728 62.3855 36.3457 63.1196C37.2186 63.8537 38.2807 64.3268 39.4103 64.4846C40.5398 64.6425 41.691 64.4786 42.7316 64.0119C43.7723 63.5452 44.6602 62.7945 45.2936 61.846C45.927 60.8976 46.2801 59.7897 46.3125 58.6496C46.3404 57.7255 46.1532 56.8075 45.7655 55.9681C45.3778 55.1287 44.8002 54.3909 44.0785 53.813C44.2293 55.6002 43.9277 57.8175 41.6267 58.0353L41.7328 54.5391C41.729 54.2552 41.6671 53.9751 41.5511 53.7159C41.4351 53.4568 41.2673 53.2241 41.0581 53.0321C40.8489 52.8402 40.6027 52.693 40.3345 52.5997C40.0664 52.5064 39.782 52.4688 39.4988 52.4894L39.4932 52.4727Z" fill="#ED8E86"/>
<path fill-rule="evenodd" clip-rule="evenodd" d="M60.1912 83.1342C48.8704 83.1342 39.4262 69.1718 39.4262 58.1247V43.4753C39.4409 37.9726 41.6334 32.6995 45.5244 28.8085C49.4154 24.9175 54.6885 22.725 60.1912 22.7103C65.6987 22.7177 70.9789 24.9069 74.8759 28.7987C78.773 32.6905 80.9693 37.9678 80.9841 43.4753V57.8231C80.9841 69.9146 72.7518 83.1342 60.2135 83.1342H60.1912Z" fill="#FBBEAC"/>
<path fill-rule="evenodd" clip-rule="evenodd" d="M72.0481 61.66C71.2682 61.6721 70.5094 61.915 69.8674 62.3579C69.2254 62.8009 68.7289 63.424 68.4407 64.1488C68.1524 64.8735 68.0853 65.6674 68.2477 66.4303C68.4101 67.1932 68.7948 67.8909 69.3533 68.4353C69.9118 68.9798 70.619 69.3467 71.3858 69.4897C72.1525 69.6327 72.9445 69.5454 73.6617 69.2389C74.3789 68.9323 74.9892 68.4202 75.4157 67.7672C75.8422 67.1141 76.0657 66.3494 76.0581 65.5694C76.0583 65.0475 75.9539 64.5308 75.7512 64.0498C75.5485 63.5688 75.2515 63.1332 74.8777 62.7689C74.504 62.4045 74.0611 62.1186 73.5751 61.9282C73.0891 61.7377 72.5699 61.6465 72.0481 61.66Z" fill="#ED8E86"/>
<path fill-rule="evenodd" clip-rule="evenodd" d="M48.189 62.1123C47.4072 62.1279 46.6475 62.375 46.0061 62.8223C45.3647 63.2696 44.8703 63.8971 44.5854 64.6254C44.3006 65.3537 44.2381 66.15 44.4058 66.9138C44.5735 67.6776 44.964 68.3745 45.5278 68.9164C46.0915 69.4584 46.8033 69.8209 47.5732 69.9583C48.343 70.0957 49.1363 70.0018 49.8527 69.6884C50.5692 69.375 51.1766 68.8562 51.5982 68.1976C52.0198 67.539 52.2367 66.7701 52.2214 65.9883C52.1964 64.941 51.7587 63.9459 51.0034 63.2199C50.2481 62.4939 49.2365 62.0958 48.189 62.1123Z" fill="#ED8E86"/>
<path d="M54.0309 47.6528C54.237 47.7522 54.3964 47.9277 54.4756 48.1423C54.5548 48.357 54.5476 48.594 54.4554 48.8033C54.4108 48.9094 54.3451 49.0053 54.2621 49.085C54.1792 49.1647 54.0808 49.2266 53.973 49.2669C53.8652 49.3072 53.7504 49.325 53.6355 49.3192C53.5206 49.3135 53.408 49.2843 53.3049 49.2334C52.4815 48.884 51.5876 48.7329 50.6952 48.792C49.8028 48.8512 48.9367 49.1191 48.1667 49.5741C47.9695 49.6826 47.7383 49.7116 47.5203 49.6552C47.3024 49.5989 47.1143 49.4614 46.9944 49.2709C46.8746 49.0804 46.832 48.8513 46.8755 48.6304C46.919 48.4096 47.0452 48.2137 47.2284 48.0829C50.5347 46.0109 54.0086 47.6528 54.0309 47.6528Z" fill="#403867"/>
<path d="M74.5669 48.0382C74.668 48.094 74.757 48.1694 74.8287 48.26C74.9004 48.3505 74.9534 48.4544 74.9846 48.5657C75.0158 48.6769 75.0246 48.7932 75.0104 48.9078C74.9962 49.0224 74.9594 49.1331 74.902 49.2334C74.7832 49.4296 74.5946 49.5737 74.374 49.6369C74.1534 49.7001 73.9172 49.6776 73.7124 49.5741C72.927 49.1463 72.0504 48.9133 71.1563 48.8949C70.2621 48.8764 69.3766 49.0729 68.5742 49.4679C68.3706 49.5753 68.1326 49.5974 67.9126 49.5293C67.6927 49.4613 67.5088 49.3086 67.4014 49.1049C67.294 48.9013 67.2719 48.6633 67.34 48.4433C67.4081 48.2234 67.5607 48.0395 67.7644 47.9321C71.2383 46.117 74.5446 48.0382 74.5669 48.0382Z" fill="#403867"/>
<path fill-rule="evenodd" clip-rule="evenodd" d="M60.7496 60.381C61.1518 61.498 61.8164 63.4751 61.7717 63.7934C61.6879 64.2235 59.3813 64.3519 58.767 63.6873C58.3816 63.2405 58.8731 61.5762 59.3255 60.4871C59.9231 58.9959 60.2637 58.9122 60.7776 60.381H60.7496Z" fill="#FBD5C9"/>
<path fill-rule="evenodd" clip-rule="evenodd" d="M70.1492 59.8951C70.8025 59.8907 71.4275 59.6281 71.8879 59.1646C72.3482 58.701 72.6066 58.0743 72.6066 57.421C72.6085 57.233 72.5879 57.0455 72.5451 56.8625L72.8411 56.7564C73.1698 56.6347 73.4688 56.4443 73.718 56.1979C73.7691 56.1389 73.7972 56.0636 73.7972 55.9856C73.7972 55.9077 73.7691 55.8323 73.718 55.7734C73.6562 55.7169 73.5755 55.6855 73.4918 55.6855C73.4081 55.6855 73.3274 55.7169 73.2656 55.7734C73.0293 56.0071 72.737 56.1763 72.4167 56.2649C72.7464 56.0845 73.0133 55.8078 73.1818 55.4718C73.2198 55.3982 73.2277 55.3128 73.2037 55.2335C73.1797 55.1543 73.1258 55.0875 73.0534 55.0473C73.019 55.0274 72.9808 55.0149 72.9412 55.0106C72.9017 55.0063 72.8617 55.0103 72.8238 55.0224C72.786 55.0345 72.751 55.0544 72.7213 55.0808C72.6916 55.1073 72.6677 55.1396 72.6513 55.1758C72.5034 55.4495 72.2699 55.6672 71.9866 55.7957C72.2074 55.6248 72.3647 55.385 72.4334 55.1144C72.4454 55.0751 72.4493 55.0339 72.445 54.9931C72.4408 54.9524 72.4284 54.9128 72.4086 54.8769C72.3888 54.841 72.362 54.8094 72.3299 54.784C72.2977 54.7586 72.2607 54.7399 72.2212 54.729C72.145 54.7102 72.0644 54.7218 71.9966 54.7614C71.9288 54.801 71.8792 54.8656 71.8582 54.9412C71.803 55.1267 71.6818 55.2857 71.5175 55.388C71.195 55.1741 70.827 55.0387 70.4428 54.9925C70.0586 54.9463 69.6689 54.9906 69.3049 55.122C68.941 55.2534 68.6128 55.4681 68.3466 55.749C68.0805 56.0299 67.8838 56.3692 67.7723 56.7398C67.6607 57.1103 67.6375 57.5018 67.7044 57.883C67.7712 58.2641 67.9264 58.6243 68.1574 58.9348C68.3884 59.2452 68.6888 59.4973 69.0347 59.6708C69.3805 59.8444 69.7622 59.9346 70.1492 59.9342V59.8951Z" fill="#403867"/>
<path fill-rule="evenodd" clip-rule="evenodd" d="M50.2666 59.8951C49.6105 59.8951 48.9811 59.6344 48.5171 59.1704C48.0532 58.7064 47.7925 58.0771 47.7925 57.4209C47.7906 57.233 47.8112 57.0455 47.8539 56.8624L47.5803 56.7563C47.2489 56.64 46.9489 56.4489 46.7034 56.1978C46.6475 56.1414 46.6161 56.0651 46.6161 55.9856C46.6161 55.9061 46.6475 55.8298 46.7034 55.7734C46.7643 55.7172 46.844 55.6861 46.9268 55.6861C47.0096 55.6861 47.0894 55.7172 47.1502 55.7734C47.3928 56.0017 47.6854 56.17 48.0047 56.2649C47.675 56.0844 47.4081 55.8078 47.2396 55.4718C47.22 55.4355 47.2078 55.3957 47.2037 55.3547C47.1996 55.3137 47.2036 55.2723 47.2156 55.2328C47.2275 55.1934 47.2471 55.1567 47.2733 55.1249C47.2994 55.093 47.3316 55.0667 47.368 55.0473C47.4416 55.0093 47.5271 55.0015 47.6063 55.0255C47.6855 55.0495 47.7523 55.1034 47.7925 55.1758C47.9242 55.4516 48.15 55.6714 48.4292 55.7957C48.2084 55.6248 48.0511 55.385 47.9824 55.1143C47.9627 55.0352 47.9737 54.9515 48.013 54.8801C48.0524 54.8087 48.1172 54.7547 48.1946 54.729C48.2736 54.7131 48.3556 54.7257 48.4261 54.7646C48.4967 54.8034 48.5512 54.866 48.58 54.9412C48.6236 55.126 48.7379 55.2864 48.8983 55.388C49.3027 55.1129 49.7777 54.9597 50.2666 54.9468C50.9228 54.9468 51.5521 55.2075 52.0161 55.6715C52.4801 56.1354 52.7408 56.7648 52.7408 57.4209C52.7408 58.0771 52.4801 58.7064 52.0161 59.1704C51.5521 59.6344 50.9228 59.8951 50.2666 59.8951Z" fill="#403867"/>
<path fill-rule="evenodd" clip-rule="evenodd" d="M64.5642 68.8032C64.5852 69.3903 64.4877 69.9755 64.2775 70.5241C64.0673 71.0726 63.7488 71.5732 63.3409 71.9959C62.933 72.4187 62.4441 72.7549 61.9035 72.9845C61.3628 73.2142 60.7814 73.3325 60.1939 73.3325C59.6065 73.3325 59.0251 73.2142 58.4844 72.9845C57.9437 72.7549 57.4549 72.4187 57.047 71.9959C56.6391 71.5732 56.3205 71.0726 56.1104 70.5241C55.9002 69.9755 55.8027 69.3903 55.8237 68.8032C55.8237 68.5885 55.909 68.3825 56.0609 68.2306C56.2127 68.0787 56.4187 67.9934 56.6335 67.9934H63.7544C63.9691 67.9934 64.1751 68.0787 64.327 68.2306C64.4789 68.3825 64.5642 68.5885 64.5642 68.8032Z" fill="white"/>
<path fill-rule="evenodd" clip-rule="evenodd" d="M47.1 105.603H60.1912V119.057C51.8729 119.064 43.6615 117.183 36.1757 113.556L37.41 109.423C38.1584 106.775 39.1804 105.603 40.6716 105.603H47.1Z" fill="#9AD2E9"/>
<path fill-rule="evenodd" clip-rule="evenodd" d="M81.5425 57.2255C81.5425 57.2255 78.3032 54.6899 80.1798 49.2111C78.5132 47.8721 77.1756 46.1692 76.2694 44.2329C75.3632 42.2966 74.9127 40.1785 74.9523 38.0411C74.9523 38.0411 72.506 41.9506 70.0263 42.5593C67.5466 43.1681 68.6412 39.3201 68.6412 39.3201C68.6412 39.3201 63.2294 45.7986 58.0297 45.0335C52.8301 44.2684 55.6394 39.6161 55.6394 39.6161C55.6394 39.6161 54.0867 43.7099 46.7034 43.0508C46.7034 43.0508 46.9156 50.2331 41.7998 51.5791C41.7998 51.5791 42.3583 55.5891 39.1972 57.3987C39.1972 57.3987 38.7057 52.4727 36.5722 53.6232C36.5722 53.6232 35.6563 49.2111 35.0196 43.8606C35.7624 43.3468 36.5555 42.8386 37.3653 42.2801L36.8068 41.811C36.8068 41.811 40.6213 29.1051 43.1569 26.1395C45.6925 23.1739 56.0024 19.5325 58.5324 19.8117C61.0624 20.091 71.2159 21.3643 73.6119 23.9055C76.0078 26.4467 82.3579 37.572 82.3579 37.572L81.442 38.2533L86.6863 44.3968C85.6419 49.7919 84.402 55.0083 84.402 55.0083C84.402 55.0083 81.5034 52.9865 81.5034 57.2423L81.5425 57.2255Z" fill="#403867"/>
<path d="M76.0972 20.4484C67.4405 29.6077 53.1597 39.8506 33.992 37.1195C34.5141 34.3917 35.3209 31.7261 36.3991 29.1665C52.9865 31.8417 65.4801 25.3966 73.5616 18.7617C74.512 19.1419 75.3748 19.712 76.0972 20.4372V20.4484Z" fill="#4D3F74"/>
</svg>
