<svg width="83" height="58" viewBox="0 0 83 58" fill="none" xmlns="http://www.w3.org/2000/svg">
<path d="M12.45 24.8571C17.028 24.8571 20.75 21.1415 20.75 16.5714C20.75 12.0013 17.028 8.28571 12.45 8.28571C7.87203 8.28571 4.15 12.0013 4.15 16.5714C4.15 21.1415 7.87203 24.8571 12.45 24.8571ZM70.55 24.8571C75.128 24.8571 78.85 21.1415 78.85 16.5714C78.85 12.0013 75.128 8.28571 70.55 8.28571C65.972 8.28571 62.25 12.0013 62.25 16.5714C62.25 21.1415 65.972 24.8571 70.55 24.8571ZM74.7 29H66.4C64.1175 29 62.0555 29.9192 60.5511 31.408C65.7775 34.2692 69.4866 39.4348 70.2906 45.5714H78.85C81.1455 45.5714 83 43.7201 83 41.4286V37.2857C83 32.7156 79.278 29 74.7 29ZM41.5 29C49.5277 29 56.025 22.5138 56.025 14.5C56.025 6.48616 49.5277 0 41.5 0C33.4723 0 26.975 6.48616 26.975 14.5C26.975 22.5138 33.4723 29 41.5 29ZM51.46 33.1429H50.3836C47.6861 34.4375 44.6903 35.2143 41.5 35.2143C38.3097 35.2143 35.3269 34.4375 32.6164 33.1429H31.54C23.2919 33.1429 16.6 39.8232 16.6 48.0571V51.7857C16.6 55.2165 19.3883 58 22.825 58H60.175C63.6117 58 66.4 55.2165 66.4 51.7857V48.0571C66.4 39.8232 59.7081 33.1429 51.46 33.1429ZM22.4489 31.408C20.9445 29.9192 18.8825 29 16.6 29H8.3C3.72203 29 0 32.7156 0 37.2857V41.4286C0 43.7201 1.85453 45.5714 4.15 45.5714H12.6964C13.5134 39.4348 17.2225 34.2692 22.4489 31.408Z" fill="#F89D70"/>
</svg>
