<svg width="32" height="32" viewBox="0 0 32 32" fill="none" xmlns="http://www.w3.org/2000/svg">
<circle cx="16" cy="16" r="16" fill="#A4CAED"/>
<path d="M25.7386 11.4859C25.7526 11.6828 25.7526 11.8797 25.7526 12.0766C25.7526 18.0812 21.2158 25 12.9239 25C10.3693 25 7.99621 24.2547 6 22.961C6.36296 23.0031 6.71191 23.0172 7.08883 23.0172C9.19667 23.0172 11.1371 22.3 12.6866 21.0766C10.7043 21.0344 9.04314 19.7266 8.4708 17.9266C8.75001 17.9687 9.02918 17.9969 9.32236 17.9969C9.72717 17.9969 10.132 17.9406 10.5089 17.8422C8.44291 17.4203 6.89337 15.5922 6.89337 13.3844V13.3281C7.4936 13.6656 8.19163 13.8766 8.93143 13.9047C7.71695 13.089 6.9213 11.6969 6.9213 10.1218C6.9213 9.27811 7.14461 8.50467 7.53549 7.82967C9.75505 10.5859 13.0914 12.3859 16.8325 12.5828C16.7627 12.2453 16.7208 11.8938 16.7208 11.5422C16.7208 9.03904 18.731 7 21.2297 7C22.5279 7 23.7005 7.54844 24.5241 8.43437C25.5431 8.23751 26.5203 7.8578 27.3858 7.3375C27.0507 8.39221 26.3388 9.27815 25.4036 9.84061C26.3109 9.74222 27.1904 9.48904 28 9.13752C27.3859 10.0375 26.6181 10.839 25.7386 11.4859Z" fill="white"/>
</svg>
