<svg width="56" height="56" viewBox="0 0 56 56" fill="none" xmlns="http://www.w3.org/2000/svg">
<circle cx="27.6967" cy="27.6967" r="27.6967" fill="#FDE1A9"/>
<path fill-rule="evenodd" clip-rule="evenodd" d="M13.897 43.2079C12.7644 42.3559 11.0682 40.2638 12.4656 36.4598C12.4656 36.4598 10.2634 32.087 11.9937 28.3328C13.7239 24.5786 15.0164 23.7974 15.2864 18.9447C15.5565 14.0921 20.1417 2.90294 29.4197 7.2968C29.4197 7.2968 30.5496 6.92715 31.4514 7.16572C32.3533 7.40429 33.2708 8.60762 33.2708 8.60762C33.2708 8.60762 35.6146 8.71772 36.3853 11.7536C36.6843 11.9138 36.927 12.1617 37.0807 12.4641C37.2345 12.7664 37.2919 13.1086 37.2452 13.4445C37.2452 13.4445 38.7579 17.7047 40.9784 20.7143C43.199 23.724 45.4116 28.1729 42.5278 32.7738C39.644 37.3748 38.071 38.9189 39.3819 42.2799C39.3998 42.3068 39.4115 42.3373 39.4161 42.3693C39.4208 42.4013 39.4182 42.4339 39.4087 42.4648C39.3992 42.4957 39.3829 42.524 39.361 42.5478C39.3391 42.5716 39.3122 42.5902 39.2822 42.6023C39.1328 42.66 37.5913 42.078 36.5085 40.505C31.9312 44.8071 22.9731 48.3201 18.4901 46.8808C15.9471 46.0681 14.6074 44.5974 13.897 43.2105V43.2079Z" fill="#403867"/>
<path fill-rule="evenodd" clip-rule="evenodd" d="M44.1402 50.0609V47.2899C44.1346 45.821 43.5487 44.4139 42.51 43.3752C41.4714 42.3366 40.0643 41.7506 38.5954 41.7451H16.9879C15.5184 41.7486 14.1101 42.3339 13.071 43.373C12.0319 44.4121 11.4466 45.8204 11.4431 47.2899V50.0609C16.0587 53.8283 21.8338 55.8859 27.7916 55.8859C33.7495 55.8859 39.5246 53.8283 44.1402 50.0609V50.0609Z" fill="#FBBEAC"/>
<path fill-rule="evenodd" clip-rule="evenodd" d="M33.9315 49.5706H27.7864V55.8861C31.6913 55.8917 35.5463 55.0087 39.0594 53.3038C38.8497 52.6038 38.6295 51.8645 38.4905 51.3638C38.1287 50.1212 37.649 49.5706 36.949 49.5706H33.9315Z" fill="#9AD2E9"/>
<path fill-rule="evenodd" clip-rule="evenodd" d="M27.7864 28.7051C28.972 28.7078 30.1082 29.1799 30.9468 30.0179C31.7854 30.856 32.258 31.992 32.2615 33.1776V41.7451C32.258 42.9309 31.7855 44.0672 30.947 44.9057C30.1085 45.7442 28.9722 46.2167 27.7864 46.2202V46.2202C26.6008 46.2167 25.4648 45.7441 24.6267 44.9055C23.7887 44.0669 23.3166 42.9307 23.3139 41.7451V33.1776C23.3166 31.9923 23.7887 30.8563 24.6269 30.0181C25.4651 29.1799 26.601 28.7078 27.7864 28.7051V28.7051Z" fill="#FBBEAC"/>
<path fill-rule="evenodd" clip-rule="evenodd" d="M27.7864 28.7051C28.972 28.7078 30.1082 29.1799 30.9468 30.0179C31.7854 30.856 32.258 31.992 32.2615 33.1776V40.256C31.2313 40.7131 30.1167 40.9489 28.9897 40.9481C26.8924 40.9481 24.9262 39.9152 23.3139 38.3553V33.1776C23.3166 31.9923 23.7887 30.8563 24.6269 30.0181C25.4651 29.1799 26.601 28.7078 27.7864 28.7051V28.7051Z" fill="#ED8E86"/>
<path fill-rule="evenodd" clip-rule="evenodd" d="M37.5467 24.7621C37.6175 24.7703 37.6875 24.7835 37.7565 24.8014C38.3852 24.9408 38.9479 25.2899 39.3521 25.7914C39.7563 26.2928 39.9781 26.9167 39.9809 27.5608C39.9837 28.2048 39.7675 28.8307 39.3677 29.3357C38.9679 29.8406 38.4083 30.1947 37.7808 30.3396C37.1533 30.4846 36.4951 30.4119 35.9143 30.1335C35.3335 29.8551 34.8647 29.3875 34.5847 28.8074C34.3048 28.2274 34.2303 27.5694 34.3736 26.9415C34.517 26.3136 34.8695 25.7531 35.3734 25.3519C35.2947 26.1935 35.4232 27.2421 36.4954 27.3522L36.4745 25.7111C36.4745 25.0426 37.0958 24.7411 37.5467 24.7621V24.7621Z" fill="#ED8E86"/>
<path fill-rule="evenodd" clip-rule="evenodd" d="M18.0706 24.6311L17.8583 24.6599C17.3337 24.7666 16.8497 25.0191 16.4621 25.3883C16.0744 25.7576 15.7987 26.2286 15.6666 26.7474C15.5345 27.2663 15.5514 27.8118 15.7153 28.3215C15.8792 28.8311 16.1835 29.2843 16.5932 29.6289C17.0029 29.9734 17.5015 30.1955 18.0317 30.2696C18.5619 30.3437 19.1023 30.2668 19.5908 30.0477C20.0793 29.8286 20.4961 29.4763 20.7934 29.031C21.0907 28.5858 21.2565 28.0658 21.2717 27.5306C21.2848 27.0968 21.1969 26.6659 21.0149 26.2719C20.8329 25.8779 20.5618 25.5316 20.223 25.2603C20.2938 26.0992 20.1522 27.14 19.0721 27.2422L19.1219 25.6011C19.1201 25.4678 19.0911 25.3363 19.0366 25.2147C18.9822 25.0931 18.9034 24.9838 18.8052 24.8937C18.707 24.8036 18.5914 24.7345 18.4656 24.6907C18.3397 24.6469 18.2062 24.6293 18.0733 24.639L18.0706 24.6311Z" fill="#ED8E86"/>
<path fill-rule="evenodd" clip-rule="evenodd" d="M27.7864 39.0238C22.4723 39.0238 18.0392 32.4698 18.0392 27.2842V20.4076C18.0461 17.8246 19.0752 15.3494 20.9017 13.5229C22.7282 11.6965 25.2034 10.6673 27.7864 10.6604V10.6604C30.3717 10.6639 32.8502 11.6915 34.6795 13.5183C36.5088 15.3452 37.5398 17.8224 37.5467 20.4076V27.1426C37.5467 32.8184 33.6824 39.0238 27.7969 39.0238H27.7864Z" fill="#FBBEAC"/>
<path fill-rule="evenodd" clip-rule="evenodd" d="M33.3522 28.9437C32.9861 28.9494 32.6299 29.0634 32.3285 29.2713C32.0272 29.4792 31.7941 29.7717 31.6588 30.1119C31.5235 30.4521 31.492 30.8248 31.5682 31.1829C31.6445 31.541 31.8251 31.8685 32.0872 32.1241C32.3494 32.3797 32.6813 32.5519 33.0413 32.619C33.4012 32.6861 33.7729 32.6452 34.1096 32.5013C34.4462 32.3574 34.7327 32.117 34.9329 31.8104C35.1331 31.5039 35.2381 31.1449 35.2345 30.7788C35.2346 30.5338 35.1856 30.2912 35.0904 30.0655C34.9953 29.8397 34.8559 29.6352 34.6804 29.4642C34.505 29.2931 34.2971 29.159 34.0689 29.0696C33.8408 28.9802 33.5971 28.9374 33.3522 28.9437Z" fill="#ED8E86"/>
<path fill-rule="evenodd" clip-rule="evenodd" d="M22.1525 29.1561C21.7855 29.1634 21.4289 29.2794 21.1278 29.4893C20.8267 29.6993 20.5947 29.9939 20.461 30.3357C20.3272 30.6776 20.2979 31.0514 20.3766 31.4099C20.4554 31.7685 20.6386 32.0956 20.9033 32.35C21.1679 32.6043 21.5021 32.7745 21.8634 32.839C22.2248 32.9035 22.5972 32.8594 22.9335 32.7123C23.2698 32.5652 23.5549 32.3217 23.7528 32.0125C23.9507 31.7034 24.0525 31.3425 24.0453 30.9755C24.0336 30.4838 23.8281 30.0168 23.4736 29.676C23.119 29.3352 22.6442 29.1483 22.1525 29.1561V29.1561Z" fill="#ED8E86"/>
<path d="M24.8947 22.3687C24.9915 22.4153 25.0663 22.4977 25.1035 22.5984C25.1407 22.6992 25.1373 22.8104 25.094 22.9087C25.0731 22.9585 25.0422 23.0035 25.0033 23.0409C24.9643 23.0784 24.9182 23.1074 24.8676 23.1263C24.817 23.1453 24.7631 23.1536 24.7091 23.1509C24.6552 23.1482 24.6024 23.1345 24.5539 23.1106C24.1674 22.9466 23.7479 22.8757 23.3289 22.9034C22.91 22.9312 22.5035 23.0569 22.142 23.2705C22.0495 23.3214 21.9409 23.3351 21.8386 23.3086C21.7363 23.2822 21.648 23.2176 21.5918 23.1282C21.5355 23.0388 21.5155 22.9312 21.5359 22.8276C21.5564 22.7239 21.6156 22.632 21.7016 22.5705C23.2536 21.5979 24.8843 22.3687 24.8947 22.3687V22.3687Z" fill="#403867"/>
<path d="M34.5345 22.5495C34.582 22.5757 34.6237 22.6111 34.6574 22.6536C34.6911 22.6961 34.7159 22.7449 34.7306 22.7971C34.7452 22.8493 34.7493 22.9039 34.7427 22.9577C34.736 23.0115 34.7187 23.0634 34.6918 23.1105C34.636 23.2026 34.5475 23.2703 34.4439 23.2999C34.3404 23.3296 34.2295 23.319 34.1334 23.2704C33.7647 23.0696 33.3532 22.9603 32.9335 22.9516C32.5138 22.9429 32.0981 23.0352 31.7215 23.2206C31.6259 23.271 31.5142 23.2814 31.4109 23.2494C31.3077 23.2175 31.2214 23.1458 31.1709 23.0502C31.1205 22.9546 31.1102 22.8429 31.1421 22.7396C31.1741 22.6364 31.2457 22.5501 31.3413 22.4997C32.972 21.6476 34.524 22.5495 34.5345 22.5495V22.5495Z" fill="#403867"/>
<path fill-rule="evenodd" clip-rule="evenodd" d="M28.0485 28.3432C28.2373 28.8676 28.5493 29.7956 28.5283 29.9451C28.489 30.1469 27.4062 30.2072 27.1179 29.8952C26.937 29.6855 27.1677 28.9043 27.38 28.393C27.6605 27.6931 27.8205 27.6537 28.0617 28.3432H28.0485Z" fill="#FBD5C9"/>
<path fill-rule="evenodd" clip-rule="evenodd" d="M32.4608 28.1153C32.7674 28.1132 33.0608 27.99 33.2769 27.7724C33.493 27.5548 33.6143 27.2606 33.6143 26.9539C33.6152 26.8657 33.6055 26.7777 33.5854 26.6918L33.7244 26.6419C33.8787 26.5848 34.019 26.4955 34.136 26.3798C34.16 26.3521 34.1732 26.3168 34.1732 26.2802C34.1732 26.2436 34.16 26.2082 34.136 26.1805C34.107 26.154 34.0691 26.1393 34.0298 26.1393C33.9905 26.1393 33.9526 26.154 33.9236 26.1805C33.8127 26.2902 33.6755 26.3697 33.5251 26.4112V26.4112C33.6799 26.3266 33.8052 26.1967 33.8843 26.039C33.9021 26.0044 33.9058 25.9643 33.8946 25.9271C33.8833 25.8899 33.858 25.8586 33.824 25.8397C33.8079 25.8304 33.7899 25.8245 33.7714 25.8225C33.7528 25.8205 33.734 25.8224 33.7163 25.828C33.6985 25.8337 33.6821 25.8431 33.6681 25.8555C33.6542 25.8679 33.643 25.883 33.6352 25.9C33.5658 26.0285 33.4563 26.1307 33.3233 26.191V26.191C33.4269 26.1108 33.5007 25.9982 33.533 25.8712C33.5386 25.8528 33.5404 25.8334 33.5384 25.8143C33.5364 25.7951 33.5306 25.7766 33.5213 25.7597C33.5121 25.7429 33.4995 25.728 33.4844 25.7161C33.4693 25.7042 33.4519 25.6954 33.4334 25.6903C33.3976 25.6814 33.3598 25.6869 33.328 25.7055C33.2961 25.7241 33.2728 25.7544 33.263 25.7899C33.2371 25.877 33.1802 25.9516 33.1031 25.9996C32.9517 25.8992 32.7789 25.8357 32.5986 25.814C32.4182 25.7923 32.2353 25.8131 32.0645 25.8748C31.8936 25.9364 31.7396 26.0372 31.6146 26.1691C31.4897 26.301 31.3974 26.4602 31.345 26.6342C31.2927 26.8081 31.2817 26.9919 31.3131 27.1708C31.3445 27.3497 31.4173 27.5188 31.5258 27.6645C31.6342 27.8102 31.7752 27.9286 31.9376 28.01C32.0999 28.0915 32.2791 28.1338 32.4608 28.1337V28.1153Z" fill="#403867"/>
<path fill-rule="evenodd" clip-rule="evenodd" d="M23.1277 28.1152C22.8197 28.1152 22.5243 27.9929 22.3065 27.7751C22.0887 27.5573 21.9664 27.2619 21.9664 26.9538C21.9655 26.8656 21.9751 26.7776 21.9952 26.6917L21.8667 26.6419C21.7112 26.5873 21.5704 26.4976 21.4551 26.3797C21.4289 26.3532 21.4142 26.3174 21.4142 26.2801C21.4142 26.2428 21.4289 26.207 21.4551 26.1805C21.4837 26.1541 21.5211 26.1395 21.56 26.1395C21.5989 26.1395 21.6363 26.1541 21.6649 26.1805C21.7787 26.2876 21.9161 26.3666 22.066 26.4112C21.9112 26.3265 21.7859 26.1966 21.7068 26.0389C21.6976 26.0219 21.6919 26.0032 21.69 25.9839C21.6881 25.9647 21.6899 25.9452 21.6955 25.9267C21.7012 25.9082 21.7104 25.891 21.7226 25.876C21.7349 25.8611 21.75 25.8487 21.7671 25.8396C21.8016 25.8218 21.8418 25.8181 21.879 25.8294C21.9162 25.8407 21.9475 25.866 21.9664 25.8999C22.0282 26.0294 22.1342 26.1326 22.2652 26.1909C22.1616 26.1107 22.0878 25.9981 22.0555 25.8711C22.0463 25.8339 22.0514 25.7947 22.0699 25.7612C22.0884 25.7276 22.1188 25.7023 22.1551 25.6902C22.1922 25.6828 22.2307 25.6887 22.2638 25.7069C22.2969 25.7251 22.3225 25.7545 22.336 25.7898C22.3565 25.8766 22.4101 25.9519 22.4854 25.9996C22.6753 25.8704 22.8982 25.7985 23.1277 25.7925C23.4358 25.7925 23.7312 25.9148 23.949 26.1326C24.1668 26.3504 24.2891 26.6458 24.2891 26.9538C24.2891 27.2619 24.1668 27.5573 23.949 27.7751C23.7312 27.9929 23.4358 28.1152 23.1277 28.1152V28.1152Z" fill="#403867"/>
<path fill-rule="evenodd" clip-rule="evenodd" d="M29.8391 32.2968C29.8489 32.5723 29.8032 32.8471 29.7045 33.1045C29.6059 33.362 29.4563 33.597 29.2649 33.7954C29.0734 33.9939 28.8439 34.1517 28.5901 34.2595C28.3363 34.3673 28.0634 34.4228 27.7877 34.4228C27.5119 34.4228 27.239 34.3673 26.9852 34.2595C26.7314 34.1517 26.5019 33.9939 26.3105 33.7954C26.119 33.597 25.9695 33.362 25.8708 33.1045C25.7722 32.8471 25.7264 32.5723 25.7362 32.2968C25.7362 32.1959 25.7763 32.0993 25.8476 32.028C25.9189 31.9567 26.0156 31.9166 26.1164 31.9166H29.459C29.5598 31.9166 29.6565 31.9567 29.7278 32.028C29.799 32.0993 29.8391 32.1959 29.8391 32.2968Z" fill="white"/>
<path fill-rule="evenodd" clip-rule="evenodd" d="M21.6413 49.5706H27.7864V55.8861C23.8817 55.8894 20.0272 55.0065 16.5134 53.3038L17.0927 51.3638C17.444 50.1212 17.9238 49.5706 18.6238 49.5706H21.6413Z" fill="#9AD2E9"/>
<path fill-rule="evenodd" clip-rule="evenodd" d="M37.8089 26.8621C37.8089 26.8621 36.2884 25.6719 37.1692 23.1001C36.3869 22.4716 35.759 21.6722 35.3337 20.7633C34.9083 19.8544 34.6968 18.8602 34.7154 17.8568C34.7154 17.8568 33.5671 19.692 32.4031 19.9777C31.2391 20.2635 31.7529 18.4572 31.7529 18.4572C31.7529 18.4572 29.2126 21.4983 26.7718 21.1391C24.3311 20.78 25.6498 18.5961 25.6498 18.5961C25.6498 18.5961 24.921 20.5178 21.4552 20.2084C21.4552 20.2084 21.5548 23.5799 19.1534 24.2117C19.1534 24.2117 19.4155 26.094 17.9317 26.9434C17.9317 26.9434 17.701 24.6311 16.6995 25.1712C16.6995 25.1712 16.2696 23.1001 15.9707 20.5886C16.3194 20.3474 16.6917 20.1088 17.0718 19.8467L16.8096 19.6264C16.8096 19.6264 18.6002 13.6622 19.7904 12.2701C20.9806 10.8781 25.8202 9.16875 27.0078 9.29983C28.1954 9.43091 32.9615 10.0286 34.0862 11.2215C35.2109 12.4143 38.1917 17.6366 38.1917 17.6366L37.7617 17.9565L40.2234 20.8403C39.7332 23.3728 39.1512 25.8214 39.1512 25.8214C39.1512 25.8214 37.7906 24.8723 37.7906 26.87L37.8089 26.8621Z" fill="#403867"/>
<path d="M35.2528 9.59862C31.1893 13.8981 24.4858 18.7062 15.4883 17.4242C15.7334 16.1437 16.1122 14.8925 16.6183 13.691C24.4045 14.9467 30.2691 11.9214 34.0626 8.80688C34.5087 8.98535 34.9137 9.25297 35.2528 9.59337V9.59862Z" fill="#4D3F74"/>
</svg>
